<svg width="17" height="12" viewBox="0 0 17 12" fill="none" xmlns="http://www.w3.org/2000/svg">
<path d="M5 0H1.5C0.671573 0 0 0.671573 0 1.5V10.5C0 11.3284 0.671573 12 1.5 12H5V0Z" fill="#D52B1E"/>
<path d="M15.5 0H12V12H15.5C16.3284 12 17 11.3284 17 10.5V1.5C17 0.671573 16.3284 0 15.5 0Z" fill="#D52B1E"/>
<path d="M12 0H5V12H12V0Z" fill="#EEEEEE"/>
<path d="M9.45874 7.34615C9.42095 7.24412 9.45118 7.13076 9.53431 7.06274L10.5697 6.22008L10.3694 6.12184C10.3127 6.09161 10.2825 6.02737 10.3014 5.96691L10.4903 5.28296L9.90841 5.40766C9.83283 5.42277 9.75726 5.37743 9.73459 5.30563L9.66657 5.07135L9.1451 5.65327C9.08086 5.72507 8.96372 5.66839 8.98262 5.57392L9.20556 4.37984L8.90326 4.54988C8.83525 4.58767 8.74456 4.565 8.71055 4.4932L8.31756 3.75635L7.92457 4.4932C7.88678 4.565 7.79987 4.58767 7.73185 4.54988L7.42956 4.37984L7.6525 5.57392C7.67139 5.66839 7.55425 5.72507 7.49001 5.65327L6.96855 5.07135L6.90053 5.30563C6.87786 5.3812 6.80228 5.42655 6.72671 5.40766L6.14478 5.28296L6.33372 5.96691C6.34884 6.02737 6.32239 6.09539 6.2657 6.12184L6.06543 6.22008L7.1008 7.06274C7.18394 7.13076 7.21417 7.24412 7.17638 7.34615L7.09703 7.55776L8.2382 7.42172L8.15885 8.66115H8.47249L8.39313 7.42172L9.53431 7.55776L9.45874 7.34615Z" fill="#D52B1E"/>
</svg>
