<svg width="17" height="17" viewBox="0 0 17 17" fill="none" xmlns="http://www.w3.org/2000/svg">
<path d="M17 12.75C17 13.2509 16.801 13.7314 16.4468 14.0856C16.0925 14.4399 15.6121 14.6389 15.1111 14.6389H1.88889C1.38792 14.6389 0.907478 14.4399 0.553243 14.0856C0.199007 13.7314 0 13.2509 0 12.75V4.24997C0 3.74901 0.199007 3.26856 0.553243 2.91433C0.907478 2.56009 1.38792 2.36108 1.88889 2.36108H15.1111C15.6121 2.36108 16.0925 2.56009 16.4468 2.91433C16.801 3.26856 17 3.74901 17 4.24997V12.75Z" fill="#C60A1D"/>
<path d="M0 5.66675H17V11.3334H0V5.66675Z" fill="#FFC400"/>
<path d="M4.25 8.02783V9.4445C4.25 9.82022 4.39926 10.1806 4.66493 10.4462C4.93061 10.7119 5.29094 10.8612 5.66667 10.8612C6.04239 10.8612 6.40272 10.7119 6.6684 10.4462C6.93408 10.1806 7.08333 9.82022 7.08333 9.4445V8.02783H4.25Z" fill="#EA596E"/>
<path d="M5.6665 7.55542H7.08316V8.97209H5.6665V7.55542Z" fill="#F4A2B2"/>
<path d="M4.25 7.55542H5.66667V8.97209H4.25V7.55542Z" fill="#DD2E44"/>
<path d="M5.66667 7.55558C6.44907 7.55558 7.08333 7.23845 7.08333 6.84725C7.08333 6.45605 6.44907 6.13892 5.66667 6.13892C4.88426 6.13892 4.25 6.45605 4.25 6.84725C4.25 7.23845 4.88426 7.55558 5.66667 7.55558Z" fill="#EA596E"/>
<path d="M5.66667 6.84725C6.44907 6.84725 7.08333 6.68868 7.08333 6.49308C7.08333 6.29748 6.44907 6.13892 5.66667 6.13892C4.88426 6.13892 4.25 6.29748 4.25 6.49308C4.25 6.68868 4.88426 6.84725 5.66667 6.84725Z" fill="#FFAC33"/>
<path d="M3.30566 7.55542H3.77788V10.861H3.30566V7.55542ZM7.55566 7.55542H8.02788V10.861H7.55566V7.55542Z" fill="#99AAB5"/>
<path d="M2.8335 10.3888H4.25017V10.8611H2.8335V10.3888ZM7.0835 10.3888H8.50017V10.8611H7.0835V10.3888ZM3.30573 7.08325H3.77795V7.55548H3.30573V7.08325ZM7.55573 7.08325H8.02795V7.55548H7.55573V7.08325Z" fill="#66757F"/>
</svg>
