<svg width="923" height="189" viewBox="0 0 923 189" fill="none" xmlns="http://www.w3.org/2000/svg">
<path d="M25.1804 46.1739C11.2732 46.1739 0 35.8379 0 23.087C0 10.336 11.2732 0 25.1804 0H90.2545C104.162 0 115.435 10.336 115.435 23.087C115.435 35.8379 104.162 46.1739 90.2545 46.1739H25.1804Z" fill="url(#paint0_linear_519_10065)"/>
<path d="M90.3244 45.2506H25.1107C11.8025 45.2506 0.923584 35.3786 0.923584 23.0871C0.923584 10.8923 11.6969 0.923584 25.1107 0.923584H90.3244C103.633 0.923584 114.511 10.7955 114.511 23.0871C114.406 35.3786 103.633 45.2506 90.3244 45.2506Z" fill="#0E091B"/>
<path d="M32.2299 20.1948H30.8208C30.7375 19.7895 30.5917 19.4335 30.3833 19.1266C30.1788 18.8198 29.9288 18.5622 29.6333 18.3539C29.3417 18.1418 29.0178 17.9827 28.6617 17.8766C28.3057 17.7706 27.9345 17.7176 27.5481 17.7176C26.8435 17.7176 26.2053 17.8956 25.6333 18.2516C25.0651 18.6077 24.6125 19.1323 24.2754 19.8255C23.942 20.5187 23.7754 21.3691 23.7754 22.3766C23.7754 23.3842 23.942 24.2346 24.2754 24.9278C24.6125 25.621 25.0651 26.1456 25.6333 26.5016C26.2053 26.8577 26.8435 27.0357 27.5481 27.0357C27.9345 27.0357 28.3057 26.9827 28.6617 26.8766C29.0178 26.7706 29.3417 26.6134 29.6333 26.4051C29.9288 26.1929 30.1788 25.9335 30.3833 25.6266C30.5917 25.316 30.7375 24.96 30.8208 24.5585H32.2299C32.1239 25.1532 31.9307 25.6854 31.6504 26.1551C31.3701 26.6247 31.0216 27.0244 30.6049 27.3539C30.1882 27.6797 29.7204 27.9278 29.2015 28.0982C28.6864 28.2687 28.1352 28.3539 27.5481 28.3539C26.5557 28.3539 25.6731 28.1115 24.9004 27.6266C24.1276 27.1418 23.5197 26.4524 23.0765 25.5585C22.6333 24.6645 22.4117 23.6039 22.4117 22.3766C22.4117 21.1494 22.6333 20.0888 23.0765 19.1948C23.5197 18.3009 24.1276 17.6115 24.9004 17.1266C25.6731 16.6418 26.5557 16.3994 27.5481 16.3994C28.1352 16.3994 28.6864 16.4846 29.2015 16.6551C29.7204 16.8255 30.1882 17.0755 30.6049 17.4051C31.0216 17.7308 31.3701 18.1285 31.6504 18.5982C31.9307 19.0641 32.1239 19.5963 32.2299 20.1948ZM39.8251 24.6266V19.4676H41.166V28.1948H39.8251V26.7176H39.7342C39.5296 27.1607 39.2114 27.5376 38.7796 27.8482C38.3478 28.1551 37.8024 28.3085 37.1433 28.3085C36.5978 28.3085 36.113 28.1891 35.6887 27.9505C35.2645 27.7081 34.9311 27.3444 34.6887 26.8596C34.4463 26.371 34.3251 25.7554 34.3251 25.013V19.4676H35.666V24.9221C35.666 25.5585 35.844 26.066 36.2001 26.4448C36.5599 26.8236 37.0183 27.013 37.5751 27.013C37.9084 27.013 38.2474 26.9278 38.5921 26.7573C38.9406 26.5869 39.2323 26.3255 39.4671 25.9732C39.7058 25.621 39.8251 25.1721 39.8251 24.6266ZM49.8038 21.4221L48.5992 21.763C48.5235 21.5622 48.4117 21.3672 48.264 21.1778C48.1201 20.9846 47.9231 20.8255 47.6731 20.7005C47.4231 20.5755 47.103 20.513 46.7129 20.513C46.1788 20.513 45.7337 20.6361 45.3776 20.8823C45.0254 21.1247 44.8492 21.4335 44.8492 21.8085C44.8492 22.1418 44.9704 22.4051 45.2129 22.5982C45.4553 22.7914 45.8341 22.9524 46.3492 23.0812L47.6447 23.3994C48.425 23.5888 49.0064 23.8785 49.389 24.2687C49.7716 24.6551 49.9629 25.1532 49.9629 25.763C49.9629 26.263 49.8189 26.71 49.531 27.1039C49.247 27.4979 48.8492 27.8085 48.3379 28.0357C47.8265 28.263 47.2318 28.3766 46.5538 28.3766C45.6636 28.3766 44.9269 28.1835 44.3435 27.7971C43.7602 27.4107 43.3909 26.8463 43.2356 26.1039L44.5083 25.7857C44.6295 26.2554 44.8587 26.6077 45.1958 26.8426C45.5367 27.0774 45.9818 27.1948 46.531 27.1948C47.156 27.1948 47.6523 27.0622 48.0197 26.7971C48.3909 26.5282 48.5765 26.2062 48.5765 25.8312C48.5765 25.5282 48.4704 25.2744 48.2583 25.0698C48.0462 24.8615 47.7204 24.7062 47.281 24.6039L45.8265 24.263C45.0273 24.0736 44.4401 23.7801 44.0651 23.3823C43.6939 22.9808 43.5083 22.4789 43.5083 21.8766C43.5083 21.3842 43.6466 20.9486 43.9231 20.5698C44.2034 20.191 44.5841 19.8937 45.0651 19.6778C45.55 19.4619 46.0992 19.3539 46.7129 19.3539C47.5765 19.3539 48.2545 19.5433 48.747 19.9221C49.2432 20.3009 49.5954 20.8009 49.8038 21.4221ZM55.7768 19.4676V20.6039H51.2541V19.4676H55.7768ZM52.5722 17.3766H53.9131V25.6948C53.9131 26.0736 53.9681 26.3577 54.0779 26.5471C54.1916 26.7327 54.3355 26.8577 54.5097 26.9221C54.6878 26.9827 54.8753 27.013 55.0722 27.013C55.22 27.013 55.3412 27.0054 55.4359 26.9903C55.5306 26.9713 55.6063 26.9562 55.6631 26.9448L55.9359 28.1494C55.845 28.1835 55.7181 28.2176 55.5552 28.2516C55.3923 28.2895 55.1859 28.3085 54.9359 28.3085C54.5571 28.3085 54.1859 28.227 53.8222 28.0641C53.4624 27.9013 53.1631 27.6532 52.9245 27.3198C52.6897 26.9865 52.5722 26.566 52.5722 26.0585V17.3766ZM61.2455 28.3766C60.4577 28.3766 59.7664 28.1891 59.1717 27.8141C58.5808 27.4391 58.1186 26.9145 57.7853 26.2403C57.4558 25.566 57.291 24.7782 57.291 23.8766C57.291 22.9676 57.4558 22.174 57.7853 21.496C58.1186 20.8179 58.5808 20.2914 59.1717 19.9164C59.7664 19.5414 60.4577 19.3539 61.2455 19.3539C62.0334 19.3539 62.7228 19.5414 63.3137 19.9164C63.9084 20.2914 64.3705 20.8179 64.7001 21.496C65.0334 22.174 65.2001 22.9676 65.2001 23.8766C65.2001 24.7782 65.0334 25.566 64.7001 26.2403C64.3705 26.9145 63.9084 27.4391 63.3137 27.8141C62.7228 28.1891 62.0334 28.3766 61.2455 28.3766ZM61.2455 27.1721C61.844 27.1721 62.3364 27.0187 62.7228 26.7119C63.1092 26.4051 63.3952 26.0016 63.5808 25.5016C63.7664 25.0016 63.8592 24.46 63.8592 23.8766C63.8592 23.2933 63.7664 22.7497 63.5808 22.246C63.3952 21.7422 63.1092 21.335 62.7228 21.0244C62.3364 20.7138 61.844 20.5585 61.2455 20.5585C60.6471 20.5585 60.1546 20.7138 59.7683 21.0244C59.3819 21.335 59.0959 21.7422 58.9103 22.246C58.7247 22.7497 58.6319 23.2933 58.6319 23.8766C58.6319 24.46 58.7247 25.0016 58.9103 25.5016C59.0959 26.0016 59.3819 26.4051 59.7683 26.7119C60.1546 27.0187 60.6471 27.1721 61.2455 27.1721ZM67.247 28.1948V19.4676H68.5424V20.8312H68.656C68.8379 20.3653 69.1314 20.0035 69.5367 19.746C69.942 19.4846 70.4288 19.3539 70.997 19.3539C71.5727 19.3539 72.0519 19.4846 72.4345 19.746C72.8208 20.0035 73.122 20.3653 73.3379 20.8312H73.4288C73.6523 20.3804 73.9875 20.0225 74.4345 19.7573C74.8814 19.4884 75.4174 19.3539 76.0424 19.3539C76.8227 19.3539 77.461 19.5982 77.9572 20.0869C78.4534 20.5717 78.7015 21.3274 78.7015 22.3539V28.1948H77.3606V22.3539C77.3606 21.71 77.1845 21.2497 76.8322 20.9732C76.4799 20.6967 76.0651 20.5585 75.5879 20.5585C74.9742 20.5585 74.4989 20.7441 74.1617 21.1153C73.8246 21.4827 73.656 21.9486 73.656 22.513V28.1948H72.2924V22.2176C72.2924 21.7213 72.1314 21.3217 71.8095 21.0187C71.4875 20.7119 71.0727 20.5585 70.5651 20.5585C70.2167 20.5585 69.8909 20.6513 69.5879 20.8369C69.2886 21.0225 69.0462 21.2801 68.8606 21.6096C68.6788 21.9354 68.5879 22.3122 68.5879 22.7403V28.1948H67.247ZM84.8123 28.3766C83.9714 28.3766 83.246 28.191 82.6362 27.8198C82.0301 27.4448 81.5623 26.9221 81.2328 26.2516C80.907 25.5774 80.7441 24.7933 80.7441 23.8994C80.7441 23.0054 80.907 22.2176 81.2328 21.5357C81.5623 20.8501 82.0206 20.316 82.6078 19.9335C83.1987 19.5471 83.8881 19.3539 84.6759 19.3539C85.1305 19.3539 85.5793 19.4297 86.0225 19.5812C86.4657 19.7327 86.8691 19.9789 87.2328 20.3198C87.5964 20.6569 87.8862 21.1039 88.1021 21.6607C88.318 22.2176 88.4259 22.9032 88.4259 23.7176V24.2857H81.6987V23.1266H87.0623C87.0623 22.6342 86.9638 22.1948 86.7668 21.8085C86.5737 21.4221 86.2971 21.1172 85.9373 20.8937C85.5812 20.6702 85.1608 20.5585 84.6759 20.5585C84.1418 20.5585 83.6797 20.691 83.2896 20.9562C82.9032 21.2176 82.6059 21.5585 82.3975 21.9789C82.1892 22.3994 82.085 22.8501 82.085 23.3312V24.1039C82.085 24.763 82.1987 25.3217 82.4259 25.7801C82.657 26.2346 82.9771 26.5812 83.3862 26.8198C83.7953 27.0547 84.2706 27.1721 84.8123 27.1721C85.1646 27.1721 85.4828 27.1229 85.7668 27.0244C86.0547 26.9221 86.3028 26.7706 86.5112 26.5698C86.7195 26.3653 86.8805 26.1115 86.9941 25.8085L88.2896 26.1721C88.1532 26.6115 87.924 26.9979 87.6021 27.3312C87.2801 27.6607 86.8824 27.9183 86.4089 28.1039C85.9354 28.2857 85.4032 28.3766 84.8123 28.3766ZM90.4657 28.1948V19.4676H91.7612V20.7857H91.8521C92.0112 20.3539 92.299 20.0035 92.7157 19.7346C93.1324 19.4657 93.6021 19.3312 94.1248 19.3312C94.2233 19.3312 94.3464 19.3331 94.4941 19.3369C94.6418 19.3407 94.7536 19.3463 94.8293 19.3539V20.7176C94.7839 20.7062 94.6797 20.6891 94.5168 20.6664C94.3578 20.6399 94.1892 20.6266 94.0112 20.6266C93.5869 20.6266 93.2081 20.7157 92.8748 20.8937C92.5453 21.0679 92.2839 21.3104 92.0907 21.621C91.9013 21.9278 91.8066 22.2782 91.8066 22.6721V28.1948H90.4657Z" fill="white"/>
<path d="M375.96 188.39C360.601 188.39 348.152 177.227 348.152 163.456C348.152 149.685 360.601 138.522 375.96 138.522H437.626C452.984 138.522 465.433 149.685 465.433 163.456C465.433 177.227 452.984 188.39 437.626 188.39H375.96Z" fill="url(#paint1_linear_519_10065)"/>
<path d="M437.754 187.466H375.831C361.109 187.466 349.075 176.772 349.075 163.456C349.075 150.245 360.992 139.445 375.831 139.445H437.754C452.476 139.445 464.51 150.14 464.51 163.456C464.393 176.772 452.476 187.466 437.754 187.466Z" fill="#0E091B"/>
<path d="M375.773 159.468C375.705 158.892 375.428 158.445 374.943 158.127C374.458 157.808 373.864 157.649 373.159 157.649C372.644 157.649 372.193 157.733 371.807 157.899C371.424 158.066 371.125 158.295 370.909 158.587C370.697 158.879 370.591 159.21 370.591 159.581C370.591 159.892 370.665 160.159 370.812 160.382C370.964 160.602 371.157 160.786 371.392 160.933C371.627 161.077 371.873 161.197 372.131 161.291C372.388 161.382 372.625 161.456 372.841 161.513L374.023 161.831C374.326 161.911 374.663 162.021 375.034 162.161C375.409 162.301 375.767 162.492 376.108 162.735C376.453 162.973 376.737 163.28 376.96 163.655C377.184 164.03 377.295 164.49 377.295 165.036C377.295 165.665 377.131 166.233 376.801 166.74C376.475 167.248 375.998 167.651 375.369 167.951C374.744 168.25 373.985 168.399 373.091 168.399C372.258 168.399 371.536 168.265 370.926 167.996C370.32 167.727 369.843 167.352 369.494 166.871C369.15 166.39 368.955 165.831 368.909 165.195H370.364C370.402 165.634 370.549 165.998 370.807 166.286C371.068 166.57 371.398 166.782 371.795 166.922C372.197 167.058 372.629 167.127 373.091 167.127C373.629 167.127 374.112 167.04 374.54 166.865C374.968 166.687 375.307 166.441 375.557 166.127C375.807 165.808 375.932 165.437 375.932 165.013C375.932 164.627 375.824 164.312 375.608 164.07C375.392 163.827 375.108 163.63 374.756 163.479C374.403 163.327 374.023 163.195 373.614 163.081L372.182 162.672C371.273 162.411 370.553 162.038 370.023 161.553C369.492 161.068 369.227 160.433 369.227 159.649C369.227 158.998 369.403 158.43 369.756 157.945C370.112 157.456 370.589 157.077 371.188 156.808C371.79 156.536 372.462 156.399 373.205 156.399C373.955 156.399 374.621 156.534 375.205 156.803C375.788 157.068 376.25 157.432 376.591 157.894C376.936 158.356 377.117 158.88 377.136 159.468H375.773ZM383.226 159.468V160.604H378.703V159.468H383.226ZM380.021 157.377H381.362V165.695C381.362 166.074 381.417 166.358 381.527 166.547C381.641 166.733 381.785 166.858 381.959 166.922C382.137 166.983 382.324 167.013 382.521 167.013C382.669 167.013 382.79 167.005 382.885 166.99C382.98 166.971 383.055 166.956 383.112 166.945L383.385 168.149C383.294 168.183 383.167 168.218 383.004 168.252C382.841 168.29 382.635 168.308 382.385 168.308C382.006 168.308 381.635 168.227 381.271 168.064C380.911 167.901 380.612 167.653 380.374 167.32C380.139 166.986 380.021 166.566 380.021 166.058V157.377ZM388.695 168.377C387.907 168.377 387.215 168.189 386.621 167.814C386.03 167.439 385.568 166.915 385.234 166.24C384.905 165.566 384.74 164.778 384.74 163.877C384.74 162.968 384.905 162.174 385.234 161.496C385.568 160.818 386.03 160.291 386.621 159.916C387.215 159.541 387.907 159.354 388.695 159.354C389.482 159.354 390.172 159.541 390.763 159.916C391.357 160.291 391.82 160.818 392.149 161.496C392.482 162.174 392.649 162.968 392.649 163.877C392.649 164.778 392.482 165.566 392.149 166.24C391.82 166.915 391.357 167.439 390.763 167.814C390.172 168.189 389.482 168.377 388.695 168.377ZM388.695 167.172C389.293 167.172 389.786 167.019 390.172 166.712C390.558 166.405 390.844 166.002 391.03 165.502C391.215 165.002 391.308 164.46 391.308 163.877C391.308 163.293 391.215 162.75 391.03 162.246C390.844 161.742 390.558 161.335 390.172 161.024C389.786 160.714 389.293 160.558 388.695 160.558C388.096 160.558 387.604 160.714 387.217 161.024C386.831 161.335 386.545 161.742 386.359 162.246C386.174 162.75 386.081 163.293 386.081 163.877C386.081 164.46 386.174 165.002 386.359 165.502C386.545 166.002 386.831 166.405 387.217 166.712C387.604 167.019 388.096 167.172 388.695 167.172ZM394.696 168.195V159.468H395.991V160.786H396.082C396.241 160.354 396.529 160.004 396.946 159.735C397.363 159.466 397.832 159.331 398.355 159.331C398.454 159.331 398.577 159.333 398.724 159.337C398.872 159.341 398.984 159.346 399.06 159.354V160.718C399.014 160.706 398.91 160.689 398.747 160.666C398.588 160.64 398.42 160.627 398.241 160.627C397.817 160.627 397.438 160.716 397.105 160.894C396.776 161.068 396.514 161.31 396.321 161.621C396.132 161.928 396.037 162.278 396.037 162.672V168.195H394.696ZM404.043 168.377C403.202 168.377 402.476 168.191 401.866 167.82C401.26 167.445 400.793 166.922 400.463 166.252C400.137 165.577 399.974 164.793 399.974 163.899C399.974 163.005 400.137 162.218 400.463 161.536C400.793 160.85 401.251 160.316 401.838 159.933C402.429 159.547 403.118 159.354 403.906 159.354C404.361 159.354 404.81 159.43 405.253 159.581C405.696 159.733 406.099 159.979 406.463 160.32C406.827 160.657 407.116 161.104 407.332 161.661C407.548 162.218 407.656 162.903 407.656 163.718V164.286H400.929V163.127H406.293C406.293 162.634 406.194 162.195 405.997 161.808C405.804 161.422 405.527 161.117 405.168 160.894C404.812 160.67 404.391 160.558 403.906 160.558C403.372 160.558 402.91 160.691 402.52 160.956C402.134 161.218 401.836 161.558 401.628 161.979C401.42 162.399 401.315 162.85 401.315 163.331V164.104C401.315 164.763 401.429 165.322 401.656 165.78C401.887 166.235 402.207 166.581 402.616 166.82C403.026 167.055 403.501 167.172 404.043 167.172C404.395 167.172 404.713 167.123 404.997 167.024C405.285 166.922 405.533 166.771 405.741 166.57C405.95 166.365 406.111 166.111 406.224 165.808L407.52 166.172C407.384 166.611 407.154 166.998 406.832 167.331C406.51 167.661 406.113 167.918 405.639 168.104C405.166 168.286 404.634 168.377 404.043 168.377ZM413.582 159.468V160.604H408.878V159.468H413.582ZM410.287 168.195V158.263C410.287 157.763 410.404 157.346 410.639 157.013C410.874 156.68 411.179 156.43 411.554 156.263C411.929 156.096 412.325 156.013 412.741 156.013C413.071 156.013 413.34 156.04 413.548 156.093C413.757 156.146 413.912 156.195 414.014 156.24L413.628 157.399C413.56 157.377 413.465 157.348 413.344 157.314C413.226 157.28 413.071 157.263 412.878 157.263C412.435 157.263 412.115 157.375 411.918 157.598C411.724 157.822 411.628 158.149 411.628 158.581V168.195H410.287ZM415.462 168.195V159.468H416.757V160.786H416.848C417.007 160.354 417.295 160.004 417.712 159.735C418.128 159.466 418.598 159.331 419.121 159.331C419.219 159.331 419.342 159.333 419.49 159.337C419.638 159.341 419.75 159.346 419.825 159.354V160.718C419.78 160.706 419.676 160.689 419.513 160.666C419.354 160.64 419.185 160.627 419.007 160.627C418.583 160.627 418.204 160.716 417.871 160.894C417.541 161.068 417.28 161.31 417.087 161.621C416.897 161.928 416.803 162.278 416.803 162.672V168.195H415.462ZM424.695 168.377C423.907 168.377 423.215 168.189 422.621 167.814C422.03 167.439 421.568 166.915 421.234 166.24C420.905 165.566 420.74 164.778 420.74 163.877C420.74 162.968 420.905 162.174 421.234 161.496C421.568 160.818 422.03 160.291 422.621 159.916C423.215 159.541 423.907 159.354 424.695 159.354C425.482 159.354 426.172 159.541 426.763 159.916C427.357 160.291 427.82 160.818 428.149 161.496C428.482 162.174 428.649 162.968 428.649 163.877C428.649 164.778 428.482 165.566 428.149 166.24C427.82 166.915 427.357 167.439 426.763 167.814C426.172 168.189 425.482 168.377 424.695 168.377ZM424.695 167.172C425.293 167.172 425.786 167.019 426.172 166.712C426.558 166.405 426.844 166.002 427.03 165.502C427.215 165.002 427.308 164.46 427.308 163.877C427.308 163.293 427.215 162.75 427.03 162.246C426.844 161.742 426.558 161.335 426.172 161.024C425.786 160.714 425.293 160.558 424.695 160.558C424.096 160.558 423.604 160.714 423.217 161.024C422.831 161.335 422.545 161.742 422.359 162.246C422.174 162.75 422.081 163.293 422.081 163.877C422.081 164.46 422.174 165.002 422.359 165.502C422.545 166.002 422.831 166.405 423.217 166.712C423.604 167.019 424.096 167.172 424.695 167.172ZM432.037 162.945V168.195H430.696V159.468H431.991V160.831H432.105C432.31 160.388 432.62 160.032 433.037 159.763C433.454 159.49 433.991 159.354 434.651 159.354C435.241 159.354 435.759 159.475 436.202 159.718C436.645 159.956 436.99 160.32 437.236 160.808C437.482 161.293 437.605 161.907 437.605 162.649V168.195H436.264V162.74C436.264 162.055 436.086 161.521 435.73 161.138C435.374 160.752 434.885 160.558 434.264 160.558C433.836 160.558 433.454 160.651 433.116 160.837C432.783 161.022 432.52 161.293 432.327 161.649C432.134 162.005 432.037 162.437 432.037 162.945ZM443.851 159.468V160.604H439.328V159.468H443.851ZM440.646 157.377H441.987V165.695C441.987 166.074 442.042 166.358 442.152 166.547C442.266 166.733 442.41 166.858 442.584 166.922C442.762 166.983 442.949 167.013 443.146 167.013C443.294 167.013 443.415 167.005 443.51 166.99C443.605 166.971 443.68 166.956 443.737 166.945L444.01 168.149C443.919 168.183 443.792 168.218 443.629 168.252C443.466 168.29 443.26 168.308 443.01 168.308C442.631 168.308 442.26 168.227 441.896 168.064C441.536 167.901 441.237 167.653 440.999 167.32C440.764 166.986 440.646 166.566 440.646 166.058V157.377Z" fill="white"/>
<path d="M150.442 118.037C137.738 118.037 127.44 107.739 127.44 95.034C127.44 82.3296 137.738 72.0312 150.442 72.0312H201.45C214.154 72.0312 224.452 82.3296 224.452 95.034C224.452 107.739 214.154 118.037 201.45 118.037H150.442Z" fill="url(#paint2_linear_519_10065)"/>
<path d="M201.45 117.075H150.442C138.316 117.075 128.403 107.257 128.403 95.0342C128.403 82.9072 138.219 72.9939 150.442 72.9939H201.45C213.577 72.9939 223.49 82.811 223.49 95.0342C223.394 107.257 213.577 117.075 201.45 117.075Z" fill="#0E091B"/>
<path d="M169.636 89.5585V101.195H168.273L161.932 92.0585H161.818V101.195H160.409V89.5585H161.773L168.136 98.7176H168.25V89.5585H169.636ZM172.456 101.195V89.5585H179.433V90.8085H173.865V94.7403H178.911V95.9903H173.865V101.195H172.456ZM181.21 90.8085V89.5585H189.938V90.8085H186.278V101.195H184.869V90.8085H181.21Z" fill="white"/>
<path d="M674.572 182.792C663.697 182.792 654.746 173.938 654.746 162.966C654.746 151.994 663.601 143.139 674.572 143.139H726.543C737.418 143.139 746.369 151.994 746.369 162.966C746.369 173.938 737.514 182.792 726.543 182.792H674.572Z" fill="url(#paint3_linear_519_10065)"/>
<path d="M726.504 181.791H674.533C664.139 181.791 655.67 173.322 655.67 162.927C655.67 152.532 664.139 144.063 674.533 144.063H726.504C736.898 144.063 745.367 152.532 745.367 162.927C745.367 173.322 736.898 181.791 726.504 181.791Z" fill="#0E091B"/>
<path d="M676.145 168.195V158.74H679.339C680.081 158.74 680.688 158.874 681.158 159.142C681.632 159.407 681.983 159.765 682.211 160.218C682.439 160.67 682.553 161.175 682.553 161.732C682.553 162.289 682.439 162.795 682.211 163.251C681.986 163.706 681.638 164.069 681.168 164.34C680.697 164.608 680.094 164.742 679.358 164.742H677.068V163.726H679.321C679.829 163.726 680.237 163.638 680.544 163.463C680.852 163.288 681.075 163.051 681.214 162.752C681.355 162.45 681.426 162.11 681.426 161.732C681.426 161.353 681.355 161.015 681.214 160.716C681.075 160.418 680.851 160.184 680.54 160.014C680.229 159.842 679.817 159.756 679.303 159.756H677.29V168.195H676.145ZM684.249 168.195V161.104H685.302V162.175H685.376C685.505 161.824 685.739 161.539 686.077 161.321C686.416 161.102 686.797 160.993 687.222 160.993C687.302 160.993 687.402 160.995 687.522 160.998C687.642 161.001 687.733 161.005 687.795 161.012V162.12C687.758 162.11 687.673 162.096 687.541 162.078C687.411 162.056 687.274 162.046 687.13 162.046C686.785 162.046 686.477 162.118 686.206 162.263C685.939 162.404 685.726 162.601 685.569 162.854C685.416 163.103 685.339 163.388 685.339 163.708V168.195H684.249ZM691.751 168.343C691.111 168.343 690.549 168.19 690.066 167.886C689.586 167.581 689.21 167.155 688.939 166.607C688.672 166.059 688.538 165.419 688.538 164.686C688.538 163.948 688.672 163.303 688.939 162.752C689.21 162.201 689.586 161.773 690.066 161.469C690.549 161.164 691.111 161.012 691.751 161.012C692.391 161.012 692.951 161.164 693.431 161.469C693.914 161.773 694.29 162.201 694.558 162.752C694.829 163.303 694.964 163.948 694.964 164.686C694.964 165.419 694.829 166.059 694.558 166.607C694.29 167.155 693.914 167.581 693.431 167.886C692.951 168.19 692.391 168.343 691.751 168.343ZM691.751 167.364C692.237 167.364 692.637 167.239 692.951 166.99C693.265 166.741 693.497 166.413 693.648 166.007C693.799 165.6 693.874 165.16 693.874 164.686C693.874 164.212 693.799 163.771 693.648 163.361C693.497 162.952 693.265 162.621 692.951 162.369C692.637 162.116 692.237 161.99 691.751 161.99C691.265 161.99 690.865 162.116 690.551 162.369C690.237 162.621 690.004 162.952 689.854 163.361C689.703 163.771 689.627 164.212 689.627 164.686C689.627 165.16 689.703 165.6 689.854 166.007C690.004 166.413 690.237 166.741 690.551 166.99C690.865 167.239 691.265 167.364 691.751 167.364ZM702.171 161.104L699.549 168.195H698.441L695.819 161.104H697.001L698.958 166.754H699.032L700.99 161.104H702.171ZM703.609 168.195V161.104H704.699V168.195H703.609ZM704.163 159.922C703.951 159.922 703.768 159.85 703.614 159.705C703.463 159.56 703.388 159.387 703.388 159.183C703.388 158.98 703.463 158.806 703.614 158.662C703.768 158.517 703.951 158.445 704.163 158.445C704.376 158.445 704.557 158.517 704.708 158.662C704.862 158.806 704.939 158.98 704.939 159.183C704.939 159.387 704.862 159.56 704.708 159.705C704.557 159.85 704.376 159.922 704.163 159.922ZM709.372 168.343C708.781 168.343 708.259 168.193 707.807 167.895C707.355 167.593 707.001 167.168 706.745 166.621C706.49 166.07 706.362 165.419 706.362 164.668C706.362 163.923 706.49 163.277 706.745 162.729C707.001 162.181 707.356 161.758 707.812 161.459C708.267 161.161 708.793 161.012 709.39 161.012C709.852 161.012 710.217 161.089 710.485 161.242C710.755 161.393 710.962 161.566 711.103 161.759C711.248 161.95 711.36 162.107 711.44 162.23H711.532V158.74H712.622V168.195H711.569V167.105H711.44C711.36 167.235 711.246 167.398 711.099 167.595C710.951 167.789 710.74 167.962 710.466 168.116C710.192 168.267 709.827 168.343 709.372 168.343ZM709.52 167.364C709.957 167.364 710.326 167.25 710.628 167.022C710.929 166.791 711.159 166.473 711.316 166.067C711.472 165.657 711.551 165.185 711.551 164.649C711.551 164.12 711.474 163.657 711.32 163.26C711.166 162.86 710.939 162.549 710.637 162.327C710.335 162.103 709.963 161.99 709.52 161.99C709.058 161.99 708.673 162.109 708.366 162.346C708.061 162.58 707.832 162.898 707.678 163.301C707.527 163.701 707.452 164.151 707.452 164.649C707.452 165.154 707.528 165.613 707.682 166.025C707.839 166.434 708.07 166.761 708.375 167.004C708.683 167.244 709.064 167.364 709.52 167.364ZM717.742 168.343C717.058 168.343 716.469 168.192 715.974 167.89C715.481 167.585 715.101 167.161 714.833 166.616C714.569 166.068 714.436 165.431 714.436 164.705C714.436 163.978 714.569 163.338 714.833 162.784C715.101 162.227 715.473 161.793 715.95 161.482C716.431 161.169 716.991 161.012 717.631 161.012C718 161.012 718.365 161.073 718.725 161.196C719.085 161.319 719.413 161.519 719.708 161.796C720.004 162.07 720.239 162.433 720.415 162.886C720.59 163.338 720.678 163.895 720.678 164.557V165.019H715.212V164.077H719.57C719.57 163.677 719.49 163.32 719.33 163.006C719.173 162.692 718.948 162.444 718.656 162.263C718.366 162.081 718.025 161.99 717.631 161.99C717.197 161.99 716.821 162.098 716.504 162.313C716.191 162.526 715.949 162.803 715.78 163.144C715.61 163.486 715.526 163.852 715.526 164.243V164.871C715.526 165.406 715.618 165.86 715.803 166.233C715.99 166.602 716.251 166.884 716.583 167.078C716.915 167.268 717.302 167.364 717.742 167.364C718.028 167.364 718.286 167.324 718.517 167.244C718.751 167.161 718.953 167.038 719.122 166.875C719.291 166.708 719.422 166.502 719.514 166.256L720.567 166.551C720.456 166.908 720.27 167.222 720.008 167.493C719.747 167.761 719.424 167.97 719.039 168.121C718.654 168.269 718.222 168.343 717.742 168.343ZM722.335 168.195V161.104H723.388V162.175H723.461C723.591 161.824 723.825 161.539 724.163 161.321C724.502 161.102 724.883 160.993 725.308 160.993C725.388 160.993 725.488 160.995 725.608 160.998C725.728 161.001 725.819 161.005 725.881 161.012V162.12C725.844 162.11 725.759 162.096 725.627 162.078C725.497 162.056 725.36 162.046 725.216 162.046C724.871 162.046 724.563 162.118 724.292 162.263C724.025 162.404 723.812 162.601 723.655 162.854C723.501 163.103 723.425 163.388 723.425 163.708V168.195H722.335Z" fill="white"/>
<path d="M820.888 118.037C808.184 118.037 797.886 107.739 797.886 95.034C797.886 82.3296 808.184 72.0312 820.888 72.0312H899.998C912.702 72.0312 923 82.3296 923 95.034C923 107.739 912.702 118.037 899.998 118.037H820.888Z" fill="url(#paint4_linear_519_10065)"/>
<path d="M899.959 117.035H820.849C808.722 117.035 798.809 107.218 798.809 94.9952C798.809 82.8682 808.626 72.9548 820.849 72.9548H899.959C912.086 72.9548 921.999 82.7719 921.999 94.9952C921.902 107.218 912.086 117.035 899.959 117.035Z" fill="#0E091B"/>
<path d="M820.409 100.195V88.5585H824.477C825.288 88.5585 825.956 88.6986 826.483 88.9789C827.009 89.2554 827.402 89.6285 827.659 90.0982C827.917 90.5641 828.045 91.0812 828.045 91.6494C828.045 92.1494 827.956 92.5622 827.778 92.888C827.604 93.2138 827.373 93.4713 827.085 93.6607C826.801 93.8501 826.492 93.9903 826.159 94.0812V94.1948C826.515 94.2176 826.873 94.3426 827.233 94.5698C827.593 94.7971 827.894 95.1229 828.136 95.5471C828.379 95.9713 828.5 96.4903 828.5 97.1039C828.5 97.6872 828.367 98.2119 828.102 98.6778C827.837 99.1437 827.419 99.513 826.847 99.7857C826.275 100.058 825.53 100.195 824.614 100.195H820.409ZM821.818 98.9448H824.614C825.534 98.9448 826.188 98.7668 826.574 98.4107C826.964 98.0509 827.159 97.6153 827.159 97.1039C827.159 96.71 827.059 96.3463 826.858 96.013C826.657 95.6759 826.371 95.4069 826 95.2062C825.629 95.0016 825.189 94.8994 824.682 94.8994H821.818V98.9448ZM821.818 93.6721H824.432C824.856 93.6721 825.239 93.5888 825.58 93.4221C825.924 93.2554 826.197 93.0206 826.398 92.7176C826.602 92.4145 826.705 92.0585 826.705 91.6494C826.705 91.138 826.527 90.7043 826.17 90.3482C825.814 89.9884 825.25 89.8085 824.477 89.8085H821.818V93.6721ZM831.974 88.5585V100.195H830.634V88.5585H831.974ZM837.976 100.377C837.188 100.377 836.497 100.189 835.902 99.8141C835.311 99.4391 834.849 98.9145 834.516 98.2403C834.186 97.566 834.021 96.7782 834.021 95.8766C834.021 94.9676 834.186 94.174 834.516 93.496C834.849 92.8179 835.311 92.2914 835.902 91.9164C836.497 91.5414 837.188 91.3539 837.976 91.3539C838.764 91.3539 839.453 91.5414 840.044 91.9164C840.639 92.2914 841.101 92.8179 841.43 93.496C841.764 94.174 841.93 94.9676 841.93 95.8766C841.93 96.7782 841.764 97.566 841.43 98.2403C841.101 98.9145 840.639 99.4391 840.044 99.8141C839.453 100.189 838.764 100.377 837.976 100.377ZM837.976 99.1721C838.574 99.1721 839.067 99.0187 839.453 98.7119C839.839 98.4051 840.125 98.0016 840.311 97.5016C840.497 97.0016 840.589 96.46 840.589 95.8766C840.589 95.2933 840.497 94.7497 840.311 94.246C840.125 93.7422 839.839 93.335 839.453 93.0244C839.067 92.7138 838.574 92.5585 837.976 92.5585C837.377 92.5585 836.885 92.7138 836.499 93.0244C836.112 93.335 835.826 93.7422 835.641 94.246C835.455 94.7497 835.362 95.2933 835.362 95.8766C835.362 96.46 835.455 97.0016 835.641 97.5016C835.826 98.0016 836.112 98.4051 836.499 98.7119C836.885 99.0187 837.377 99.1721 837.976 99.1721ZM847.523 100.377C846.705 100.377 846 100.183 845.409 99.7971C844.818 99.4107 844.364 98.8785 844.045 98.2005C843.727 97.5225 843.568 96.7479 843.568 95.8766C843.568 94.9903 843.731 94.2081 844.057 93.5301C844.386 92.8482 844.845 92.316 845.432 91.9335C846.023 91.5471 846.712 91.3539 847.5 91.3539C848.114 91.3539 848.667 91.4676 849.159 91.6948C849.652 91.9221 850.055 92.2403 850.369 92.6494C850.684 93.0585 850.879 93.5357 850.955 94.0812H849.614C849.511 93.6835 849.284 93.3312 848.932 93.0244C848.583 92.7138 848.114 92.5585 847.523 92.5585C847 92.5585 846.542 92.6948 846.148 92.9676C845.758 93.2365 845.453 93.6172 845.233 94.1096C845.017 94.5982 844.909 95.1721 844.909 95.8312C844.909 96.5054 845.015 97.0926 845.227 97.5926C845.443 98.0926 845.746 98.4808 846.136 98.7573C846.53 99.0338 846.992 99.1721 847.523 99.1721C847.871 99.1721 848.188 99.1115 848.472 98.9903C848.756 98.8691 848.996 98.6948 849.193 98.4676C849.39 98.2403 849.53 97.9676 849.614 97.6494H850.955C850.879 98.1645 850.691 98.6285 850.392 99.0414C850.097 99.4505 849.705 99.7763 849.216 100.019C848.731 100.257 848.167 100.377 847.523 100.377ZM854.165 97.013L854.142 95.3539H854.415L858.233 91.4676H859.892L855.824 95.5812H855.71L854.165 97.013ZM852.915 100.195V88.5585H854.256V100.195H852.915ZM858.46 100.195L855.051 95.8766L856.006 94.9448L860.165 100.195H858.46ZM864.804 100.377C863.986 100.377 863.281 100.183 862.69 99.7971C862.099 99.4107 861.645 98.8785 861.327 98.2005C861.009 97.5225 860.849 96.7479 860.849 95.8766C860.849 94.9903 861.012 94.2081 861.338 93.5301C861.668 92.8482 862.126 92.316 862.713 91.9335C863.304 91.5471 863.993 91.3539 864.781 91.3539C865.395 91.3539 865.948 91.4676 866.44 91.6948C866.933 91.9221 867.336 92.2403 867.651 92.6494C867.965 93.0585 868.16 93.5357 868.236 94.0812H866.895C866.793 93.6835 866.565 93.3312 866.213 93.0244C865.865 92.7138 865.395 92.5585 864.804 92.5585C864.281 92.5585 863.823 92.6948 863.429 92.9676C863.039 93.2365 862.734 93.6172 862.514 94.1096C862.298 94.5982 862.19 95.1721 862.19 95.8312C862.19 96.5054 862.296 97.0926 862.509 97.5926C862.724 98.0926 863.027 98.4808 863.418 98.7573C863.812 99.0338 864.274 99.1721 864.804 99.1721C865.152 99.1721 865.469 99.1115 865.753 98.9903C866.037 98.8691 866.277 98.6948 866.474 98.4676C866.671 98.2403 866.812 97.9676 866.895 97.6494H868.236C868.16 98.1645 867.973 98.6285 867.673 99.0414C867.378 99.4505 866.986 99.7763 866.497 100.019C866.012 100.257 865.448 100.377 864.804 100.377ZM871.537 94.9448V100.195H870.196V88.5585H871.537V92.8312H871.651C871.855 92.3804 872.162 92.0225 872.571 91.7573C872.984 91.4884 873.533 91.3539 874.219 91.3539C874.813 91.3539 875.334 91.4732 875.781 91.7119C876.228 91.9467 876.575 92.3085 876.821 92.7971C877.071 93.2819 877.196 93.8994 877.196 94.6494V100.195H875.855V94.7403C875.855 94.0471 875.675 93.5111 875.315 93.1323C874.959 92.7497 874.465 92.5585 873.832 92.5585C873.393 92.5585 872.999 92.6513 872.651 92.8369C872.306 93.0225 872.033 93.2933 871.832 93.6494C871.635 94.0054 871.537 94.4372 871.537 94.9448ZM882.217 100.399C881.664 100.399 881.162 100.295 880.712 100.087C880.261 99.8747 879.903 99.5698 879.638 99.1721C879.373 98.7706 879.24 98.2857 879.24 97.7176C879.24 97.2176 879.339 96.8122 879.536 96.5016C879.732 96.1872 879.996 95.941 880.325 95.763C880.655 95.585 881.018 95.4524 881.416 95.3653C881.818 95.2744 882.221 95.2024 882.626 95.1494C883.157 95.0812 883.587 95.0301 883.916 94.996C884.25 94.9581 884.492 94.8956 884.643 94.8085C884.799 94.7213 884.876 94.5698 884.876 94.3539V94.3085C884.876 93.7479 884.723 93.3122 884.416 93.0016C884.113 92.691 883.653 92.5357 883.036 92.5357C882.395 92.5357 881.893 92.6759 881.53 92.9562C881.166 93.2365 880.911 93.5357 880.763 93.8539L879.49 93.3994C879.717 92.8691 880.02 92.4562 880.399 92.1607C880.782 91.8615 881.198 91.6532 881.649 91.5357C882.104 91.4145 882.551 91.3539 882.99 91.3539C883.27 91.3539 883.592 91.388 883.956 91.4562C884.323 91.5206 884.678 91.6551 885.018 91.8596C885.363 92.0641 885.649 92.3729 885.876 92.7857C886.104 93.1986 886.217 93.7516 886.217 94.4448V100.195H884.876V99.013H884.808C884.717 99.2024 884.566 99.4051 884.354 99.621C884.142 99.8369 883.859 100.021 883.507 100.172C883.155 100.324 882.725 100.399 882.217 100.399ZM882.422 99.1948C882.952 99.1948 883.399 99.0907 883.763 98.8823C884.13 98.674 884.407 98.4051 884.592 98.0755C884.782 97.746 884.876 97.3994 884.876 97.0357V95.8085C884.82 95.8766 884.695 95.9391 884.501 95.996C884.312 96.049 884.092 96.0963 883.842 96.138C883.596 96.1759 883.356 96.21 883.121 96.2403C882.89 96.2668 882.702 96.2895 882.558 96.3085C882.21 96.3539 881.884 96.4278 881.581 96.5301C881.282 96.6285 881.039 96.7782 880.854 96.9789C880.672 97.1759 880.581 97.4448 880.581 97.7857C880.581 98.2516 880.753 98.6039 881.098 98.8426C881.446 99.0774 881.888 99.1948 882.422 99.1948ZM888.665 100.195V91.4676H890.006V100.195H888.665ZM889.347 90.013C889.085 90.013 888.86 89.924 888.67 89.746C888.485 89.5679 888.392 89.3539 888.392 89.1039C888.392 88.8539 888.485 88.6399 888.67 88.4619C888.86 88.2838 889.085 88.1948 889.347 88.1948C889.608 88.1948 889.831 88.2838 890.017 88.4619C890.206 88.6399 890.301 88.8539 890.301 89.1039C890.301 89.3539 890.206 89.5679 890.017 89.746C889.831 89.924 889.608 90.013 889.347 90.013ZM893.803 94.9448V100.195H892.462V91.4676H893.757V92.8312H893.871C894.075 92.388 894.386 92.0319 894.803 91.763C895.219 91.4903 895.757 91.3539 896.416 91.3539C897.007 91.3539 897.524 91.4751 897.967 91.7176C898.411 91.9562 898.755 92.3198 899.001 92.8085C899.248 93.2933 899.371 93.9069 899.371 94.6494V100.195H898.03V94.7403C898.03 94.0547 897.852 93.5206 897.496 93.138C897.14 92.7516 896.651 92.5585 896.03 92.5585C895.602 92.5585 895.219 92.6513 894.882 92.8369C894.549 93.0225 894.286 93.2933 894.092 93.6494C893.899 94.0054 893.803 94.4372 893.803 94.9448Z" fill="white"/>
<path d="M746.171 163.456H748.873C759.366 163.456 767.873 154.949 767.873 144.456V113.195C767.873 102.701 776.379 94.1948 786.873 94.1948H797.886" stroke="#7E8FFF" stroke-width="1.5"/>
<path d="M348.151 163.456H276.376C267.093 163.456 259.497 154.713 259.497 144.027V111.195C259.497 101.806 251.886 94.1948 242.497 94.1948H224.405" stroke="#7E8FFF" stroke-width="1.5" stroke-miterlimit="10"/>
<path d="M465.433 163.456L654.285 163.456" stroke="#7E8FFF" stroke-width="1.5" stroke-miterlimit="10"/>
<path d="M57.2556 46.1738V81.0743C57.2556 88.2905 61.9871 94.1947 67.7701 94.1947H127.44" stroke="#7E8FFF" stroke-width="1.5" stroke-miterlimit="10"/>
<path d="M57.2556 47.0975C58.2757 47.0975 59.1026 46.2706 59.1026 45.2505C59.1026 44.2305 58.2757 43.4036 57.2556 43.4036C56.2356 43.4036 55.4087 44.2305 55.4087 45.2505C55.4087 46.2706 56.2356 47.0975 57.2556 47.0975Z" fill="#7E8FFF"/>
<path d="M127.44 96.0418C128.46 96.0418 129.287 95.2149 129.287 94.1949C129.287 93.1748 128.46 92.3479 127.44 92.3479C126.42 92.3479 125.593 93.1748 125.593 94.1949C125.593 95.2149 126.42 96.0418 127.44 96.0418Z" fill="#7E8FFF"/>
<path d="M224.405 96.0418C225.425 96.0418 226.252 95.2149 226.252 94.1949C226.252 93.1748 225.425 92.3479 224.405 92.3479C223.385 92.3479 222.558 93.1748 222.558 94.1949C222.558 95.2149 223.385 96.0418 224.405 96.0418Z" fill="#7E8FFF"/>
<path d="M348.152 165.303C349.172 165.303 349.999 164.476 349.999 163.456C349.999 162.436 349.172 161.609 348.152 161.609C347.132 161.609 346.305 162.436 346.305 163.456C346.305 164.476 347.132 165.303 348.152 165.303Z" fill="#7E8FFF"/>
<path d="M465.433 165.303C466.453 165.303 467.28 164.476 467.28 163.456C467.28 162.436 466.453 161.609 465.433 161.609C464.413 161.609 463.586 162.436 463.586 163.456C463.586 164.476 464.413 165.303 465.433 165.303Z" fill="#7E8FFF"/>
<path d="M654.746 165.303C655.767 165.303 656.593 164.476 656.593 163.456C656.593 162.436 655.767 161.609 654.746 161.609C653.726 161.609 652.9 162.436 652.9 163.456C652.9 164.476 653.726 165.303 654.746 165.303Z" fill="#7E8FFF"/>
<path d="M746.171 165.303C747.191 165.303 748.018 164.476 748.018 163.456C748.018 162.436 747.191 161.609 746.171 161.609C745.151 161.609 744.324 162.436 744.324 163.456C744.324 164.476 745.151 165.303 746.171 165.303Z" fill="#7E8FFF"/>
<path d="M797.886 96.0418C798.906 96.0418 799.733 95.2149 799.733 94.1949C799.733 93.1748 798.906 92.3479 797.886 92.3479C796.866 92.3479 796.039 93.1748 796.039 94.1949C796.039 95.2149 796.866 96.0418 797.886 96.0418Z" fill="#7E8FFF"/>
<defs>
<linearGradient id="paint0_linear_519_10065" x1="-0.0153821" y1="23.1205" x2="106.135" y2="23.1205" gradientUnits="userSpaceOnUse">
<stop stop-color="#6367CA"/>
<stop offset="1" stop-color="#85CAF4"/>
</linearGradient>
<linearGradient id="paint1_linear_519_10065" x1="348.135" y1="163.492" x2="465.362" y2="163.492" gradientUnits="userSpaceOnUse">
<stop stop-color="#6367CA"/>
<stop offset="1" stop-color="#85CAF4"/>
</linearGradient>
<linearGradient id="paint2_linear_519_10065" x1="127.426" y1="95.0674" x2="224.393" y2="95.0674" gradientUnits="userSpaceOnUse">
<stop stop-color="#6367CA"/>
<stop offset="1" stop-color="#85CAF4"/>
</linearGradient>
<linearGradient id="paint3_linear_519_10065" x1="654.778" y1="162.984" x2="746.324" y2="162.984" gradientUnits="userSpaceOnUse">
<stop stop-color="#6367CA"/>
<stop offset="1" stop-color="#85CAF4"/>
</linearGradient>
<linearGradient id="paint4_linear_519_10065" x1="797.881" y1="95.0534" x2="922.928" y2="95.0534" gradientUnits="userSpaceOnUse">
<stop stop-color="#6367CA"/>
<stop offset="1" stop-color="#85CAF4"/>
</linearGradient>
</defs>
</svg>
