<svg width="38" height="53" viewBox="0 0 38 53" fill="none" xmlns="http://www.w3.org/2000/svg">
<path d="M37.2797 44.2095H23.4934V49.1868H37.2797V44.2095Z" fill="#027ACD"/>
<path d="M23.4935 44.2095H9.68896V49.1868H23.4935V44.2095Z" fill="#3EAFF5"/>
<path d="M9.69805 44.2095H6.93896V49.1868H9.69805V44.2095Z" fill="#D4D4D4"/>
<path d="M8.66223 6.31564V44.2095H5.33484V7.6081L0 2.27326L2.2641 0L8.66223 6.31564Z" fill="#D4D4D4"/>
<path d="M33.604 28.0493H23.4202V44.2096H33.604V28.0493Z" fill="#FF9500"/>
<path d="M23.4292 28.0493H13.2454V44.2096H23.4292V28.0493Z" fill="#FFC222"/>
<path d="M35.923 15.0332H26.8025V28.0495H35.923V15.0332Z" fill="#FFC222"/>
<path d="M26.8024 15.0332H17.6819V28.0495H26.8024V15.0332Z" fill="#FEDF77"/>
<path d="M4.65661 46.6937C4.65661 45.4379 5.67408 44.4113 6.93904 44.4113V40.3872C3.45581 40.3872 0.632568 43.2105 0.632568 46.6937C0.632568 50.1769 3.45581 53.0001 6.93904 53.0001V48.9761C5.67408 48.9761 4.65661 47.9495 4.65661 46.6937Z" fill="#9D9D9D"/>
<path d="M6.93896 40.3872V44.4113C8.19476 44.4113 9.22139 45.4287 9.22139 46.6937C9.22139 47.9495 8.20393 48.9761 6.93896 48.9761V53.0001C10.4222 53.0001 13.2454 50.1769 13.2454 46.6937C13.2454 43.2105 10.4222 40.3872 6.93896 40.3872Z" fill="#6F6F6F"/>
<path d="M25.1433 28.0493H21.8342V34.9149H25.1433V28.0493Z" fill="#F17A00"/>
<path d="M28.3426 15.0332H25.3818V19.6347H28.3426V15.0332Z" fill="#FF9500"/>
</svg>
