<svg width="51" height="44" viewBox="0 0 51 44" fill="none" xmlns="http://www.w3.org/2000/svg">
<path d="M13.5069 11.5074C13.5069 8.561 11.1173 6.17139 8.1709 6.17139V16.8512C11.1173 16.8434 13.5069 14.4538 13.5069 11.5074Z" fill="#FEDF77"/>
<path d="M2.82715 11.5073C2.82715 14.4537 5.21676 16.8433 8.16317 16.8433V6.16357C5.21676 6.16357 2.82715 8.55318 2.82715 11.5073Z" fill="#FFC222"/>
<path d="M47.6654 11.5074C47.6654 8.561 45.2758 6.17139 42.3293 6.17139V16.8512C45.2758 16.8434 47.6654 14.4538 47.6654 11.5074Z" fill="#FEDF77"/>
<path d="M36.9934 11.5073C36.9934 14.4537 39.383 16.8433 42.3294 16.8433V6.16357C39.383 6.16357 36.9934 8.55318 36.9934 11.5073Z" fill="#FFC222"/>
<path d="M9.3309 20.0527H8.1709V40.1208H13.1667C14.6747 40.1208 15.8965 38.8989 15.8965 37.3909V26.6106C15.8888 22.9837 12.9501 20.0527 9.3309 20.0527Z" fill="#FEDF77"/>
<path d="M7.0032 20.0527C3.38399 20.0527 0.445312 22.9914 0.445312 26.6106V37.3909C0.445312 38.8989 1.66718 40.1208 3.17519 40.1208H8.17094V20.0527H7.0032Z" fill="#FFC222"/>
<path d="M43.4894 20.0527H42.3293V40.1208H47.3251C48.8331 40.1208 50.055 38.8989 50.055 37.3909V26.6106C50.055 22.9837 47.1163 20.0527 43.4894 20.0527Z" fill="#FEDF77"/>
<path d="M41.1692 20.0527C37.55 20.0527 34.6113 22.9914 34.6113 26.6106V37.3909C34.6113 38.8989 35.8332 40.1208 37.3412 40.1208H42.337V20.0527H41.1692Z" fill="#FFC222"/>
<path d="M16.8398 8.35203C16.8398 12.9611 20.5828 16.7041 25.1919 16.7041V0C20.5828 0 16.8398 3.73521 16.8398 8.35203Z" fill="#129AD6"/>
<path d="M33.5442 8.35203C33.5442 3.74295 29.8012 0 25.1921 0V16.7041C29.809 16.7041 33.5442 12.9611 33.5442 8.35203Z" fill="#09B4CC"/>
<path d="M26.3367 20.0527H25.1921V43.1987H34.9362C36.7999 43.1987 38.3157 41.683 38.3157 39.8192V32.0317C38.3157 25.412 32.9564 20.0527 26.3367 20.0527Z" fill="#09B4CC"/>
<path d="M24.0473 20.0527C17.4276 20.0527 12.0684 25.4197 12.0684 32.0317V39.8115C12.0684 41.6752 13.5841 43.191 15.4478 43.191H25.1919V20.0527H24.0473Z" fill="#129AD6"/>
</svg>
