<svg width="38" height="44" viewBox="0 0 38 44" fill="none" xmlns="http://www.w3.org/2000/svg">
<path d="M25.0479 27.6707C25.0479 27.6707 24.9556 27.7476 24.7789 27.8705C24.2564 28.2394 22.9885 29.0078 21.2826 29.3766C20.7139 29.4996 20.0992 29.5764 19.4384 29.5764C16.1495 29.5764 13.8289 27.6784 13.8289 27.6784C14.4974 27.6784 15.335 26.5949 15.335 25.7036V23.5135C15.335 23.5059 15.335 23.5059 15.335 23.5059L18.3165 24.3895L19.4384 24.72L23.5417 23.5059C23.5417 23.5059 23.5417 24.8045 23.5417 25.7036C23.5417 26.5642 24.3255 27.6093 24.9787 27.6784C25.0018 27.6707 25.0248 27.6707 25.0479 27.6707Z" fill="#FFF0DC"/>
<path d="M27.0457 10.7275V17.5435C26.9305 20.7401 25.2784 22.5229 23.5417 23.5064C21.5438 24.6437 19.4306 24.7282 19.4306 24.7282C19.4306 24.7282 18.8236 24.7052 17.963 24.5054C17.2099 24.3363 16.2647 24.0367 15.3426 23.5141C13.5983 22.5305 11.9385 20.7478 11.8232 17.5435V10.7352H27.0457V10.7275Z" fill="#FFF0DC"/>
<path d="M27.0456 10.7275V17.5435C26.9303 20.7401 25.2782 22.5229 23.5415 23.5064C23.5415 23.5064 23.5415 24.8051 23.5415 25.7041C23.5415 26.5648 24.3253 27.6098 24.9785 27.679C24.9247 27.7405 24.8555 27.8096 24.7787 27.8788C24.2562 28.3706 23.2111 29.0775 21.3515 29.4233C21.3515 29.4233 21.3285 29.4079 21.2824 29.3849C21.0365 29.2389 20.2143 28.6549 20.1297 27.2717C20.1067 26.9336 20.1682 24.7282 20.1682 24.7282C20.1682 24.7282 18.9079 24.8358 17.6631 24.6053L17.9628 24.5054L18.3239 24.3901L18.6006 24.2979C18.6006 24.2979 23.4109 22.9839 23.7874 17.5435V10.7352H27.0456V10.7275Z" fill="#FFE4C0"/>
<path d="M28.1751 7.89941H10.6704L12.1458 2.00559C12.4378 0.829899 13.4982 0 14.7123 0H24.1255C25.3396 0 26.4001 0.829899 26.6921 2.00559L28.1751 7.89941Z" fill="#FF9500"/>
<path d="M24.7791 7.89941H10.6785L12.1538 2.00559C12.4458 0.829899 13.5063 0 14.7204 0H20.7371C21.9513 0 23.0117 0.829899 23.3037 2.00559L24.7791 7.89941Z" fill="#FFC222"/>
<path d="M31.0647 8.98241C31.0647 7.98345 28.1754 7.89893 28.1754 7.89893H10.6783C10.6783 7.89893 7.78906 7.98345 7.78906 8.98241C7.78906 9.98136 11.7464 11.28 19.423 11.28C19.423 11.28 19.423 11.28 19.4307 11.28C19.4384 11.28 19.4307 11.28 19.4384 11.28C27.1073 11.28 31.0647 9.98136 31.0647 8.98241Z" fill="#FEDF77"/>
<path d="M13.022 17.5357H11.4007C10.4939 17.5357 9.76392 16.8057 9.76392 15.899V14.731C9.76392 13.8242 10.4939 13.0942 11.4007 13.0942C12.2997 13.0942 13.022 13.8242 13.022 14.7156V17.5357Z" fill="#FFF0DC"/>
<path d="M25.8777 17.5357H27.4991C28.4058 17.5357 29.1358 16.8057 29.1358 15.899V14.731C29.1358 13.8242 28.4058 13.0942 27.4991 13.0942C26.6 13.0942 25.8777 13.8242 25.8777 14.7156V17.5357Z" fill="#FFE4C0"/>
<path d="M10.6013 10.4814V13.34L13.0219 14.6847V10.9194L10.6013 10.4814Z" fill="#595959"/>
<path d="M28.2905 10.4814V13.34L25.8777 14.6847V10.9194L28.2905 10.4814Z" fill="#595959"/>
<path d="M37.8728 35.9468V42.2863C37.8728 43.2315 37.1121 43.9922 36.1669 43.9922H34.3995V37.4453C34.3995 34.6482 32.5399 32.2814 29.8428 31.5361L29.3894 31.4054L26.577 30.6063L21.7974 29.2462C23.7953 28.7006 25.0401 27.6709 25.0401 27.6709L26.577 28.1089L29.3894 28.9157L33.316 30.0376C36.0132 30.783 37.8728 33.1421 37.8728 35.9468Z" fill="#0E80AC"/>
<path d="M34.3996 37.4453V43.9922H2.64059C1.69543 43.9922 0.927002 43.2238 0.927002 42.2787V35.9392C0.927002 33.1421 2.79427 30.7677 5.49913 30.03L9.35662 28.9388L12.1691 28.1396L13.8289 27.6709C13.8289 27.6709 16.0112 29.5689 19.3999 29.5689C20.2759 29.5689 21.0828 29.4383 21.7974 29.2462L29.8428 31.5361C32.54 32.2814 34.3996 34.6482 34.3996 37.4453Z" fill="#3590BB"/>
<path d="M12.1689 28.147V34.5633H9.35645V28.9384L12.1689 28.147Z" fill="#D8EAFB"/>
<path d="M29.3896 28.9162V34.5641H26.5771V28.1094L29.3896 28.9162Z" fill="#D8EAFB"/>
<path d="M31.9789 44.0002H6.69775L7.09733 36.7386C7.16649 35.5168 8.17313 34.564 9.39492 34.564H29.2818C30.5036 34.564 31.5102 35.5168 31.5794 36.7386L31.9789 44.0002Z" fill="#E8F3FF"/>
<path d="M28.0755 39.6893H10.5861C10.2096 39.6893 9.90991 39.3897 9.90991 39.0131C9.90991 38.6366 10.2096 38.3369 10.5861 38.3369H28.0755C28.452 38.3369 28.7517 38.6366 28.7517 39.0131C28.7517 39.3897 28.4443 39.6893 28.0755 39.6893Z" fill="#FFC222"/>
</svg>
