<svg width="59" height="44" viewBox="0 0 59 44" fill="none" xmlns="http://www.w3.org/2000/svg">
<path d="M53.034 10.9912H5.40479V15.9715H53.034V10.9912Z" fill="#FFC222"/>
<path d="M56.8709 40.2842H1.7063V43.9999H56.8709V40.2842Z" fill="#3EAFF5"/>
<path d="M51.2062 40.2842H38.3787V43.9999H51.2062V40.2842Z" fill="#F4F4ED"/>
<path d="M51.2062 23.793H38.3787V40.293H51.2062V23.793Z" fill="#F4F4ED"/>
<path d="M38.3787 23.793H5.43066V40.293H38.3787V23.793Z" fill="#4192DD"/>
<path d="M53.0339 23.793H51.2063V40.293H53.0339V23.793Z" fill="#4192DD"/>
<path d="M54.8615 10.0732H53.0339V40.293H54.8615V10.0732Z" fill="#FFC222"/>
<path d="M5.43059 10.0732H3.60303V40.293H5.43059V10.0732Z" fill="#FFC222"/>
<path d="M49.3356 32.9224H40.2498V40.2932H49.3356V32.9224Z" fill="#BCBCBC"/>
<path d="M36.5511 35.6938H7.26685V36.6379H36.5511V35.6938Z" fill="#F5F5ED"/>
<path d="M35.6504 23.793H8.16772V35.6938H35.6504V23.793Z" fill="#BCBCBC"/>
<path d="M49.3356 23.793H40.2498V31.1638H49.3356V23.793Z" fill="#BCBCBC"/>
<path d="M57.5984 21.9917H52.1157V23.7933H57.5984V21.9917Z" fill="#D1D3D4"/>
<path d="M52.1157 21.9917H46.6331V23.7933H52.1157V21.9917Z" fill="#1A71A8"/>
<path d="M46.6331 21.9917H41.1504V23.7933H46.6331V21.9917Z" fill="#D0D3D4"/>
<path d="M41.1507 21.9917H35.668V23.7933H41.1507V21.9917Z" fill="#1A71A8"/>
<path d="M35.6677 21.9917H29.241V23.7933H35.6677V21.9917Z" fill="#D0D3D4"/>
<path d="M29.241 21.9917H22.8315V23.7933H29.241V21.9917Z" fill="#1A71A8"/>
<path d="M22.8314 21.9917H17.3054V23.7933H22.8314V21.9917Z" fill="#D0D3D4"/>
<path d="M17.2969 21.9917H11.8142V23.7933H17.2969V21.9917Z" fill="#1A71A8"/>
<path d="M11.8142 21.9917H6.33154V23.7933H11.8142V21.9917Z" fill="#D0D3D4"/>
<path d="M6.33142 21.9917H0.822754V23.7933H6.33142V21.9917Z" fill="#1A71A8"/>
<path d="M52.1244 13.7285H6.32275V14.6553H52.1244V13.7285Z" fill="#FDFCF3"/>
<path d="M57.6071 21.991L52.1157 14.6548H46.6331L52.1157 21.991H57.6071Z" fill="#E6E6E6"/>
<path d="M52.116 21.991H46.6333L42.0774 14.6548H46.6333L52.116 21.991Z" fill="#3EAFF5"/>
<path d="M46.633 21.991L42.0771 14.6548H37.4519L41.1503 21.991H46.633Z" fill="#E6E6E6"/>
<path d="M41.1503 21.991L37.4519 14.6548H32.896L35.6677 21.991H41.1503Z" fill="#3EAFF5"/>
<path d="M35.6677 21.991H29.241V14.6548H32.8961L35.6677 21.991Z" fill="#E6E6E6"/>
<path d="M29.241 21.991V14.6548H25.5339L22.8315 21.991H29.241Z" fill="#3EAFF5"/>
<path d="M22.8314 21.991L25.5338 14.6548H20.9432L17.3054 21.991H22.8314Z" fill="#E6E6E6"/>
<path d="M17.3055 21.991L20.9433 14.6548H16.3788L11.8142 21.991H17.3055Z" fill="#3EAFF5"/>
<path d="M11.8142 21.991L16.3788 14.6548H11.8142L6.33154 21.991H11.8142Z" fill="#E6E6E6"/>
<path d="M6.33142 21.991L11.8141 14.6548H6.32276L0.822754 21.991H6.33142Z" fill="#3EAFF5"/>
<path d="M54.8613 9.15527H3.60303V10.0734H54.8613V9.15527Z" fill="#DBD6D2"/>
<path d="M58.4646 5.62158H0V9.15544H58.4646V5.62158Z" fill="#FFC222"/>
<path d="M40.2498 0H18.2151V7.32757H40.2498V0Z" fill="#FFC222"/>
<path d="M53.0339 10.0732H5.43066V10.9914H53.0339V10.0732Z" fill="#E7E7E6"/>
<path d="M39.2968 0.926758H19.1763V6.43542H39.2968V0.926758Z" fill="#F4F4ED"/>
<path d="M37.4694 2.74609H20.9954V4.56499H37.4694V2.74609Z" fill="#F17A00"/>
</svg>
