<svg width="47" height="46" viewBox="0 0 47 46" fill="none" xmlns="http://www.w3.org/2000/svg">
<path d="M33.0513 23.5425H13.6252C12.4608 23.5425 11.5178 22.5995 11.5178 21.4351V2.10743C11.5178 0.943013 12.4608 0 13.6252 0H33.0513C34.2157 0 35.1587 0.943013 35.1587 2.10743V21.4351C35.1587 22.5995 34.2157 23.5425 33.0513 23.5425Z" fill="#FFC222"/>
<path d="M19.2176 20.6316H15.7572C15.1422 20.6316 14.6501 20.1313 14.6501 19.5245V17.7779C14.6501 17.1629 15.1504 16.6709 15.7572 16.6709H19.2176C19.8326 16.6709 20.3246 17.1711 20.3246 17.7779V19.5245C20.3328 20.1395 19.8326 20.6316 19.2176 20.6316Z" fill="white"/>
<path d="M23.3425 0H18.6274V7.81471C18.6274 8.57732 19.4557 9.04473 20.1117 8.65112L23.3425 6.70769L26.5734 8.65112C27.2294 9.04473 28.0576 8.56912 28.0576 7.81471V0H23.3425Z" fill="#F17A00"/>
<path d="M3.35058 34.8751H1.43995C0.865943 34.8751 0.406738 34.4159 0.406738 33.8419V22.3945C0.406738 21.8205 0.865943 21.3613 1.43995 21.3613H3.35058C3.92458 21.3613 4.38379 21.8205 4.38379 22.3945V33.8337C4.38379 34.4159 3.92458 34.8751 3.35058 34.8751Z" fill="#3EAFF5"/>
<path d="M45.3599 34.8751H43.4492C42.8752 34.8751 42.416 34.4159 42.416 33.8419V22.3945C42.416 21.8205 42.8752 21.3613 43.4492 21.3613H45.3599C45.9339 21.3613 46.3931 21.8205 46.3931 22.3945V33.8337C46.3931 34.4159 45.9257 34.8751 45.3599 34.8751Z" fill="#027ACD"/>
<path d="M42.4159 23.0586C42.4159 23.0586 33.0596 23.0586 32.3626 23.0586C31.6656 23.0586 26.7045 19.8359 24.9333 19.8359C23.1703 19.8359 22.2765 20.9922 21.5877 21.7302C20.8988 22.4682 17.955 25.5022 17.4876 26.068C17.0202 26.6338 16.7332 27.8967 17.7336 28.7249C18.7258 29.5531 19.718 29.3563 20.21 28.9873C20.6938 28.6183 24.0395 25.535 24.2855 25.2726C24.5069 25.043 25.0071 24.4936 25.7533 25.0922L37.4467 34.2271C37.4467 34.2271 38.7177 33.3415 42.4159 33.3415V23.0586Z" fill="#F6D0B3"/>
<path d="M37.4466 34.2268L25.7615 25.1001C25.0153 24.5097 24.5151 25.0509 24.2937 25.2805C24.0477 25.5429 20.702 28.6262 20.2182 28.9952C19.7344 29.3642 18.734 29.561 17.7418 28.7328C16.7496 27.9046 17.0284 26.6417 17.4958 26.0759C17.9632 25.5101 20.907 22.4679 21.5958 21.7381C21.9156 21.4019 22.2682 20.9837 22.7356 20.6147C22.3994 20.139 20.8988 19.5322 19.4966 20.016C18.0944 20.4999 14.1091 22.9517 13.0103 22.9517C11.9115 22.9517 4.38379 22.9517 4.38379 22.9517V33.3822C4.38379 33.3822 8.32804 33.2346 10.9439 35.0387C13.5515 36.8345 20.456 39.9177 24.3101 43.6078C24.3101 43.6078 25.6877 44.846 26.5241 45.5594C27.3605 46.2728 28.6315 46.0678 29.1645 45.3134C29.6893 44.559 29.9189 43.5914 29.1645 42.7796C29.1645 42.7796 29.9927 43.4274 31.0342 43.247C32.0756 43.0666 32.5758 42.0498 32.5758 41.2953C32.5758 40.5409 32.0264 39.9341 32.0264 39.9341C32.0264 39.9341 33.0432 40.6885 34.1174 40.2211C35.1916 39.7537 35.2736 38.9255 35.2736 38.3925C35.2736 37.8677 34.8062 37.0313 34.8062 37.0313C34.8062 37.0313 35.5196 37.7857 36.4708 37.5807C37.422 37.3757 38.0371 36.5639 38.0535 35.7521C38.0617 34.9403 37.4466 34.2268 37.4466 34.2268Z" fill="#C68771"/>
<path d="M11.0093 38.2126C10.14 37.5648 9.96784 36.343 10.6074 35.4737L12.3213 33.1777C12.9691 32.3085 14.1909 32.1363 15.0601 32.7759C15.9293 33.4237 16.1015 34.6455 15.4619 35.5147L13.7481 37.8108C13.1003 38.68 11.8785 38.8522 11.0093 38.2126Z" fill="#F6D0B3"/>
<path d="M16.9627 42.977C16.1263 42.2964 15.9951 41.0664 16.6675 40.23L18.4715 37.9996C19.1521 37.1632 20.3822 37.032 21.2186 37.7044C22.055 38.385 22.1862 39.615 21.5138 40.4514L19.7097 42.6818C19.0291 43.5264 17.7991 43.6577 16.9627 42.977Z" fill="#F6D0B3"/>
<path d="M20.0132 45.4209C19.1768 44.7403 19.0456 43.5103 19.718 42.6739L21.0711 41.001C21.7517 40.1646 22.9817 40.0334 23.8181 40.7058C24.6545 41.3864 24.7857 42.6165 24.1133 43.4529L22.7685 45.1339C22.0879 45.9703 20.8579 46.1015 20.0132 45.4209Z" fill="#E7BDA0"/>
<path d="M13.978 40.7623C13.1088 40.1145 12.9366 38.8927 13.5762 38.0235L15.8312 35.0058C16.479 34.1366 17.7009 33.9644 18.5701 34.604C19.4393 35.2518 19.6115 36.4737 18.9719 37.3429L16.7168 40.3605C16.069 41.2297 14.8472 41.4101 13.978 40.7623Z" fill="#E7BDA0"/>
</svg>
