<svg width="63" height="47" viewBox="0 0 63 47" fill="none" xmlns="http://www.w3.org/2000/svg">
<path d="M59.7598 42.1152H1.64858C0.907828 42.1152 0.306641 41.514 0.306641 40.7733V37.9498C0.306641 37.2091 0.907828 36.6079 1.64858 36.6079H59.7598C60.5005 36.6079 61.1017 37.2091 61.1017 37.9498V40.7733C61.1017 41.514 60.5005 42.1152 59.7598 42.1152Z" fill="#3EAFF5"/>
<path d="M9.63587 45.2183H5.2021C4.72974 45.2183 4.34326 44.8318 4.34326 44.3594V42.1157H10.5054V44.3594C10.4947 44.8318 10.1082 45.2183 9.63587 45.2183Z" fill="#027ACD"/>
<path d="M31.9979 36.597H7.22035C6.47961 36.597 5.87842 35.9958 5.87842 35.2551V19.6456C5.87842 18.9049 6.47961 18.3037 7.22035 18.3037H31.9979C32.7386 18.3037 33.3398 18.9049 33.3398 19.6456V35.2551C33.3398 35.9958 32.7386 36.597 31.9979 36.597Z" fill="#FFC222"/>
<path d="M54.1773 36.597H29.915V19.6456C29.915 18.9049 30.5162 18.3037 31.257 18.3037H54.1773C54.918 18.3037 55.5192 18.9049 55.5192 19.6456V35.2551C55.5192 35.9958 54.918 36.597 54.1773 36.597Z" fill="#FF9500"/>
<path d="M43.5063 18.304H17.9021V1.34194C17.9021 0.601188 18.5033 0 19.244 0H42.1643C42.9051 0 43.5063 0.601188 43.5063 1.34194V18.304Z" fill="#FEDF77"/>
<path d="M12.9745 31.8633H9.20631C8.77689 31.8633 8.43335 31.5198 8.43335 31.0903C8.43335 30.6609 8.77689 30.3174 9.20631 30.3174H12.9745C13.4039 30.3174 13.7474 30.6609 13.7474 31.0903C13.7474 31.5198 13.3932 31.8633 12.9745 31.8633Z" fill="#FF9500"/>
<path d="M12.9745 34.9976H9.20631C8.77689 34.9976 8.43335 34.654 8.43335 34.2246C8.43335 33.7952 8.77689 33.4517 9.20631 33.4517H12.9745C13.4039 33.4517 13.7474 33.7952 13.7474 34.2246C13.7474 34.654 13.3932 34.9976 12.9745 34.9976Z" fill="#FF9500"/>
<path d="M25.0306 13.4302H21.2517C20.8223 13.4302 20.4788 13.0867 20.4788 12.6572C20.4788 12.2278 20.8223 11.8843 21.2517 11.8843H25.0199C25.4493 11.8843 25.7928 12.2278 25.7928 12.6572C25.7928 13.0867 25.4493 13.4302 25.0306 13.4302Z" fill="#FFC222"/>
<path d="M25.0306 16.5645H21.2517C20.8223 16.5645 20.4788 16.2209 20.4788 15.7915C20.4788 15.3621 20.8223 15.0186 21.2517 15.0186H25.0199C25.4493 15.0186 25.7928 15.3621 25.7928 15.7915C25.8036 16.2209 25.4493 16.5645 25.0306 16.5645Z" fill="#FFC222"/>
<path d="M52.7282 47.0003C58.0109 47.0003 62.2935 42.7177 62.2935 37.435C62.2935 32.1522 58.0109 27.8696 52.7282 27.8696C47.4454 27.8696 43.1628 32.1522 43.1628 37.435C43.1628 42.7177 47.4454 47.0003 52.7282 47.0003Z" fill="#6B92D6"/>
<path d="M18.6321 18.3037H14.4131V26.3446C14.4131 26.9565 15.1216 27.2893 15.594 26.9028L18.6321 24.4122L21.6703 26.9028C22.1426 27.2893 22.8512 26.9565 22.8512 26.3446V18.3037H18.6321Z" fill="#638AF7"/>
<path d="M42.7227 18.3037H38.5037V26.3446C38.5037 26.9565 39.2122 27.2893 39.6846 26.9028L42.7227 24.4122L45.7609 26.9028C46.2332 27.2893 46.9418 26.9565 46.9418 26.3446V18.3037H42.7227Z" fill="#638AF7"/>
<path d="M30.6988 0H26.4797V8.04088C26.4797 8.65281 27.1883 8.98561 27.6606 8.59913L30.6988 6.1085L33.7369 8.59913C34.2093 8.98561 34.9178 8.65281 34.9178 8.04088V0H30.6988Z" fill="#638AF7"/>
<path d="M52.4704 34.2575C52.4704 35.7927 51.2251 37.038 49.6899 37.038C48.1547 37.038 46.9094 35.7927 46.9094 34.2575C46.9094 32.7224 48.1547 31.4771 49.6899 31.4771C51.2251 31.4878 52.4704 32.7224 52.4704 34.2575ZM49.6899 32.9908C48.9814 32.9908 48.4124 33.5597 48.4124 34.2683C48.4124 34.9768 48.9814 35.5458 49.6899 35.5458C50.3985 35.5458 50.9674 34.9768 50.9674 34.2683C50.9674 33.5597 50.3985 32.9908 49.6899 32.9908Z" fill="#FDFEFD"/>
<path d="M58.5573 40.344C58.5573 41.8791 57.312 43.1245 55.7768 43.1245C54.2417 43.1245 52.9963 41.8791 52.9963 40.344C52.9963 38.8088 54.2417 37.5635 55.7768 37.5635C57.312 37.5635 58.5573 38.8088 58.5573 40.344ZM55.7768 39.0664C55.0683 39.0664 54.4993 39.6354 54.4993 40.344C54.4993 41.0525 55.0683 41.6215 55.7768 41.6215C56.4854 41.6215 57.0544 41.0525 57.0544 40.344C57.0544 39.6354 56.4854 39.0664 55.7768 39.0664Z" fill="#FDFEFD"/>
<path d="M48.9061 41.2671C48.6055 40.9665 48.6055 40.4619 48.9061 40.1613L55.4548 33.6127C55.7554 33.3121 56.2599 33.3121 56.5605 33.6127C56.8611 33.9132 56.8611 34.4178 56.5605 34.7184L50.0119 41.2671C49.7113 41.5677 49.2174 41.5677 48.9061 41.2671Z" fill="#FDFEFD"/>
<path d="M37.0326 31.8633H33.2644C32.835 31.8633 32.4915 31.5198 32.4915 31.0903C32.4915 30.6609 32.835 30.3174 33.2644 30.3174H37.0326C37.462 30.3174 37.8055 30.6609 37.8055 31.0903C37.8055 31.5198 37.462 31.8633 37.0326 31.8633Z" fill="#FEDF77"/>
<path d="M37.0326 34.9976H33.2644C32.835 34.9976 32.4915 34.654 32.4915 34.2246C32.4915 33.7952 32.835 33.4517 33.2644 33.4517H37.0326C37.462 33.4517 37.8055 33.7952 37.8055 34.2246C37.8055 34.654 37.462 34.9976 37.0326 34.9976Z" fill="#FEDF77"/>
</svg>
