<svg width="20" height="16" viewBox="0 0 20 16" fill="none" xmlns="http://www.w3.org/2000/svg">
<g clip-path="url(#clip0_275_18270)">
<path d="M16.5251 2.164C15.3311 1.621 14.0381 1.227 12.6921 1C12.6811 1 12.6681 1.002 12.6581 1.006C12.6471 1.011 12.6381 1.018 12.6291 1.026C12.4681 1.315 12.2791 1.691 12.1541 1.98C10.7261 1.77 9.27411 1.77 7.84612 1.98C7.72112 1.682 7.53211 1.315 7.36211 1.026C7.35211 1.009 7.32511 1 7.29811 1C5.95212 1.227 4.66911 1.621 3.46711 2.164C3.45811 2.164 3.44811 2.172 3.44011 2.181C0.998115 5.742 0.325115 9.207 0.658115 12.637C0.658115 12.655 0.667115 12.672 0.685115 12.681C2.30011 13.836 3.85212 14.536 5.38712 15C5.41411 15.009 5.44111 15 5.45011 14.982C5.80911 14.501 6.13211 13.994 6.41011 13.46C6.42811 13.425 6.41011 13.39 6.37511 13.381C5.86311 13.189 5.37811 12.961 4.90211 12.699C4.86712 12.681 4.86712 12.629 4.89411 12.602C4.99212 12.532 5.09111 12.454 5.19011 12.384C5.20812 12.366 5.23511 12.366 5.25211 12.375C8.34011 13.749 11.6691 13.749 14.7211 12.375C14.7381 12.366 14.7651 12.366 14.7831 12.384C14.8821 12.462 14.9811 12.532 15.0791 12.611C15.1151 12.637 15.1151 12.69 15.0711 12.707C14.6041 12.979 14.1101 13.197 13.5981 13.39C13.5631 13.399 13.5541 13.442 13.5631 13.469C13.8501 14.002 14.1731 14.51 14.5231 14.991C14.5501 15 14.5771 15.009 14.6041 15C16.1481 14.536 17.7001 13.836 19.3151 12.681C19.3331 12.672 19.3421 12.655 19.3421 12.637C19.7371 8.674 18.6871 5.235 16.5601 2.181C16.5521 2.172 16.5421 2.164 16.5251 2.164ZM6.87711 10.546C5.95211 10.546 5.18112 9.715 5.18112 8.691C5.18112 7.667 5.93511 6.836 6.87711 6.836C7.82811 6.836 8.58212 7.676 8.57311 8.691C8.57311 9.715 7.81911 10.546 6.87711 10.546ZM13.1321 10.546C12.2081 10.546 11.4361 9.715 11.4361 8.691C11.4361 7.667 12.1901 6.836 13.1321 6.836C14.0831 6.836 14.8371 7.676 14.8281 8.691C14.8281 9.715 14.0831 10.546 13.1321 10.546Z" fill="white"/>
</g>
<defs>
<clipPath id="clip0_275_18270">
<rect width="20" height="15" fill="white" transform="translate(0 0.5)"/>
</clipPath>
</defs>
</svg>
