<svg width="20" height="20" viewBox="0 0 20 20" fill="none" xmlns="http://www.w3.org/2000/svg">
<g clip-path="url(#clip0_275_18277)">
<path d="M0.277832 2.90788C0.277832 2.28988 0.496832 1.77988 0.934832 1.37788C1.37283 0.975879 1.94183 0.775879 2.64283 0.775879C3.33083 0.775879 3.88783 0.972879 4.31283 1.36888C4.75083 1.77688 4.96983 2.30788 4.96983 2.96388C4.96983 3.55688 4.75783 4.05088 4.33183 4.44688C3.89383 4.85488 3.31783 5.05888 2.60483 5.05888H2.58683C1.89783 5.05888 1.34183 4.85488 0.915832 4.44688C0.490832 4.03888 0.277832 3.52588 0.277832 2.90788ZM0.521832 19.1329V6.74588H4.68783V19.1329H0.521832ZM6.99683 19.1329H11.1628V12.2159C11.1628 11.7839 11.2138 11.4499 11.3138 11.2149C11.4888 10.7949 11.7548 10.4389 12.1118 10.1489C12.4678 9.85788 12.9158 9.71288 13.4528 9.71288C14.8548 9.71288 15.5558 10.6459 15.5558 12.5129V19.1329H19.7218V12.0309C19.7218 10.2009 19.2838 8.81388 18.4078 7.86788C17.5318 6.92188 16.3748 6.44988 14.9358 6.44988C13.3218 6.44988 12.0648 7.13588 11.1628 8.50788V8.54488H11.1448L11.1628 8.50788V6.74588H6.99683C7.02183 7.14188 7.03383 8.37188 7.03383 10.4359C7.03383 12.5009 7.02183 15.3999 6.99683 19.1329Z" fill="white"/>
</g>
<defs>
<clipPath id="clip0_275_18277">
<rect width="20" height="20" fill="white"/>
</clipPath>
</defs>
</svg>
