<svg width="20" height="20" viewBox="0 0 20 20" fill="none" xmlns="http://www.w3.org/2000/svg">
<g clip-path="url(#clip0_275_18266)">
<path d="M9.99983 0.277832C4.63283 0.277832 0.277832 4.63283 0.277832 9.99983C0.277832 15.3668 4.63283 19.7218 9.99983 19.7218C15.3668 19.7218 19.7218 15.3668 19.7218 9.99983C19.7218 4.63283 15.3668 0.277832 9.99983 0.277832ZM14.5108 6.88883C14.3648 8.42483 13.7328 12.1578 13.4118 13.8788C13.2758 14.6078 13.0038 14.8508 12.7508 14.8808C12.1868 14.9288 11.7598 14.5108 11.2148 14.1508C10.3598 13.5878 9.87383 13.2378 9.04683 12.6928C8.08483 12.0608 8.70683 11.7108 9.26083 11.1468C9.40683 11.0008 11.8958 8.73583 11.9438 8.53183C11.9508 8.50083 11.9498 8.46883 11.9418 8.43883C11.9328 8.40783 11.9178 8.37983 11.8958 8.35683C11.8368 8.30783 11.7598 8.32783 11.6918 8.33783C11.6038 8.35683 10.2428 9.26083 7.58883 11.0498C7.19983 11.3128 6.84983 11.4488 6.53883 11.4388C6.18883 11.4288 5.52783 11.2448 5.03183 11.0788C4.41883 10.8848 3.94283 10.7778 3.98183 10.4378C4.00083 10.2628 4.24383 10.0878 4.70083 9.90283C7.53983 8.66783 9.42583 7.85083 10.3688 7.46283C13.0718 6.33483 13.6258 6.13983 13.9958 6.13983C14.0738 6.13983 14.2578 6.15983 14.3748 6.25683C14.4718 6.33483 14.5008 6.44183 14.5108 6.51983C14.5008 6.57783 14.5208 6.75283 14.5108 6.88883Z" fill="white"/>
</g>
<defs>
<clipPath id="clip0_275_18266">
<rect width="20" height="20" fill="white"/>
</clipPath>
</defs>
</svg>
