<svg width="259" height="246" viewBox="0 0 259 246" fill="none" xmlns="http://www.w3.org/2000/svg">
<path opacity="0.65" d="M115.357 230.536L134.235 218.568L153.035 230.536L134.235 242.336L115.357 230.536Z" fill="#17243A"/>
<path opacity="0.65" d="M115.357 76.2182L134.235 64.2503L153.035 76.2182L134.235 88.0175L115.357 76.2182Z" fill="#17243A"/>
<path opacity="0.65" d="M41.0516 184.351L60.4746 172.046L79.7807 184.351L60.4746 196.487L41.0516 184.351Z" fill="#17243A"/>
<path opacity="0.65" d="M41.0516 122.109L60.4746 109.762L79.7807 122.109L60.4746 134.203L41.0516 122.109Z" fill="#17243A"/>
<path opacity="0.65" d="M109.441 154.22L134.274 138.459L158.913 154.22L134.274 169.685L109.441 154.22Z" fill="#17243A"/>
<path opacity="0.65" d="M188.962 184.351L208.385 172.046L227.691 184.351L208.385 196.487L188.962 184.351Z" fill="#17243A"/>
<path opacity="0.65" d="M188.962 122.109L208.385 109.762L227.691 122.109L208.385 134.203L188.962 122.109Z" fill="#17243A"/>
<path d="M45.1384 83.2135V106.644L64.0164 118.696V95.0128L45.1384 83.2135Z" fill="#A0E6F9"/>
<path d="M204.414 118.696V95.0128L223.176 83.2135V106.939L204.414 118.696Z" fill="#111723"/>
<path d="M115.357 39.3874V62.7753L134.235 74.8275V51.1446L115.357 39.3874Z" fill="#A0E6F9"/>
<path d="M115.357 39.3875L134.235 27.3774L153.035 39.3875L134.235 51.1446L115.357 39.3875Z" fill="#28B4E5"/>
<path d="M134.235 74.8275V51.1446L153.035 39.3874V63.1124L134.235 74.8275Z" fill="#111723"/>
<path d="M185.497 142.336V165.766L204.375 177.776V154.136L185.497 142.336Z" fill="#A0E6F9"/>
<path d="M64.0166 177.776V154.136L82.7778 142.336V166.061L64.0166 177.776Z" fill="#111723"/>
<path d="M110.53 108.287V137.575L134.157 152.619V122.994L110.53 108.287Z" fill="#A0E6F9"/>
<path d="M110.53 108.287L134.157 93.2849L157.667 108.287L134.157 122.994L110.53 108.287Z" fill="#28B4E5"/>
<path d="M134.157 152.619V122.994L157.667 108.287V137.954L134.157 152.619Z" fill="#111723"/>
<path d="M46.8513 143.769L15.7512 124.385L54.2857 100.407L54.8695 101.502L18.0866 124.385L47.4351 142.674L46.8513 143.769Z" fill="#28B4E5"/>
<path d="M73.6847 159.133L73.1006 160.228L115.601 186.808L116.185 185.713L73.6847 159.133Z" fill="#28B4E5"/>
<path d="M194.852 158.968L152.178 185.733L152.764 186.827L195.437 160.062L194.852 158.968Z" fill="#28B4E5"/>
<path d="M221.619 143.601L221.035 142.505L249.994 124.343L213.523 101.46L214.107 100.365L252.33 124.343L221.619 143.601Z" fill="#28B4E5"/>
<path d="M143.31 56.042L142.725 57.1362L187.935 85.4633L188.52 84.3691L143.31 56.042Z" fill="#28B4E5"/>
<path d="M124.74 56.5598L79.3223 84.8352L79.9044 85.9312L125.322 57.6558L124.74 56.5598Z" fill="#28B4E5"/>
<path d="M185.497 142.336L204.375 130.369L223.137 142.336L204.375 154.136L185.497 142.336Z" fill="#28B4E5"/>
<path d="M204.375 177.776V154.136L223.136 142.336V166.061L204.375 177.776Z" fill="#111723"/>
<path d="M115.357 186.12V209.55L134.235 221.56V197.92L115.357 186.12Z" fill="#A0E6F9"/>
<path d="M115.357 186.12L134.235 174.152L153.035 186.12L134.235 197.92L115.357 186.12Z" fill="#28B4E5"/>
<path d="M134.235 221.56V197.92L153.035 186.12V209.845L134.235 221.56Z" fill="#111723"/>
<path d="M45.1384 142.336V165.766L64.0164 177.776V154.136L45.1384 142.336Z" fill="#A0E6F9"/>
<path d="M45.1384 142.336L64.0164 130.369L82.7776 142.336L64.0164 154.136L45.1384 142.336Z" fill="#28B4E5"/>
<path d="M45.0607 83.2135L63.9387 71.2456L82.7388 83.2135L63.9387 95.0128L45.0607 83.2135Z" fill="#28B4E5"/>
<path d="M63.9387 118.696V95.0128L82.7389 83.2135V106.939L63.9387 118.696Z" fill="#111723"/>
<path d="M185.537 83.2135V106.644L204.415 118.696V95.0128L185.537 83.2135Z" fill="#A0E6F9"/>
<path d="M185.537 83.2135L204.415 71.2456L223.176 83.2135L204.415 95.0128L185.537 83.2135Z" fill="#28B4E5"/>
</svg>
