<svg width="20" height="19" viewBox="0 0 20 19" fill="none" xmlns="http://www.w3.org/2000/svg">
<path d="M7.50935 4.44105C7.69145 4.44105 7.84024 4.29956 7.84024 4.1264V2.70729L9.9166 4.0018V5.84326L8.88397 5.18862C8.83068 5.15483 8.76628 5.13582 8.70187 5.13582C8.61305 5.13582 8.53088 5.1675 8.4687 5.22874C8.39764 5.29632 8.36433 5.38712 8.37321 5.48215C8.38209 5.57507 8.43539 5.65954 8.51756 5.71233L10.2453 6.80834L11.953 5.72712C12.0352 5.67432 12.0885 5.58985 12.0973 5.49693C12.1062 5.40402 12.0729 5.31321 12.0063 5.24775L12.0041 5.24563C11.9419 5.1865 11.8597 5.15483 11.7709 5.15483C11.7065 5.15483 11.6421 5.17383 11.5888 5.20762L10.5762 5.8496V4.00814L12.6525 2.71362V4.13273C12.6525 4.3059 12.8013 4.44738 12.9834 4.44738C13.1655 4.44738 13.3143 4.3059 13.3143 4.13273V1.93649L13.0567 1.77389L10.2475 0L7.43829 1.77389L7.18069 1.93649V4.13273C7.17847 4.29956 7.32726 4.44105 7.50935 4.44105ZM10.2453 0.747566L12.4038 2.11177L10.2453 3.45697L8.08674 2.11177L10.2453 0.747566Z" fill="#393939"/>
<path d="M7.43631 12.9979L7.17871 13.1605V16.0938L10.2455 18.0366L13.3123 16.0938V13.1605L10.2455 11.2219L7.43631 12.9979ZM9.91463 15.2301V17.0715L7.83826 15.7559V13.9356L9.91463 15.2301ZM10.2455 11.9758L12.404 13.34L10.2455 14.6852L8.08698 13.34L10.2455 11.9758ZM10.5764 17.0737V15.2322L12.6528 13.9377V15.758L10.5764 17.0737Z" fill="#393939"/>
<path d="M5.6508 10.8482C5.58862 10.789 5.50645 10.7574 5.41762 10.7574C5.35322 10.7574 5.28882 10.7764 5.23552 10.8101L4.22288 11.4521V9.61066L6.29924 8.31615V9.73525C6.29924 9.90842 6.44803 10.0499 6.63013 10.0499C6.81223 10.0499 6.96102 9.90842 6.96102 9.73525V7.58547V7.55169L6.92993 7.52001L6.70341 7.37641L3.89422 5.60252L1.0828 7.37641L0.865168 7.51367L0.856285 7.52001L0.825195 7.55169V10.4723L3.892 12.4151L5.59972 11.3339C5.68189 11.2811 5.73518 11.1966 5.74407 11.1037C5.75295 11.0108 5.71964 10.92 5.6508 10.8524V10.8482ZM3.892 6.35431L6.05052 7.71852L3.892 9.06371L1.73124 7.71852L3.892 6.35431ZM3.56111 9.60855V11.45L1.48475 10.1344V8.31403L3.56111 9.60855Z" fill="#393939"/>
<path d="M19.6256 7.56225L19.6145 7.54324L19.6078 7.53268L19.5923 7.5179L19.3657 7.37641L16.5565 5.60252L13.4897 7.54113V9.73737C13.4897 9.91053 13.6385 10.052 13.8206 10.052C14.0027 10.052 14.1515 9.91053 14.1515 9.73737V8.31826L16.2279 9.61277V11.4542L15.1953 10.7996C15.142 10.7658 15.0776 10.7468 15.0132 10.7468C14.9243 10.7468 14.8422 10.7785 14.78 10.8397C14.7089 10.9073 14.6756 10.9981 14.6845 11.0931C14.6934 11.186 14.7467 11.2705 14.8288 11.3233L16.5588 12.4193L19.6256 10.4765V7.58547V7.56225ZM18.7173 7.71852L16.5588 9.06371L14.4002 7.71852L16.5588 6.35431L18.7173 7.71852ZM18.966 8.31615V10.1344L16.8897 11.45V9.60855L18.966 8.31615Z" fill="#393939"/>
<path d="M8.36027 11.6549L5.40672 9.598C5.35343 9.55999 5.28903 9.54099 5.22241 9.54099C5.12247 9.54099 5.0292 9.58533 4.97147 9.66135C4.86931 9.79228 4.9004 9.97812 5.03809 10.0753L7.99163 12.1321C8.04493 12.1701 8.10933 12.1891 8.17595 12.1891C8.27588 12.1891 8.36915 12.1448 8.42689 12.0688C8.52682 11.9378 8.49795 11.752 8.36027 11.6549Z" fill="#393939"/>
<path d="M12.0333 12.0688C12.0911 12.1448 12.1866 12.1891 12.2843 12.1891C12.3509 12.1891 12.4153 12.1701 12.4686 12.1321L15.4221 10.0753C15.4888 10.0288 15.5332 9.95911 15.5465 9.88098C15.5598 9.80284 15.5398 9.72471 15.491 9.66135C15.4332 9.58533 15.3378 9.54099 15.24 9.54099C15.1734 9.54099 15.109 9.55999 15.0557 9.598L12.1022 11.6549C11.9623 11.752 11.9312 11.9378 12.0333 12.0688Z" fill="#393939"/>
<path d="M11.5512 3.94478C11.4513 3.94478 11.358 3.98913 11.3003 4.06515C11.2514 4.1285 11.2314 4.20664 11.2448 4.28477C11.2581 4.36291 11.3025 4.4326 11.3691 4.47906L14.3227 6.53592C14.376 6.57393 14.4404 6.59294 14.507 6.59294C14.6069 6.59294 14.7002 6.54859 14.7579 6.47257C14.8601 6.34164 14.829 6.1558 14.6913 6.05866L11.7378 4.0018C11.6822 3.96378 11.6178 3.94478 11.5512 3.94478Z" fill="#393939"/>
<path d="M5.95287 6.59506C6.0195 6.59506 6.0839 6.57605 6.13719 6.53804L9.09074 4.48118C9.22842 4.38404 9.25951 4.1982 9.15736 4.06727C9.09962 3.99125 9.00413 3.9469 8.90642 3.9469C8.8398 3.9469 8.7754 3.96591 8.7221 4.00392L5.76856 6.06078C5.63087 6.15792 5.59978 6.34376 5.70193 6.47469C5.75967 6.5486 5.85294 6.59506 5.95287 6.59506Z" fill="#393939"/>
</svg>
