<svg width="20" height="19" viewBox="0 0 20 19" fill="none" xmlns="http://www.w3.org/2000/svg">
<rect width="20" height="19" fill="#F5F5F5"/>
<g id="Homepage">
<rect width="1920" height="8337" transform="translate(-711 -269)" fill="white"/>
<g id="Body Section">
<rect width="1920" height="8337" transform="translate(-711 -269)" fill="black"/>
<g id="Hero Section">
<rect x="-711" y="-240" width="1920" height="916" rx="24" fill="black"/>
<g id="div.framer-15pq13g" filter="url(#filter0_b_0_1)">
<rect x="-16" y="-11" width="530" height="40" rx="20" fill="#232323" fill-opacity="0.2"/>
<rect id="::after" x="-15.5" y="-10.5" width="529" height="39" rx="19.5" stroke="#DFE1E7" stroke-opacity="0.1"/>
<g id="Group">
<path id="Vector" d="M7.5096 4.44105C7.6917 4.44105 7.84048 4.29956 7.84048 4.1264V2.70729L9.91685 4.0018V5.84326L8.88422 5.18862C8.83092 5.15483 8.76652 5.13582 8.70212 5.13582C8.61329 5.13582 8.53112 5.1675 8.46894 5.22874C8.39788 5.29632 8.36457 5.38712 8.37345 5.48215C8.38234 5.57507 8.43563 5.65954 8.5178 5.71233L10.2455 6.80834L11.9532 5.72712C12.0354 5.67432 12.0887 5.58985 12.0976 5.49693C12.1065 5.40402 12.0732 5.31321 12.0065 5.24775L12.0043 5.24563C11.9421 5.1865 11.86 5.15483 11.7711 5.15483C11.7067 5.15483 11.6423 5.17383 11.589 5.20762L10.5764 5.8496V4.00814L12.6528 2.71362V4.13273C12.6528 4.3059 12.8015 4.44738 12.9836 4.44738C13.1657 4.44738 13.3145 4.3059 13.3145 4.13273V1.93649L13.0569 1.77389L10.2477 0L7.43854 1.77389L7.18093 1.93649V4.13273C7.17871 4.29956 7.3275 4.44105 7.5096 4.44105ZM10.2455 0.747566L12.404 2.11177L10.2455 3.45697L8.08698 2.11177L10.2455 0.747566Z" fill="white"/>
<path id="Vector_2" d="M7.43656 12.9979L7.17896 13.1605V16.0938L10.2458 18.0366L13.3126 16.0938V13.1605L10.2458 11.2219L7.43656 12.9979ZM9.91487 15.2301V17.0715L7.83851 15.7559V13.9356L9.91487 15.2301ZM10.2458 11.9758L12.4043 13.34L10.2458 14.6852L8.08723 13.34L10.2458 11.9758ZM10.5766 17.0737V15.2322L12.653 13.9377V15.758L10.5766 17.0737Z" fill="white"/>
<path id="Vector_3" d="M5.65104 10.8482C5.58886 10.789 5.50669 10.7574 5.41787 10.7574C5.35347 10.7574 5.28907 10.7764 5.23577 10.8101L4.22312 11.4521V9.61066L6.29949 8.31615V9.73525C6.29949 9.90842 6.44828 10.0499 6.63037 10.0499C6.81247 10.0499 6.96126 9.90842 6.96126 9.73525V7.58547V7.55169L6.93017 7.52001L6.70366 7.37641L3.89446 5.60252L1.08304 7.37641L0.865412 7.51367L0.856529 7.52001L0.825439 7.55169V10.4723L3.89224 12.4151L5.59997 11.3339C5.68213 11.2811 5.73543 11.1966 5.74431 11.1037C5.75319 11.0108 5.71988 10.92 5.65104 10.8524V10.8482ZM3.89224 6.35431L6.05077 7.71852L3.89224 9.06371L1.73149 7.71852L3.89224 6.35431ZM3.56135 9.60855V11.45L1.48499 10.1344V8.31403L3.56135 9.60855Z" fill="white"/>
<path id="Vector_4" d="M19.6258 7.56225L19.6147 7.54324L19.608 7.53268L19.5925 7.5179L19.366 7.37641L16.5568 5.60252L13.49 7.54113V9.73737C13.49 9.91053 13.6388 10.052 13.8209 10.052C14.003 10.052 14.1518 9.91053 14.1518 9.73737V8.31826L16.2281 9.61277V11.4542L15.1955 10.7996C15.1422 10.7658 15.0778 10.7468 15.0134 10.7468C14.9246 10.7468 14.8424 10.7785 14.7802 10.8397C14.7092 10.9073 14.6758 10.9981 14.6847 11.0931C14.6936 11.186 14.7469 11.2705 14.8291 11.3233L16.559 12.4193L19.6258 10.4765V7.58547V7.56225ZM18.7175 7.71852L16.559 9.06371L14.4005 7.71852L16.559 6.35431L18.7175 7.71852ZM18.9663 8.31615V10.1344L16.8899 11.45V9.60855L18.9663 8.31615Z" fill="white"/>
<path id="Vector_5" d="M8.36027 11.6549L5.40672 9.598C5.35343 9.55999 5.28903 9.54099 5.22241 9.54099C5.12247 9.54099 5.0292 9.58533 4.97147 9.66135C4.86931 9.79228 4.9004 9.97812 5.03809 10.0753L7.99163 12.1321C8.04493 12.1701 8.10933 12.1891 8.17595 12.1891C8.27588 12.1891 8.36915 12.1448 8.42689 12.0688C8.52682 11.9378 8.49795 11.752 8.36027 11.6549Z" fill="white"/>
<path id="Vector_6" d="M12.0336 12.0688C12.0913 12.1448 12.1868 12.1891 12.2845 12.1891C12.3511 12.1891 12.4155 12.1701 12.4688 12.1321L15.4224 10.0753C15.489 10.0288 15.5334 9.95911 15.5467 9.88098C15.5601 9.80284 15.5401 9.72471 15.4912 9.66135C15.4335 9.58533 15.338 9.54099 15.2403 9.54099C15.1737 9.54099 15.1093 9.55999 15.056 9.598L12.1024 11.6549C11.9625 11.752 11.9314 11.9378 12.0336 12.0688Z" fill="white"/>
<path id="Vector_7" d="M11.5515 3.94478C11.4515 3.94478 11.3583 3.98913 11.3005 4.06515C11.2517 4.1285 11.2317 4.20664 11.245 4.28477C11.2583 4.36291 11.3027 4.4326 11.3694 4.47906L14.3229 6.53592C14.3762 6.57393 14.4406 6.59294 14.5072 6.59294C14.6072 6.59294 14.7004 6.54859 14.7582 6.47257C14.8603 6.34164 14.8292 6.1558 14.6915 6.05866L11.738 4.0018C11.6825 3.96378 11.6181 3.94478 11.5515 3.94478Z" fill="white"/>
<path id="Vector_8" d="M5.95287 6.59506C6.0195 6.59506 6.0839 6.57605 6.13719 6.53804L9.09074 4.48118C9.22842 4.38404 9.25951 4.1982 9.15736 4.06727C9.09962 3.99125 9.00413 3.9469 8.90642 3.9469C8.8398 3.9469 8.7754 3.96591 8.7221 4.00392L5.76856 6.06078C5.63087 6.15792 5.59978 6.34376 5.70193 6.47469C5.75967 6.5486 5.85294 6.59506 5.95287 6.59506Z" fill="white"/>
</g>
</g>
</g>
</g>
</g>
<defs>
<filter id="filter0_b_0_1" x="-21" y="-16" width="540" height="50" filterUnits="userSpaceOnUse" color-interpolation-filters="sRGB">
<feFlood flood-opacity="0" result="BackgroundImageFix"/>
<feGaussianBlur in="BackgroundImageFix" stdDeviation="2.5"/>
<feComposite in2="SourceAlpha" operator="in" result="effect1_backgroundBlur_0_1"/>
<feBlend mode="normal" in="SourceGraphic" in2="effect1_backgroundBlur_0_1" result="shape"/>
</filter>
</defs>
</svg>
