<svg width="16" height="16" viewBox="0 0 16 16" fill="none" xmlns="http://www.w3.org/2000/svg">
<mask id="mask0_519_10380" style="mask-type:luminance" maskUnits="userSpaceOnUse" x="4" y="4" width="8" height="8">
<path d="M11.6668 4H4.3335V12H11.6668V4Z" fill="white"/>
</mask>
<g mask="url(#mask0_519_10380)">
<path fill-rule="evenodd" clip-rule="evenodd" d="M10.9169 5.70369C11.0029 5.79745 11.0511 5.92461 11.0511 6.05719C11.0511 6.18977 11.0029 6.31692 10.9169 6.41069L7.48159 10.1584C7.43619 10.2079 7.38229 10.2472 7.32297 10.274C7.26365 10.3008 7.20006 10.3146 7.13585 10.3146C7.07164 10.3146 7.00806 10.3008 6.94874 10.274C6.88942 10.2472 6.83552 10.2079 6.79012 10.1584L5.08328 8.29669C5.03951 8.25057 5.00459 8.19539 4.98057 8.13439C4.95655 8.07339 4.94391 8.00778 4.94338 7.94139C4.94285 7.875 4.95444 7.80916 4.97749 7.74771C5.00054 7.68626 5.03457 7.63044 5.0776 7.58349C5.12064 7.53654 5.17181 7.49942 5.22814 7.47428C5.28447 7.44914 5.34482 7.43649 5.40568 7.43706C5.46653 7.43764 5.52668 7.45143 5.58259 7.47764C5.63851 7.50384 5.68909 7.54193 5.73137 7.58969L7.1357 9.12169L10.2686 5.70369C10.3111 5.65723 10.3617 5.62037 10.4173 5.59522C10.4729 5.57007 10.5325 5.55713 10.5928 5.55713C10.653 5.55713 10.7126 5.57007 10.7682 5.59522C10.8238 5.62037 10.8744 5.65723 10.9169 5.70369Z" fill="black"/>
</g>
</svg>
