<svg width="24" height="24" viewBox="0 0 24 24" fill="none" xmlns="http://www.w3.org/2000/svg">
<g clip-path="url(#clip0_275_9475)">
<path d="M24 12C24 5.37258 18.6274 0 12 0C5.37258 0 0 5.37258 0 12C0 18.6274 5.37258 24 12 24C18.6274 24 24 18.6274 24 12Z" fill="white"/>
<path d="M18.9933 16.3219C18.9973 15.9874 18.8404 15.7268 18.6109 15.4974C18.9796 15.1318 19.111 14.7215 18.8973 14.2529C18.6855 13.7842 18.2834 13.6209 17.7834 13.6287C17.1951 13.6384 16.6087 13.6306 16.0204 13.6306H15.7105V11.1961C15.9223 11.4527 16.1008 11.6705 16.2812 11.8844C16.6342 12.3044 17.1166 12.3044 17.4618 11.8825C17.8697 11.3847 18.2717 10.8849 18.6737 10.3813C18.9365 10.0546 18.9424 9.76098 18.6933 9.42458C18.0442 8.54175 17.3931 7.66087 16.7401 6.78194C16.4655 6.41248 16.1204 6.12274 15.7066 5.91662C15.234 5.68133 14.7712 5.42465 14.2849 5.22047C14.0083 5.1038 13.6965 5.02602 13.3965 5.01824C12.4199 4.99296 11.4413 4.9949 10.4667 5.01824C10.1823 5.02407 9.8823 5.09602 9.61952 5.20686C9.11356 5.4227 8.61545 5.66188 8.1448 5.93995C7.8173 6.13441 7.48 6.36775 7.2486 6.66138C6.51909 7.58309 5.83468 8.53981 5.14047 9.48875C4.95221 9.74543 4.95221 10.0566 5.14635 10.3035C5.58367 10.8596 6.0249 11.4158 6.48379 11.9564C6.7603 12.285 7.24076 12.2753 7.53295 11.9564C7.70945 11.7619 7.87025 11.5519 8.0389 11.3516C8.07224 11.3127 8.13892 11.2583 8.1801 11.2427C8.1801 11.4411 8.18206 11.6375 8.1801 11.8319V18.21C8.18598 18.7312 8.45661 18.9995 8.98609 18.9995C10.6687 18.9995 12.3513 18.9995 14.0319 18.9995C15.3242 18.9995 16.6185 19.0015 17.9108 18.9976C18.5658 18.9956 19.0698 18.4784 18.9816 17.8561C18.9443 17.5975 18.7835 17.3583 18.6639 17.0764C18.8482 16.9111 18.9894 16.6486 18.9933 16.3219ZM18.3462 9.76098C18.3815 9.8446 18.3756 9.98849 18.3246 10.0566C17.9187 10.5816 17.499 11.0969 17.0774 11.6102C16.946 11.7697 16.8107 11.7658 16.6695 11.6141C16.6146 11.5558 16.5695 11.4897 16.5107 11.4158C17.0303 10.7449 17.5481 10.0799 18.0815 9.39152C18.1815 9.52764 18.2913 9.63264 18.3462 9.76098ZM13.7534 5.50632C13.6357 6.14802 12.8337 6.6361 11.9375 6.6361C11.0432 6.6361 10.2412 6.14802 10.1215 5.50632H13.7534ZM9.64305 5.70855C10.0882 6.6886 10.906 7.09696 11.9336 7.0989C12.9533 7.10084 13.7711 6.70221 14.2319 5.71244C14.2986 5.74355 14.3692 5.77272 14.4378 5.80772C14.5025 5.83884 14.5633 5.87578 14.6241 5.90884C14.3457 6.83833 13.2102 7.54809 11.9787 7.57531C10.7608 7.60059 9.59598 6.89861 9.24887 5.90689C9.38026 5.83884 9.50381 5.77855 9.64305 5.70855ZM7.19565 11.6277C7.07211 11.7541 6.93287 11.7678 6.81717 11.6258C6.38574 11.1008 5.95823 10.5738 5.54248 10.0371C5.49542 9.97488 5.49542 9.83682 5.53072 9.75904C5.58955 9.6307 5.69545 9.52569 5.79742 9.38957C6.32887 10.076 6.84658 10.741 7.37018 11.4158C7.30547 11.4955 7.25448 11.5675 7.19565 11.6277ZM10.4667 18.527C9.99015 18.527 9.51166 18.527 9.03512 18.527C8.6939 18.527 8.64683 18.4784 8.64683 18.1303V17.8503H11.2001C11.2531 18.0759 11.306 18.2917 11.3609 18.527H10.4667ZM11.608 17.1211C11.4982 17.3408 11.3197 17.3758 11.0962 17.3719C10.3686 17.3603 9.64109 17.368 8.91354 17.368H8.64487V16.9014C8.64095 16.6738 8.6331 16.4502 8.64487 16.2266V11.2738C8.64095 11.0599 8.60761 10.8596 8.36052 10.7585C8.05851 10.636 7.85653 10.7974 7.68003 11.0444C7.57021 10.9063 7.47216 10.7838 7.37411 10.6574C6.97994 10.1499 6.58773 9.64042 6.18963 9.13484C6.11903 9.04539 6.0857 8.98122 6.16806 8.87233C6.63872 8.24813 7.09956 7.61615 7.56825 6.99195C7.88006 6.57582 8.3213 6.33469 8.79391 6.14024C9.83523 8.60981 13.8926 8.72454 15.0712 6.14024C15.5674 6.33664 16.0165 6.59721 16.34 7.03279C16.793 7.64337 17.246 8.25396 17.6932 8.86844C17.7304 8.91899 17.7559 9.03178 17.7285 9.06872C17.2304 9.72598 16.7224 10.3755 16.2067 11.0405C16.1537 10.9822 16.1106 10.9355 16.0675 10.8888C15.9184 10.7235 15.7321 10.6749 15.5282 10.7508C15.3321 10.8246 15.234 10.9841 15.234 11.1961C15.234 11.9175 15.234 12.6389 15.232 13.3603V13.619C15.1379 13.6228 15.0595 13.6306 14.983 13.6306C14.1299 13.6306 13.2788 13.6365 12.4258 13.6287C11.9237 13.6248 11.5276 13.7959 11.3237 14.2684C11.1217 14.7312 11.2511 15.1357 11.6159 15.4954C11.3903 15.723 11.2315 15.9835 11.2335 16.318C11.2354 16.6447 11.3805 16.9052 11.608 17.1211ZM17.8912 18.527C16.9656 18.5289 16.04 18.527 15.1144 18.527C14.1731 18.527 13.2337 18.5289 12.2924 18.525C12.0081 18.5231 11.7865 18.3481 11.7237 18.0972C11.661 17.8464 11.761 17.58 11.9885 17.4575C12.0865 17.405 12.2101 17.3739 12.3238 17.3739C14.1829 17.368 16.042 17.368 17.901 17.3719C18.2697 17.3719 18.5148 17.6072 18.5188 17.9436C18.5207 18.2878 18.2717 18.525 17.8912 18.527ZM17.901 16.8975C16.9676 16.9014 16.0341 16.8994 15.1007 16.8994C14.175 16.8994 13.2494 16.9033 12.3238 16.8975C11.859 16.8955 11.5708 16.4638 11.7629 16.0691C11.8728 15.8435 12.0669 15.7346 12.314 15.7346C14.1809 15.7327 16.0459 15.7307 17.9128 15.7366C18.2756 15.7366 18.5188 15.9894 18.5168 16.3238C18.5148 16.6583 18.2638 16.8955 17.901 16.8975ZM18.2756 15.1474C18.1619 15.2154 18.0167 15.264 17.8854 15.264C16.0341 15.2718 14.1829 15.2718 12.3297 15.2679C11.9512 15.2679 11.7022 15.0171 11.708 14.6748C11.7139 14.3346 11.9669 14.1051 12.3513 14.1051C13.2769 14.1032 14.2025 14.1051 15.1281 14.1051C16.0537 14.1051 16.9793 14.1032 17.905 14.107C18.1952 14.107 18.4168 14.2665 18.4952 14.5134C18.5698 14.7468 18.4894 15.019 18.2756 15.1474Z" fill="#393939"/>
</g>
<defs>
<clipPath id="clip0_275_9475">
<rect width="24" height="24" fill="white"/>
</clipPath>
</defs>
</svg>
