<svg width="24" height="24" viewBox="0 0 24 24" fill="none" xmlns="http://www.w3.org/2000/svg">
<circle cx="12" cy="12" r="12" fill="black"/>
<path d="M12.7608 15.2994L11.9346 15.9706L10.5393 14.8607C10.5887 14.8185 10.6345 14.7744 10.6768 14.7268C10.9163 14.4573 11.0115 14.1332 11.0485 13.8865C11.3162 13.9623 11.621 14.0063 11.9681 14.0063C13.2224 14.0063 13.9376 13.3915 14.3164 12.8771C14.7286 12.3169 14.9136 11.6404 14.9136 11.2176V9.15818C14.9136 9.00844 14.792 8.88865 14.6441 8.88865C14.216 8.88865 13.9253 8.7389 13.7597 8.42885C13.6258 8.18045 13.624 7.92149 13.624 7.91972C13.624 7.81931 13.5694 7.7277 13.4813 7.68014C13.3933 7.63257 13.2858 7.63786 13.203 7.69423C11.3832 8.91507 10.638 8.84108 10.631 8.84108C10.6362 8.84108 10.6398 8.84284 10.6398 8.84284L10.5429 9.37487C10.6274 9.39072 11.3867 9.48585 13.1554 8.37071C13.2153 8.57331 13.3246 8.81113 13.5236 9.01196C13.7438 9.23393 14.0292 9.36782 14.3745 9.41363V11.2193C14.3745 11.4501 14.2723 12.028 13.8812 12.5582C13.4373 13.1625 12.7925 13.469 11.9681 13.469C9.9668 13.469 9.55809 11.7408 9.55809 11.2775V9.34316C9.55809 9.19342 9.43654 9.07362 9.28856 9.07362C9.14058 9.07362 9.01902 9.19518 9.01902 9.34316V11.2757C9.01902 11.6721 9.17757 12.3415 9.62151 12.9229C9.82058 13.1836 10.113 13.4708 10.5288 13.6839C10.5182 13.8531 10.4689 14.1473 10.2716 14.3692C10.0954 14.5683 9.82587 14.6775 9.47001 14.6916C9.38545 14.6951 9.27622 14.7004 9.16348 14.718C8.97145 14.748 8.78824 14.7955 8.6156 14.8625C8.29497 14.5771 7.41413 13.6804 7.41413 12.4349C7.41413 11.6333 7.66429 11.2246 7.9303 10.793C8.18751 10.3755 8.45352 9.94389 8.45352 9.20751C8.45352 9.03663 8.45 8.86751 8.44647 8.70367C8.42357 7.53039 8.4042 6.51743 9.52814 5.52737C10.0954 5.02705 10.9727 4.77337 11.998 4.81565C12.87 4.85088 13.7421 5.1028 14.2195 5.45866C15.0175 6.05411 15.4051 6.77816 15.4051 7.67485C15.4051 7.8792 15.3998 8.06594 15.3963 8.2474C15.3716 9.17051 15.354 9.89985 16.064 11.0872C16.64 12.0509 16.5889 13.085 15.9089 14.1596C15.8297 14.2864 15.8667 14.452 15.9935 14.5331C16.1203 14.6123 16.2859 14.5753 16.367 14.4485C17.1527 13.2065 17.2073 11.9487 16.529 10.8106C15.8984 9.75715 15.9142 9.16171 15.9371 8.26149C15.9424 8.07651 15.9477 7.88625 15.9477 7.67485C15.9477 6.6108 15.4756 5.71939 14.5454 5.02529C13.9781 4.60249 13.011 4.31533 12.0227 4.27481C10.8582 4.22725 9.84701 4.5285 9.17405 5.12218C7.86336 6.27784 7.88626 7.5163 7.90916 8.71424C7.91269 8.87631 7.91621 9.04191 7.91621 9.20751C7.91621 9.79062 7.71186 10.1236 7.47403 10.5094C7.19392 10.9639 6.87682 11.4783 6.87682 12.4331C6.87682 13.7456 7.66429 14.6951 8.11176 15.1303C7.85455 15.31 7.63434 15.5425 7.45817 15.8226C7.14636 16.3194 7.03361 16.8743 7.03361 17.2284V18.6589C7.03361 18.8086 7.15517 18.9284 7.30315 18.9284C7.45289 18.9284 7.57268 18.8069 7.57268 18.6589V17.2284C7.57268 16.751 7.87393 15.465 9.24628 15.2518C9.33084 15.2395 9.41716 15.2342 9.49115 15.2307C9.68493 15.2236 9.86286 15.1937 10.0249 15.1426L11.7672 16.529C11.8166 16.5678 11.8765 16.5872 11.9346 16.5872C11.9945 16.5872 12.0561 16.5678 12.1055 16.5273L13.1008 15.7187C13.2171 15.6253 13.2347 15.4544 13.1396 15.3381C13.0462 15.2219 12.8771 15.2043 12.7608 15.2994Z" fill="white"/>
<path d="M14.3605 14.6916H14.3252C14.0381 14.6916 13.7897 14.6934 13.4391 14.186C13.3546 14.0627 13.1854 14.0327 13.0639 14.1173C12.9406 14.2019 12.9106 14.371 12.9952 14.4925C13.5078 15.2342 13.9817 15.2324 14.327 15.2324H14.3605C14.9859 15.2324 15.4915 15.4826 15.8632 15.9741C16.175 16.3863 16.2913 16.8426 16.2913 17.0346V18.6607C16.2913 18.8104 16.4128 18.9302 16.5608 18.9302C16.7106 18.9302 16.8304 18.8087 16.8304 18.6607V17.0346C16.8304 16.7087 16.663 16.1379 16.2948 15.65C15.9654 15.2113 15.3629 14.6916 14.3605 14.6916Z" fill="white"/>
</svg>
