<svg width="11" height="15" viewBox="0 0 11 15" fill="none" xmlns="http://www.w3.org/2000/svg">
<path d="M6.76082 11.2994L5.93459 11.9706L4.53935 10.8607C4.58867 10.8185 4.63448 10.7744 4.67676 10.7268C4.91635 10.4573 5.01148 10.1332 5.04847 9.88652C5.31625 9.96228 5.62102 10.0063 5.96807 10.0063C7.22238 10.0063 7.93762 9.39149 8.31638 8.87708C8.72861 8.31687 8.91359 7.64038 8.91359 7.21758V5.15818C8.91359 5.00844 8.79203 4.88865 8.64405 4.88865C8.21597 4.88865 7.92529 4.7389 7.75969 4.42885C7.6258 4.18045 7.62404 3.92149 7.62404 3.91972C7.62404 3.81931 7.56943 3.7277 7.48135 3.68014C7.39326 3.63257 7.2858 3.63786 7.203 3.69423C5.38319 4.91507 4.638 4.84108 4.63095 4.84108C4.63624 4.84108 4.63976 4.84284 4.63976 4.84284L4.54287 5.37487C4.62743 5.39072 5.38671 5.48585 7.15544 4.37071C7.21533 4.57331 7.32456 4.81113 7.52363 5.01196C7.74384 5.23393 8.02923 5.36782 8.37452 5.41363V7.21934C8.37452 7.45012 8.27234 8.02795 7.88125 8.55822C7.4373 9.16247 6.79253 9.46901 5.96807 9.46901C3.9668 9.46901 3.55809 7.7408 3.55809 7.27748V5.34316C3.55809 5.19342 3.43654 5.07362 3.28856 5.07362C3.14058 5.07362 3.01902 5.19518 3.01902 5.34316V7.27572C3.01902 7.6721 3.17757 8.34153 3.62151 8.92289C3.82058 9.18361 4.11302 9.47077 4.52878 9.68393C4.51821 9.85305 4.46888 10.1473 4.27157 10.3692C4.0954 10.5683 3.82587 10.6775 3.47001 10.6916C3.38545 10.6951 3.27622 10.7004 3.16348 10.718C2.97145 10.748 2.78824 10.7955 2.6156 10.8625C2.29497 10.5771 1.41413 9.68041 1.41413 8.4349C1.41413 7.63334 1.66429 7.22463 1.9303 6.79302C2.18751 6.3755 2.45352 5.94389 2.45352 5.20751C2.45352 5.03663 2.45 4.86751 2.44647 4.70367C2.42357 3.53039 2.4042 2.51743 3.52814 1.52737C4.0954 1.02705 4.97272 0.773369 5.99801 0.815649C6.87004 0.850883 7.74207 1.1028 8.21949 1.45866C9.01753 2.05411 9.4051 2.77816 9.4051 3.67485C9.4051 3.8792 9.39981 4.06594 9.39629 4.2474C9.37163 5.17051 9.35401 5.89985 10.064 7.08722C10.64 8.05086 10.5889 9.08496 9.90894 10.1596C9.82966 10.2864 9.86666 10.452 9.9935 10.5331C10.1203 10.6123 10.2859 10.5753 10.367 10.4485C11.1527 9.20652 11.2073 7.94868 10.529 6.81063C9.89837 5.75715 9.91422 5.16171 9.93712 4.26149C9.94241 4.07651 9.94769 3.88625 9.94769 3.67485C9.94769 2.6108 9.47556 1.71939 8.5454 1.02529C7.97814 0.602486 7.01098 0.315333 6.02268 0.274814C4.85821 0.227249 3.84701 0.528496 3.17405 1.12218C1.86336 2.27784 1.88626 3.5163 1.90916 4.71424C1.91269 4.87631 1.91621 5.04191 1.91621 5.20751C1.91621 5.79062 1.71186 6.12358 1.47403 6.50939C1.19392 6.9639 0.876822 7.47831 0.876822 8.43314C0.876822 9.74559 1.66429 10.6951 2.11176 11.1303C1.85455 11.31 1.63434 11.5425 1.45817 11.8226C1.14636 12.3194 1.03361 12.8743 1.03361 13.2284V14.6589C1.03361 14.8086 1.15517 14.9284 1.30315 14.9284C1.45289 14.9284 1.57268 14.8069 1.57268 14.6589V13.2284C1.57268 12.751 1.87393 11.465 3.24628 11.2518C3.33084 11.2395 3.41716 11.2342 3.49115 11.2307C3.68493 11.2236 3.86286 11.1937 4.02494 11.1426L5.76724 12.529C5.81656 12.5678 5.87646 12.5872 5.93459 12.5872C5.99449 12.5872 6.05615 12.5678 6.10548 12.5273L7.10082 11.7187C7.21709 11.6253 7.23471 11.4544 7.13958 11.3381C7.04621 11.2219 6.87709 11.2043 6.76082 11.2994Z" fill="#393939"/>
<path d="M8.36048 10.6916H8.32525C8.03809 10.6916 7.7897 10.6934 7.43913 10.186C7.35456 10.0627 7.18544 10.0327 7.06389 10.1173C6.94057 10.2019 6.91062 10.371 6.99518 10.4925C7.50783 11.2342 7.98172 11.2324 8.32701 11.2324H8.36048C8.98588 11.2324 9.49148 11.4826 9.86319 11.9741C10.175 12.3863 10.2913 12.8426 10.2913 13.0346V14.6607C10.2913 14.8104 10.4128 14.9302 10.5608 14.9302C10.7106 14.9302 10.8304 14.8087 10.8304 14.6607V13.0346C10.8304 12.7087 10.663 12.1379 10.2948 11.65C9.96537 11.2113 9.36287 10.6916 8.36048 10.6916Z" fill="#393939"/>
</svg>
