<svg width="326" height="125" viewBox="0 0 326 125" fill="none" xmlns="http://www.w3.org/2000/svg">
<g clip-path="url(#clip0_1_158)">
<g clip-path="url(#clip1_1_158)">
<path d="M124 64C68.5 63.9998 47 70.0002 42 99.0002" stroke="#1E1E1F" stroke-miterlimit="10"/>
</g>
</g>
<g clip-path="url(#clip2_1_158)">
<path d="M124 64C102.5 64 66 62.5 63 37" stroke="#1E1E1F" stroke-miterlimit="10"/>
</g>
<g clip-path="url(#clip3_1_158)">
<path d="M181 64.5C261.5 64.5 280.5 56.5 280.5 28" stroke="#1E1E1F" stroke-miterlimit="10"/>
</g>
<g clip-path="url(#clip4_1_158)">
<path d="M181 64.5001C231 64.5001 277 59.4998 277 96.9999" stroke="#1E1E1F" stroke-miterlimit="10"/>
</g>
<g filter="url(#filter0_i_1_158)">
<rect y="98" width="86" height="27" rx="13.5" fill="#0B0B0B"/>
<rect x="0.5" y="98.5" width="85" height="26" rx="13" stroke="white" stroke-opacity="0.1"/>
<path d="M23.2074 110.111H21.8778C21.8267 109.827 21.7315 109.577 21.5923 109.361C21.4531 109.145 21.2827 108.962 21.081 108.811C20.8793 108.661 20.6534 108.547 20.4034 108.47C20.1563 108.393 19.8935 108.355 19.6151 108.355C19.1122 108.355 18.6619 108.482 18.2642 108.734C17.8693 108.987 17.5568 109.358 17.3267 109.847C17.0994 110.335 16.9858 110.932 16.9858 111.636C16.9858 112.347 17.0994 112.946 17.3267 113.435C17.5568 113.923 17.8707 114.293 18.2685 114.543C18.6662 114.793 19.1136 114.918 19.6108 114.918C19.8864 114.918 20.1477 114.881 20.3949 114.807C20.6449 114.73 20.8707 114.618 21.0724 114.47C21.2741 114.322 21.4446 114.142 21.5838 113.929C21.7259 113.713 21.8239 113.466 21.8778 113.188L23.2074 113.192C23.1364 113.621 22.9986 114.016 22.794 114.376C22.5923 114.734 22.3324 115.044 22.0142 115.305C21.6989 115.564 21.3381 115.764 20.9318 115.906C20.5256 116.048 20.0824 116.119 19.6023 116.119C18.8466 116.119 18.1733 115.94 17.5824 115.582C16.9915 115.222 16.5256 114.706 16.1847 114.036C15.8466 113.365 15.6776 112.565 15.6776 111.636C15.6776 110.705 15.848 109.905 16.1889 109.237C16.5298 108.567 16.9957 108.053 17.5866 107.695C18.1776 107.334 18.8494 107.153 19.6023 107.153C20.0653 107.153 20.4972 107.22 20.8977 107.354C21.3011 107.484 21.6634 107.678 21.9844 107.933C22.3054 108.186 22.571 108.496 22.7812 108.862C22.9915 109.226 23.1335 109.642 23.2074 110.111ZM27.4379 116.132C26.8242 116.132 26.2887 115.991 25.8313 115.71C25.3739 115.429 25.0188 115.036 24.766 114.53C24.5131 114.024 24.3867 113.433 24.3867 112.757C24.3867 112.078 24.5131 111.484 24.766 110.976C25.0188 110.467 25.3739 110.072 25.8313 109.791C26.2887 109.51 26.8242 109.369 27.4379 109.369C28.0515 109.369 28.587 109.51 29.0444 109.791C29.5018 110.072 29.8569 110.467 30.1097 110.976C30.3626 111.484 30.489 112.078 30.489 112.757C30.489 113.433 30.3626 114.024 30.1097 114.53C29.8569 115.036 29.5018 115.429 29.0444 115.71C28.587 115.991 28.0515 116.132 27.4379 116.132ZM27.4421 115.062C27.8398 115.062 28.1694 114.957 28.4308 114.747C28.6921 114.537 28.8853 114.257 29.0103 113.908C29.1381 113.558 29.2021 113.173 29.2021 112.753C29.2021 112.335 29.1381 111.952 29.0103 111.602C28.8853 111.25 28.6921 110.967 28.4308 110.754C28.1694 110.541 27.8398 110.435 27.4421 110.435C27.0415 110.435 26.7092 110.541 26.445 110.754C26.1836 110.967 25.989 111.25 25.8612 111.602C25.7362 111.952 25.6737 112.335 25.6737 112.753C25.6737 113.173 25.7362 113.558 25.8612 113.908C25.989 114.257 26.1836 114.537 26.445 114.747C26.7092 114.957 27.0415 115.062 27.4421 115.062ZM31.9112 116V109.455H33.1342V110.52H33.2152C33.3516 110.159 33.5746 109.878 33.8842 109.676C34.1939 109.472 34.5646 109.369 34.9964 109.369C35.4339 109.369 35.8004 109.472 36.0959 109.676C36.3942 109.881 36.6143 110.162 36.7564 110.52H36.8246C36.9808 110.17 37.2294 109.892 37.5703 109.685C37.9112 109.474 38.3175 109.369 38.7891 109.369C39.3828 109.369 39.8672 109.555 40.2422 109.928C40.62 110.3 40.8089 110.861 40.8089 111.611V116H39.5348V111.73C39.5348 111.287 39.4141 110.966 39.1726 110.767C38.9311 110.568 38.6428 110.469 38.3075 110.469C37.8928 110.469 37.5703 110.597 37.3402 110.852C37.1101 111.105 36.995 111.43 36.995 111.828V116H35.7251V111.649C35.7251 111.294 35.6143 111.009 35.3928 110.793C35.1712 110.577 34.8828 110.469 34.5277 110.469C34.2862 110.469 34.0632 110.533 33.8587 110.661C33.657 110.786 33.4936 110.96 33.3686 111.185C33.2464 111.409 33.1854 111.669 33.1854 111.964V116H31.9112ZM42.5167 118.455V109.455H43.761V110.516H43.8675C43.9414 110.379 44.0479 110.222 44.1871 110.043C44.3263 109.864 44.5195 109.707 44.7667 109.574C45.0138 109.438 45.3406 109.369 45.7468 109.369C46.2752 109.369 46.7468 109.503 47.1616 109.77C47.5763 110.037 47.9016 110.422 48.1374 110.925C48.3761 111.428 48.4954 112.033 48.4954 112.74C48.4954 113.447 48.3775 114.054 48.1417 114.56C47.9059 115.062 47.582 115.45 47.1701 115.723C46.7582 115.993 46.288 116.128 45.7596 116.128C45.3619 116.128 45.0366 116.061 44.7837 115.928C44.5337 115.794 44.3377 115.638 44.1957 115.459C44.0536 115.28 43.9442 115.121 43.8675 114.982H43.7908V118.455H42.5167ZM43.7653 112.727C43.7653 113.187 43.832 113.591 43.9656 113.938C44.0991 114.284 44.2923 114.555 44.5451 114.751C44.7979 114.945 45.1076 115.041 45.4741 115.041C45.8548 115.041 46.1729 114.94 46.4286 114.739C46.6843 114.534 46.8775 114.257 47.0082 113.908C47.1417 113.558 47.2085 113.165 47.2085 112.727C47.2085 112.295 47.1431 111.908 47.0124 111.564C46.8846 111.22 46.6914 110.949 46.4329 110.75C46.1772 110.551 45.8576 110.452 45.4741 110.452C45.1048 110.452 44.7923 110.547 44.5366 110.737C44.2837 110.928 44.092 111.193 43.9613 111.534C43.8306 111.875 43.7653 112.273 43.7653 112.727ZM51.8278 116.145C51.413 116.145 51.038 116.068 50.7028 115.915C50.3675 115.759 50.1019 115.533 49.9059 115.237C49.7127 114.942 49.6161 114.58 49.6161 114.151C49.6161 113.781 49.6871 113.477 49.8292 113.239C49.9712 113 50.163 112.811 50.4045 112.672C50.646 112.533 50.9158 112.428 51.2141 112.357C51.5124 112.286 51.8164 112.232 52.1261 112.195C52.5181 112.149 52.8363 112.112 53.0806 112.084C53.3249 112.053 53.5025 112.003 53.6133 111.935C53.7241 111.866 53.7795 111.756 53.7795 111.602V111.572C53.7795 111.2 53.6744 110.912 53.4641 110.707C53.2567 110.503 52.9471 110.401 52.5352 110.401C52.1062 110.401 51.7681 110.496 51.521 110.686C51.2766 110.874 51.1076 111.082 51.0138 111.312L49.8164 111.04C49.9585 110.642 50.1658 110.321 50.4386 110.077C50.7141 109.83 51.0309 109.651 51.3888 109.54C51.7468 109.426 52.1232 109.369 52.5181 109.369C52.7795 109.369 53.0565 109.401 53.3491 109.463C53.6445 109.523 53.9201 109.634 54.1758 109.795C54.4343 109.957 54.646 110.189 54.8107 110.49C54.9755 110.788 55.0579 111.176 55.0579 111.653V116H53.8136V115.105H53.7624C53.68 115.27 53.5565 115.432 53.3917 115.591C53.2269 115.75 53.0153 115.882 52.7567 115.987C52.4982 116.092 52.1886 116.145 51.8278 116.145ZM52.1048 115.122C52.457 115.122 52.7582 115.053 53.0082 114.913C53.261 114.774 53.4528 114.592 53.5835 114.368C53.717 114.141 53.7837 113.898 53.7837 113.639V112.795C53.7383 112.841 53.6502 112.884 53.5195 112.923C53.3917 112.96 53.2454 112.993 53.0806 113.021C52.9158 113.047 52.7553 113.071 52.5991 113.094C52.4428 113.114 52.3121 113.131 52.207 113.145C51.9599 113.176 51.734 113.229 51.5295 113.303C51.3278 113.376 51.1658 113.483 51.0437 113.622C50.9244 113.759 50.8647 113.94 50.8647 114.168C50.8647 114.483 50.9812 114.722 51.2141 114.884C51.4471 115.043 51.744 115.122 52.1048 115.122ZM58.0291 112.114V116H56.755V109.455H57.978V110.52H58.0589C58.2095 110.173 58.4453 109.895 58.7663 109.685C59.0902 109.474 59.4979 109.369 59.9893 109.369C60.4354 109.369 60.826 109.463 61.1612 109.651C61.4964 109.835 61.7564 110.111 61.9411 110.477C62.1257 110.844 62.218 111.297 62.218 111.837V116H60.9439V111.99C60.9439 111.516 60.8203 111.145 60.5732 110.878C60.326 110.608 59.9865 110.473 59.5547 110.473C59.2592 110.473 58.9964 110.537 58.7663 110.665C58.5391 110.793 58.3587 110.98 58.2251 111.227C58.0945 111.472 58.0291 111.767 58.0291 112.114ZM64.4979 118.455C64.3075 118.455 64.1342 118.439 63.978 118.408C63.8217 118.379 63.7053 118.348 63.6286 118.314L63.9354 117.27C64.1683 117.332 64.3757 117.359 64.5575 117.351C64.7393 117.342 64.8999 117.274 65.0391 117.146C65.1811 117.018 65.3061 116.81 65.4141 116.52L65.5717 116.085L63.1768 109.455H64.5405L66.1982 114.534H66.2663L67.924 109.455H69.2919L66.5945 116.874C66.4695 117.214 66.3104 117.503 66.1172 117.739C65.924 117.977 65.6939 118.156 65.4268 118.276C65.1598 118.395 64.8501 118.455 64.4979 118.455Z" fill="white"/>
</g>
<g filter="url(#filter1_b_1_158)">
<rect x="35" y="8" width="67" height="29" rx="14.5" fill="#0B0B0B"/>
<rect x="35.5" y="8.5" width="66" height="28" rx="14" stroke="#DFE1E7" stroke-opacity="0.1"/>
<path d="M49.799 26V18.7273H52.3913C52.9571 18.7273 53.4259 18.8303 53.7976 19.0362C54.1693 19.2422 54.4474 19.5239 54.6321 19.8814C54.8168 20.2365 54.9091 20.6366 54.9091 21.0817C54.9091 21.5291 54.8156 21.9316 54.6286 22.2891C54.4439 22.6442 54.1645 22.9259 53.7905 23.1342C53.4188 23.3402 52.9512 23.4432 52.3878 23.4432H50.6051V22.5128H52.2884C52.6458 22.5128 52.9358 22.4512 53.1584 22.3281C53.3809 22.2027 53.5443 22.0322 53.6484 21.8168C53.7526 21.6013 53.8047 21.3563 53.8047 21.0817C53.8047 20.8071 53.7526 20.5632 53.6484 20.3501C53.5443 20.1371 53.3797 19.9702 53.1548 19.8494C52.9323 19.7287 52.6387 19.6683 52.2741 19.6683H50.8963V26H49.799ZM56.1103 26V20.5455H57.1365V21.4119H57.1934C57.2928 21.1184 57.468 20.8875 57.7189 20.7195C57.9722 20.549 58.2587 20.4638 58.5783 20.4638C58.6446 20.4638 58.7227 20.4661 58.8127 20.4709C58.905 20.4756 58.9772 20.4815 59.0293 20.4886V21.5043C58.9867 21.4924 58.9109 21.4794 58.802 21.4652C58.6931 21.4486 58.5842 21.4403 58.4753 21.4403C58.2244 21.4403 58.0007 21.4936 57.8042 21.6001C57.61 21.7043 57.4561 21.8499 57.3425 22.0369C57.2289 22.2216 57.1721 22.4323 57.1721 22.669V26H56.1103ZM62.0504 26.1101C61.5391 26.1101 61.0928 25.9929 60.7116 25.7585C60.3305 25.5241 60.0346 25.1963 59.8239 24.7749C59.6132 24.3535 59.5078 23.861 59.5078 23.2976C59.5078 22.7318 59.6132 22.237 59.8239 21.8132C60.0346 21.3894 60.3305 21.0604 60.7116 20.826C61.0928 20.5916 61.5391 20.4744 62.0504 20.4744C62.5618 20.4744 63.008 20.5916 63.3892 20.826C63.7704 21.0604 64.0663 21.3894 64.277 21.8132C64.4877 22.237 64.593 22.7318 64.593 23.2976C64.593 23.861 64.4877 24.3535 64.277 24.7749C64.0663 25.1963 63.7704 25.5241 63.3892 25.7585C63.008 25.9929 62.5618 26.1101 62.0504 26.1101ZM62.054 25.2188C62.3854 25.2188 62.66 25.1312 62.8778 24.956C63.0956 24.7808 63.2566 24.5476 63.3608 24.2564C63.4673 23.9652 63.5206 23.6444 63.5206 23.294C63.5206 22.946 63.4673 22.6264 63.3608 22.3352C63.2566 22.0417 63.0956 21.8061 62.8778 21.6286C62.66 21.451 62.3854 21.3622 62.054 21.3622C61.7202 21.3622 61.4432 21.451 61.223 21.6286C61.0052 21.8061 60.843 22.0417 60.7365 22.3352C60.6323 22.6264 60.5803 22.946 60.5803 23.294C60.5803 23.6444 60.6323 23.9652 60.7365 24.2564C60.843 24.5476 61.0052 24.7808 61.223 24.956C61.4432 25.1312 61.7202 25.2188 62.054 25.2188ZM70.2589 20.5455L68.2809 26H67.1445L65.163 20.5455H66.3029L67.6843 24.7429H67.7411L69.119 20.5455H70.2589ZM71.2567 26V20.5455H72.3185V26H71.2567ZM71.793 19.7038C71.6083 19.7038 71.4497 19.6423 71.3171 19.5192C71.1869 19.3937 71.1218 19.2446 71.1218 19.0717C71.1218 18.8965 71.1869 18.7474 71.3171 18.6243C71.4497 18.4988 71.6083 18.4361 71.793 18.4361C71.9776 18.4361 72.1351 18.4988 72.2653 18.6243C72.3978 18.7474 72.4641 18.8965 72.4641 19.0717C72.4641 19.2446 72.3978 19.3937 72.2653 19.5192C72.1351 19.6423 71.9776 19.7038 71.793 19.7038ZM75.7889 26.1065C75.3485 26.1065 74.9556 25.9941 74.6099 25.7692C74.2666 25.5419 73.9967 25.2187 73.8002 24.7997C73.6061 24.3783 73.5091 23.8729 73.5091 23.2834C73.5091 22.6939 73.6073 22.1896 73.8038 21.7706C74.0027 21.3516 74.2749 21.0308 74.6206 20.8082C74.9662 20.5857 75.358 20.4744 75.796 20.4744C76.1345 20.4744 76.4068 20.5312 76.6127 20.6449C76.8211 20.7562 76.9821 20.8864 77.0957 21.0355C77.2117 21.1847 77.3017 21.3161 77.3656 21.4297H77.4295V18.7273H78.4913V26H77.4544V25.1513H77.3656C77.3017 25.2673 77.2093 25.3999 77.0886 25.549C76.9702 25.6982 76.8069 25.8284 76.5985 25.9396C76.3902 26.0509 76.1203 26.1065 75.7889 26.1065ZM76.0233 25.201C76.3287 25.201 76.5867 25.1205 76.7974 24.9595C77.0105 24.7962 77.1715 24.5701 77.2804 24.2812C77.3916 23.9924 77.4473 23.6562 77.4473 23.2727C77.4473 22.8939 77.3928 22.5625 77.2839 22.2784C77.175 21.9943 77.0152 21.773 76.8045 21.6143C76.5938 21.4557 76.3334 21.3764 76.0233 21.3764C75.7037 21.3764 75.4373 21.4593 75.2243 21.625C75.0112 21.7907 74.8502 22.0168 74.7413 22.3033C74.6348 22.5897 74.5815 22.9129 74.5815 23.2727C74.5815 23.6373 74.6359 23.9652 74.7449 24.2564C74.8538 24.5476 75.0147 24.7784 75.2278 24.9489C75.4432 25.117 75.7084 25.201 76.0233 25.201ZM82.3576 26.1101C81.8202 26.1101 81.3574 25.9953 80.9691 25.7656C80.5832 25.5336 80.2849 25.2081 80.0742 24.7891C79.8659 24.3677 79.7617 23.8741 79.7617 23.3082C79.7617 22.7495 79.8659 22.2571 80.0742 21.831C80.2849 21.4048 80.5785 21.0722 80.9549 20.8331C81.3337 20.594 81.7764 20.4744 82.283 20.4744C82.5908 20.4744 82.8891 20.5253 83.1779 20.6271C83.4667 20.7289 83.726 20.8887 83.9556 21.1065C84.1853 21.3243 84.3664 21.6072 84.4989 21.9553C84.6315 22.3009 84.6978 22.7211 84.6978 23.2159V23.5923H80.3619V22.7969H83.6573C83.6573 22.5175 83.6005 22.2701 83.4869 22.0547C83.3732 21.8369 83.2134 21.6652 83.0075 21.5398C82.8039 21.4143 82.5647 21.3516 82.2901 21.3516C81.9918 21.3516 81.7314 21.425 81.5089 21.5717C81.2887 21.7161 81.1183 21.9055 80.9975 22.1399C80.8791 22.3719 80.82 22.6241 80.82 22.8963V23.5178C80.82 23.8823 80.8839 24.1925 81.0117 24.4482C81.1419 24.7038 81.323 24.8991 81.555 25.0341C81.7871 25.1667 82.0581 25.233 82.3683 25.233C82.5695 25.233 82.753 25.2045 82.9187 25.1477C83.0844 25.0885 83.2276 25.0009 83.3484 24.8849C83.4691 24.7689 83.5614 24.6257 83.6254 24.4553L84.6303 24.6364C84.5498 24.9323 84.4054 25.1915 84.1971 25.4141C83.9911 25.6342 83.7319 25.8059 83.4194 25.929C83.1093 26.0497 82.7553 26.1101 82.3576 26.1101ZM85.8759 26V20.5455H86.9022V21.4119H86.959C87.0584 21.1184 87.2336 20.8875 87.4846 20.7195C87.7379 20.549 88.0243 20.4638 88.3439 20.4638C88.4102 20.4638 88.4883 20.4661 88.5783 20.4709C88.6706 20.4756 88.7428 20.4815 88.7949 20.4886V21.5043C88.7523 21.4924 88.6766 21.4794 88.5676 21.4652C88.4587 21.4486 88.3498 21.4403 88.2409 21.4403C87.99 21.4403 87.7663 21.4936 87.5698 21.6001C87.3757 21.7043 87.2218 21.8499 87.1081 22.0369C86.9945 22.2216 86.9377 22.4323 86.9377 22.669V26H85.8759Z" fill="white"/>
</g>
<g filter="url(#filter2_i_1_158)">
<rect x="228" width="98" height="28" rx="14" fill="#0B0B0B"/>
<rect x="228.5" y="0.5" width="97" height="27" rx="13.5" stroke="white" stroke-opacity="0.1"/>
<path d="M256.766 11.6378C256.728 11.3016 256.571 11.0412 256.297 10.8565C256.022 10.6695 255.677 10.576 255.26 10.576C254.962 10.576 254.704 10.6233 254.486 10.718C254.268 10.8104 254.099 10.9382 253.978 11.1016C253.86 11.2625 253.8 11.446 253.8 11.652C253.8 11.8248 253.841 11.974 253.921 12.0994C254.004 12.2249 254.112 12.3303 254.244 12.4155C254.379 12.4983 254.524 12.5682 254.678 12.625C254.831 12.6795 254.979 12.7244 255.121 12.7599L255.832 12.9446C256.064 13.0014 256.302 13.0784 256.545 13.1754C256.789 13.2725 257.015 13.4003 257.224 13.5589C257.432 13.7176 257.6 13.9141 257.728 14.1484C257.858 14.3828 257.923 14.6634 257.923 14.9901C257.923 15.402 257.817 15.7678 257.604 16.0874C257.393 16.407 257.086 16.6591 256.684 16.8438C256.284 17.0284 255.8 17.1207 255.232 17.1207C254.687 17.1207 254.216 17.0343 253.818 16.8615C253.42 16.6887 253.109 16.4437 252.884 16.1264C252.659 15.8068 252.535 15.428 252.511 14.9901H253.612C253.634 15.2528 253.719 15.4718 253.868 15.647C254.019 15.8198 254.212 15.9489 254.447 16.0341C254.683 16.117 254.943 16.1584 255.224 16.1584C255.535 16.1584 255.81 16.1098 256.052 16.0128C256.296 15.9134 256.487 15.776 256.627 15.6009C256.767 15.4233 256.837 15.2161 256.837 14.9794C256.837 14.764 256.775 14.5876 256.652 14.4503C256.531 14.313 256.367 14.1993 256.158 14.1094C255.952 14.0194 255.719 13.9401 255.459 13.8714L254.599 13.6371C254.017 13.4785 253.555 13.2453 253.214 12.9375C252.876 12.6297 252.707 12.2225 252.707 11.7159C252.707 11.2969 252.82 10.9311 253.048 10.6186C253.275 10.3061 253.583 10.0634 253.971 9.89062C254.359 9.71544 254.797 9.62784 255.285 9.62784C255.777 9.62784 256.212 9.71425 256.588 9.88707C256.967 10.0599 257.265 10.2978 257.483 10.6009C257.701 10.9015 257.814 11.2472 257.824 11.6378H256.766ZM261.695 11.5455V12.3977H258.716V11.5455H261.695ZM259.515 10.2386H260.577V15.3984C260.577 15.6044 260.608 15.7595 260.669 15.8636C260.731 15.9654 260.81 16.0353 260.907 16.0732C261.007 16.1087 261.114 16.1264 261.23 16.1264C261.316 16.1264 261.39 16.1205 261.454 16.1087C261.518 16.0968 261.568 16.0874 261.603 16.0803L261.795 16.9574C261.733 16.9811 261.646 17.0047 261.532 17.0284C261.419 17.0545 261.276 17.0687 261.106 17.071C260.827 17.0758 260.566 17.026 260.325 16.9219C260.083 16.8177 259.888 16.6567 259.739 16.4389C259.59 16.2211 259.515 15.9477 259.515 15.6186V10.2386ZM265.109 17.1101C264.598 17.1101 264.151 16.9929 263.77 16.7585C263.389 16.5241 263.093 16.1963 262.882 15.7749C262.672 15.3535 262.566 14.861 262.566 14.2976C262.566 13.7318 262.672 13.237 262.882 12.8132C263.093 12.3894 263.389 12.0604 263.77 11.826C264.151 11.5916 264.598 11.4744 265.109 11.4744C265.62 11.4744 266.067 11.5916 266.448 11.826C266.829 12.0604 267.125 12.3894 267.336 12.8132C267.546 13.237 267.652 13.7318 267.652 14.2976C267.652 14.861 267.546 15.3535 267.336 15.7749C267.125 16.1963 266.829 16.5241 266.448 16.7585C266.067 16.9929 265.62 17.1101 265.109 17.1101ZM265.113 16.2188C265.444 16.2188 265.719 16.1312 265.936 15.956C266.154 15.7808 266.315 15.5476 266.419 15.2564C266.526 14.9652 266.579 14.6444 266.579 14.294C266.579 13.946 266.526 13.6264 266.419 13.3352C266.315 13.0417 266.154 12.8061 265.936 12.6286C265.719 12.451 265.444 12.3622 265.113 12.3622C264.779 12.3622 264.502 12.451 264.282 12.6286C264.064 12.8061 263.902 13.0417 263.795 13.3352C263.691 13.6264 263.639 13.946 263.639 14.294C263.639 14.6444 263.691 14.9652 263.795 15.2564C263.902 15.5476 264.064 15.7808 264.282 15.956C264.502 16.1312 264.779 16.2188 265.113 16.2188ZM268.837 17V11.5455H269.863V12.4119H269.92C270.019 12.1184 270.195 11.8875 270.445 11.7195C270.699 11.549 270.985 11.4638 271.305 11.4638C271.371 11.4638 271.449 11.4661 271.539 11.4709C271.632 11.4756 271.704 11.4815 271.756 11.4886V12.5043C271.713 12.4924 271.637 12.4794 271.529 12.4652C271.42 12.4486 271.311 12.4403 271.202 12.4403C270.951 12.4403 270.727 12.4936 270.531 12.6001C270.337 12.7043 270.183 12.8499 270.069 13.0369C269.955 13.2216 269.899 13.4323 269.899 13.669V17H268.837ZM274.83 17.1101C274.293 17.1101 273.83 16.9953 273.442 16.7656C273.056 16.5336 272.758 16.2081 272.547 15.7891C272.339 15.3677 272.234 14.8741 272.234 14.3082C272.234 13.7495 272.339 13.2571 272.547 12.831C272.758 12.4048 273.051 12.0722 273.428 11.8331C273.806 11.594 274.249 11.4744 274.756 11.4744C275.063 11.4744 275.362 11.5253 275.651 11.6271C275.939 11.7289 276.199 11.8887 276.428 12.1065C276.658 12.3243 276.839 12.6072 276.972 12.9553C277.104 13.3009 277.17 13.7211 277.17 14.2159V14.5923H272.835V13.7969H276.13C276.13 13.5175 276.073 13.2701 275.96 13.0547C275.846 12.8369 275.686 12.6652 275.48 12.5398C275.277 12.4143 275.037 12.3516 274.763 12.3516C274.464 12.3516 274.204 12.425 273.982 12.5717C273.761 12.7161 273.591 12.9055 273.47 13.1399C273.352 13.3719 273.293 13.6241 273.293 13.8963V14.5178C273.293 14.8823 273.357 15.1925 273.484 15.4482C273.615 15.7038 273.796 15.8991 274.028 16.0341C274.26 16.1667 274.531 16.233 274.841 16.233C275.042 16.233 275.226 16.2045 275.391 16.1477C275.557 16.0885 275.7 16.0009 275.821 15.8849C275.942 15.7689 276.034 15.6257 276.098 15.4553L277.103 15.6364C277.022 15.9323 276.878 16.1915 276.67 16.4141C276.464 16.6342 276.205 16.8059 275.892 16.929C275.582 17.0497 275.228 17.1101 274.83 17.1101ZM280.944 11.5455V12.3977H277.862V11.5455H280.944ZM278.707 17V10.9134C278.707 10.5724 278.782 10.2895 278.931 10.0646C279.08 9.83736 279.278 9.66809 279.524 9.55682C279.77 9.44318 280.038 9.38636 280.327 9.38636C280.54 9.38636 280.722 9.40412 280.873 9.43963C281.025 9.47277 281.137 9.50355 281.211 9.53196L280.962 10.3913C280.912 10.3771 280.849 10.3606 280.77 10.3416C280.692 10.3203 280.598 10.3097 280.486 10.3097C280.228 10.3097 280.044 10.3736 279.932 10.5014C279.823 10.6293 279.769 10.8139 279.769 11.0554V17H278.707ZM282.04 17V11.5455H283.066V12.4119H283.123C283.222 12.1184 283.398 11.8875 283.649 11.7195C283.902 11.549 284.188 11.4638 284.508 11.4638C284.574 11.4638 284.652 11.4661 284.742 11.4709C284.835 11.4756 284.907 11.4815 284.959 11.4886V12.5043C284.916 12.4924 284.841 12.4794 284.732 12.4652C284.623 12.4486 284.514 12.4403 284.405 12.4403C284.154 12.4403 283.93 12.4936 283.734 12.6001C283.54 12.7043 283.386 12.8499 283.272 13.0369C283.159 13.2216 283.102 13.4323 283.102 13.669V17H282.04ZM287.98 17.1101C287.469 17.1101 287.022 16.9929 286.641 16.7585C286.26 16.5241 285.964 16.1963 285.754 15.7749C285.543 15.3535 285.438 14.861 285.438 14.2976C285.438 13.7318 285.543 13.237 285.754 12.8132C285.964 12.3894 286.26 12.0604 286.641 11.826C287.022 11.5916 287.469 11.4744 287.98 11.4744C288.491 11.4744 288.938 11.5916 289.319 11.826C289.7 12.0604 289.996 12.3894 290.207 12.8132C290.417 13.237 290.523 13.7318 290.523 14.2976C290.523 14.861 290.417 15.3535 290.207 15.7749C289.996 16.1963 289.7 16.5241 289.319 16.7585C288.938 16.9929 288.491 17.1101 287.98 17.1101ZM287.984 16.2188C288.315 16.2188 288.59 16.1312 288.808 15.956C289.025 15.7808 289.186 15.5476 289.29 15.2564C289.397 14.9652 289.45 14.6444 289.45 14.294C289.45 13.946 289.397 13.6264 289.29 13.3352C289.186 13.0417 289.025 12.8061 288.808 12.6286C288.59 12.451 288.315 12.3622 287.984 12.3622C287.65 12.3622 287.373 12.451 287.153 12.6286C286.935 12.8061 286.773 13.0417 286.666 13.3352C286.562 13.6264 286.51 13.946 286.51 14.294C286.51 14.6444 286.562 14.9652 286.666 15.2564C286.773 15.5476 286.935 15.7808 287.153 15.956C287.373 16.1312 287.65 16.2188 287.984 16.2188ZM292.77 13.7614V17H291.708V11.5455H292.727V12.4332H292.795C292.92 12.1444 293.117 11.9124 293.384 11.7372C293.654 11.562 293.994 11.4744 294.403 11.4744C294.775 11.4744 295.1 11.5526 295.38 11.7088C295.659 11.8627 295.876 12.0923 296.03 12.3977C296.184 12.7031 296.26 13.0807 296.26 13.5305V17H295.199V13.6584C295.199 13.263 295.096 12.9541 294.89 12.7315C294.684 12.5066 294.401 12.3942 294.041 12.3942C293.795 12.3942 293.576 12.4474 293.384 12.554C293.195 12.6605 293.044 12.8168 292.933 13.0227C292.824 13.2263 292.77 13.4725 292.77 13.7614ZM300.231 11.5455V12.3977H297.251V11.5455H300.231ZM298.05 10.2386H299.112V15.3984C299.112 15.6044 299.143 15.7595 299.204 15.8636C299.266 15.9654 299.345 16.0353 299.442 16.0732C299.542 16.1087 299.649 16.1264 299.765 16.1264C299.851 16.1264 299.925 16.1205 299.989 16.1087C300.053 16.0968 300.103 16.0874 300.138 16.0803L300.33 16.9574C300.269 16.9811 300.181 17.0047 300.067 17.0284C299.954 17.0545 299.812 17.0687 299.641 17.071C299.362 17.0758 299.101 17.026 298.86 16.9219C298.618 16.8177 298.423 16.6567 298.274 16.4389C298.125 16.2211 298.05 15.9477 298.05 15.6186V10.2386Z" fill="white"/>
</g>
<g filter="url(#filter3_i_1_158)">
<rect x="231" y="97" width="87" height="27" rx="13.5" fill="#0B0B0B"/>
<rect x="231.5" y="97.5" width="86" height="26" rx="13" stroke="white" stroke-opacity="0.1"/>
<path d="M257.839 109.092H256.732C256.689 108.856 256.61 108.647 256.494 108.467C256.378 108.287 256.236 108.135 256.067 108.009C255.899 107.884 255.711 107.789 255.503 107.725C255.297 107.661 255.078 107.629 254.846 107.629C254.427 107.629 254.052 107.735 253.72 107.945C253.391 108.156 253.131 108.465 252.939 108.872C252.75 109.279 252.655 109.777 252.655 110.364C252.655 110.955 252.75 111.455 252.939 111.862C253.131 112.269 253.392 112.577 253.724 112.786C254.055 112.994 254.428 113.098 254.842 113.098C255.072 113.098 255.29 113.067 255.496 113.006C255.704 112.942 255.892 112.848 256.06 112.725C256.228 112.602 256.371 112.452 256.487 112.274C256.605 112.094 256.687 111.888 256.732 111.656L257.839 111.66C257.78 112.017 257.665 112.346 257.495 112.647C257.327 112.945 257.11 113.203 256.845 113.421C256.582 113.637 256.282 113.804 255.943 113.922C255.605 114.04 255.235 114.099 254.835 114.099C254.205 114.099 253.644 113.95 253.152 113.652C252.66 113.351 252.271 112.922 251.987 112.363C251.705 111.804 251.565 111.138 251.565 110.364C251.565 109.587 251.707 108.921 251.991 108.364C252.275 107.806 252.663 107.377 253.156 107.079C253.648 106.778 254.208 106.628 254.835 106.628C255.221 106.628 255.581 106.683 255.915 106.795C256.251 106.904 256.553 107.065 256.82 107.278C257.088 107.488 257.309 107.746 257.484 108.052C257.66 108.355 257.778 108.702 257.839 109.092ZM262.523 111.738V108.545H263.588V114H262.544V113.055H262.487C262.362 113.347 262.16 113.589 261.883 113.783C261.609 113.975 261.267 114.071 260.857 114.071C260.507 114.071 260.197 113.994 259.927 113.84C259.659 113.684 259.448 113.453 259.295 113.148C259.143 112.842 259.067 112.465 259.067 112.015V108.545H260.129V111.887C260.129 112.259 260.232 112.555 260.438 112.775C260.644 112.995 260.912 113.105 261.241 113.105C261.439 113.105 261.637 113.055 261.834 112.956C262.032 112.857 262.197 112.706 262.327 112.505C262.46 112.304 262.525 112.048 262.523 111.738ZM269.102 109.877L268.14 110.048C268.099 109.924 268.035 109.807 267.948 109.696C267.863 109.585 267.747 109.494 267.6 109.423C267.453 109.352 267.27 109.316 267.049 109.316C266.749 109.316 266.498 109.384 266.297 109.518C266.095 109.651 265.995 109.823 265.995 110.033C265.995 110.216 266.062 110.362 266.197 110.474C266.332 110.585 266.55 110.676 266.85 110.747L267.717 110.946C268.219 111.062 268.593 111.241 268.839 111.482C269.085 111.724 269.208 112.037 269.208 112.423C269.208 112.75 269.114 113.041 268.924 113.297C268.737 113.55 268.476 113.749 268.14 113.893C267.806 114.038 267.419 114.11 266.978 114.11C266.368 114.11 265.869 113.98 265.483 113.719C265.097 113.457 264.861 113.084 264.773 112.601L265.799 112.445C265.863 112.712 265.995 112.915 266.194 113.052C266.392 113.187 266.652 113.254 266.971 113.254C267.319 113.254 267.597 113.182 267.806 113.038C268.014 112.891 268.118 112.712 268.118 112.501C268.118 112.331 268.054 112.188 267.926 112.072C267.801 111.956 267.608 111.868 267.348 111.809L266.424 111.607C265.915 111.491 265.539 111.306 265.295 111.053C265.054 110.799 264.933 110.478 264.933 110.09C264.933 109.768 265.023 109.487 265.203 109.245C265.383 109.004 265.631 108.815 265.949 108.68C266.266 108.543 266.629 108.474 267.039 108.474C267.628 108.474 268.092 108.602 268.431 108.858C268.769 109.111 268.993 109.451 269.102 109.877ZM272.922 108.545V109.398H269.943V108.545H272.922ZM270.742 107.239H271.803V112.398C271.803 112.604 271.834 112.759 271.896 112.864C271.957 112.965 272.037 113.035 272.134 113.073C272.233 113.109 272.341 113.126 272.457 113.126C272.542 113.126 272.617 113.121 272.681 113.109C272.744 113.097 272.794 113.087 272.83 113.08L273.021 113.957C272.96 113.981 272.872 114.005 272.759 114.028C272.645 114.054 272.503 114.069 272.333 114.071C272.053 114.076 271.793 114.026 271.551 113.922C271.31 113.818 271.115 113.657 270.965 113.439C270.816 113.221 270.742 112.948 270.742 112.619V107.239ZM276.336 114.11C275.824 114.11 275.378 113.993 274.997 113.759C274.616 113.524 274.32 113.196 274.109 112.775C273.898 112.353 273.793 111.861 273.793 111.298C273.793 110.732 273.898 110.237 274.109 109.813C274.32 109.389 274.616 109.06 274.997 108.826C275.378 108.592 275.824 108.474 276.336 108.474C276.847 108.474 277.293 108.592 277.674 108.826C278.056 109.06 278.351 109.389 278.562 109.813C278.773 110.237 278.878 110.732 278.878 111.298C278.878 111.861 278.773 112.353 278.562 112.775C278.351 113.196 278.056 113.524 277.674 113.759C277.293 113.993 276.847 114.11 276.336 114.11ZM276.339 113.219C276.671 113.219 276.945 113.131 277.163 112.956C277.381 112.781 277.542 112.548 277.646 112.256C277.752 111.965 277.806 111.644 277.806 111.294C277.806 110.946 277.752 110.626 277.646 110.335C277.542 110.042 277.381 109.806 277.163 109.629C276.945 109.451 276.671 109.362 276.339 109.362C276.005 109.362 275.728 109.451 275.508 109.629C275.29 109.806 275.128 110.042 275.022 110.335C274.917 110.626 274.865 110.946 274.865 111.294C274.865 111.644 274.917 111.965 275.022 112.256C275.128 112.548 275.29 112.781 275.508 112.956C275.728 113.131 276.005 113.219 276.339 113.219ZM280.063 114V108.545H281.083V109.433H281.15C281.264 109.133 281.45 108.898 281.708 108.73C281.966 108.56 282.275 108.474 282.634 108.474C282.999 108.474 283.304 108.56 283.551 108.73C283.799 108.901 283.983 109.135 284.101 109.433H284.158C284.288 109.142 284.495 108.91 284.779 108.737C285.063 108.562 285.402 108.474 285.795 108.474C286.29 108.474 286.693 108.629 287.006 108.94C287.321 109.25 287.478 109.717 287.478 110.342V114H286.416V110.442C286.416 110.072 286.316 109.805 286.115 109.639C285.913 109.473 285.673 109.391 285.394 109.391C285.048 109.391 284.779 109.497 284.588 109.71C284.396 109.921 284.3 110.192 284.3 110.523V114H283.242V110.374C283.242 110.078 283.149 109.84 282.965 109.661C282.78 109.481 282.54 109.391 282.244 109.391C282.043 109.391 281.857 109.444 281.686 109.55C281.518 109.655 281.382 109.8 281.278 109.987C281.176 110.174 281.125 110.391 281.125 110.637V114H280.063ZM291.252 114.11C290.715 114.11 290.252 113.995 289.864 113.766C289.478 113.534 289.179 113.208 288.969 112.789C288.76 112.368 288.656 111.874 288.656 111.308C288.656 110.75 288.76 110.257 288.969 109.831C289.179 109.405 289.473 109.072 289.849 108.833C290.228 108.594 290.671 108.474 291.178 108.474C291.485 108.474 291.784 108.525 292.072 108.627C292.361 108.729 292.621 108.889 292.85 109.107C293.08 109.324 293.261 109.607 293.393 109.955C293.526 110.301 293.592 110.721 293.592 111.216V111.592H289.256V110.797H292.552C292.552 110.518 292.495 110.27 292.381 110.055C292.268 109.837 292.108 109.665 291.902 109.54C291.698 109.414 291.459 109.352 291.185 109.352C290.886 109.352 290.626 109.425 290.403 109.572C290.183 109.716 290.013 109.906 289.892 110.14C289.774 110.372 289.714 110.624 289.714 110.896V111.518C289.714 111.882 289.778 112.192 289.906 112.448C290.036 112.704 290.218 112.899 290.45 113.034C290.682 113.167 290.953 113.233 291.263 113.233C291.464 113.233 291.647 113.205 291.813 113.148C291.979 113.089 292.122 113.001 292.243 112.885C292.364 112.769 292.456 112.626 292.52 112.455L293.525 112.636C293.444 112.932 293.3 113.192 293.092 113.414C292.886 113.634 292.626 113.806 292.314 113.929C292.004 114.05 291.65 114.11 291.252 114.11ZM294.77 114V108.545H295.797V109.412H295.854C295.953 109.118 296.128 108.888 296.379 108.719C296.632 108.549 296.919 108.464 297.238 108.464C297.305 108.464 297.383 108.466 297.473 108.471C297.565 108.476 297.637 108.482 297.689 108.489V109.504C297.647 109.492 297.571 109.479 297.462 109.465C297.353 109.449 297.244 109.44 297.135 109.44C296.885 109.44 296.661 109.494 296.464 109.6C296.27 109.704 296.116 109.85 296.003 110.037C295.889 110.222 295.832 110.432 295.832 110.669V114H294.77Z" fill="white"/>
</g>
<g clip-path="url(#clip5_1_158)">
<g clip-path="url(#clip6_1_158)">
<path d="M181 65.5C181 49.7599 168.24 37 152.5 37C136.76 37 124 49.7599 124 65.5C124 81.2401 136.76 94 152.5 94C168.24 94 181 81.2401 181 65.5Z" fill="#0B0B0B"/>
<path d="M180.593 65.5C180.593 49.9847 168.015 37.4071 152.5 37.4071C136.985 37.4071 124.407 49.9847 124.407 65.5C124.407 81.0153 136.985 93.5929 152.5 93.5929C168.015 93.5929 180.593 81.0153 180.593 65.5Z" stroke="#DFE1E7" stroke-opacity="0.1"/>
<mask id="mask0_1_158" style="mask-type:alpha" maskUnits="userSpaceOnUse" x="127" y="50" width="48" height="31">
<path d="M128.045 50.0286H127.257V80.4411H128.045V50.0286Z" fill="#010101"/>
<path d="M129.054 50.0286H128.266V80.4411H129.054V50.0286Z" fill="#010101"/>
<path d="M131.457 50.0286H130.273V78.0438H131.457V50.0286Z" fill="#010101"/>
<path d="M132.46 50.0286H131.853V78.0438H132.46V50.0286Z" fill="#010101"/>
<path d="M134.052 50.0286H132.658V78.0438H134.052V50.0286Z" fill="#010101"/>
<path d="M136.053 50.0286H134.665V78.0438H136.053V50.0286Z" fill="#010101"/>
<path d="M137.861 50.0286H136.666V78.0438H137.861V50.0286Z" fill="#010101"/>
<path d="M139.46 50.0286H138.264V78.0438H139.46V50.0286Z" fill="#010101"/>
<path d="M141.67 50.0286H139.664V78.0438H141.67V50.0286Z" fill="#010101"/>
<path d="M142.866 50.0286H142.265V78.0438H142.866V50.0286Z" fill="#010101"/>
<path d="M143.863 50.0286H143.263V78.0438H143.863V50.0286Z" fill="#010101"/>
<path d="M146.266 50.0286H145.269V78.0438H146.266V50.0286Z" fill="#010101"/>
<path d="M148.267 50.0286H146.867V78.0438H148.267V50.0286Z" fill="#010101"/>
<path d="M149.667 50.0286H149.265V78.0438H149.667V50.0286Z" fill="#010101"/>
<path d="M150.664 50.0286H150.268V80.4527H150.664V50.0286Z" fill="#010101"/>
<path d="M151.668 50.0286H151.265V80.4527H151.668V50.0286Z" fill="#010101"/>
<path d="M152.671 50.0286H152.07V78.0438H152.671V50.0286Z" fill="#010101"/>
<path d="M153.674 50.0286H153.073V78.0438H153.674V50.0286Z" fill="#010101"/>
<path d="M156.27 50.0286H155.471V78.0438H156.27V50.0286Z" fill="#010101"/>
<path d="M158.27 50.0286H157.477V78.0438H158.27V50.0286Z" fill="#010101"/>
<path d="M159.664 50.0286H158.871V78.0438H159.664V50.0286Z" fill="#010101"/>
<path d="M161.269 50.0286H160.475V78.0438H161.269V50.0286Z" fill="#010101"/>
<path d="M164.272 50.0286H162.476V78.0438H164.272V50.0286Z" fill="#010101"/>
<path d="M165.077 50.0286H164.477V78.0438H165.077V50.0286Z" fill="#010101"/>
<path d="M167.679 50.0286H165.871V78.0438H167.679V50.0286Z" fill="#010101"/>
<path d="M169.073 50.0286H168.268V78.0438H169.073V50.0286Z" fill="#010101"/>
<path d="M171.079 50.0286H169.469V78.0438H171.079V50.0286Z" fill="#010101"/>
<path d="M173.483 50.0286H172.882V80.4294H173.483V50.0286Z" fill="#010101"/>
<path d="M172.596 50.0286H171.995V78.0438H172.596V50.0286Z" fill="#010101"/>
<path d="M174.486 50.0286H173.885V80.4294H174.486V50.0286Z" fill="#010101"/>
</mask>
<g mask="url(#mask0_1_158)">
<path fill-rule="evenodd" clip-rule="evenodd" d="M130.491 62.2872H135.241C136.934 62.2872 138.306 63.6873 138.306 65.3803V72.09H135.948V65.3362C135.948 64.9174 135.609 64.5779 135.19 64.5779H130.491V62.2872ZM138.239 62.2872H143.629V64.5779H138.239V62.2872ZM166.704 62.2872H161.954V64.5779H166.653C167.072 64.5779 167.412 64.9174 167.412 65.3362V72.09H169.77V65.3803C169.77 63.6873 168.397 62.2872 166.704 62.2872ZM169.702 62.2872H175.092V64.5779H169.702V62.2872ZM144.976 62.2872H147.805L153.24 70.0705L158.048 62.2872H160.876L154.757 72.1237H151.671L144.976 62.2872Z" fill="#00AAD0"/>
</g>
</g>
</g>
<defs>
<filter id="filter0_i_1_158" x="0" y="92.2874" width="86" height="32.7126" filterUnits="userSpaceOnUse" color-interpolation-filters="sRGB">
<feFlood flood-opacity="0" result="BackgroundImageFix"/>
<feBlend mode="normal" in="SourceGraphic" in2="BackgroundImageFix" result="shape"/>
<feColorMatrix in="SourceAlpha" type="matrix" values="0 0 0 0 0 0 0 0 0 0 0 0 0 0 0 0 0 0 127 0" result="hardAlpha"/>
<feOffset dy="-5.71264"/>
<feGaussianBlur stdDeviation="22.0345"/>
<feComposite in2="hardAlpha" operator="arithmetic" k2="-1" k3="1"/>
<feColorMatrix type="matrix" values="0 0 0 0 0.756863 0 0 0 0 0.682353 0 0 0 0 0.960784 0 0 0 0.04 0"/>
<feBlend mode="normal" in2="shape" result="effect1_innerShadow_1_158"/>
</filter>
<filter id="filter1_b_1_158" x="30.1034" y="3.10345" width="76.7931" height="38.7931" filterUnits="userSpaceOnUse" color-interpolation-filters="sRGB">
<feFlood flood-opacity="0" result="BackgroundImageFix"/>
<feGaussianBlur in="BackgroundImageFix" stdDeviation="2.44828"/>
<feComposite in2="SourceAlpha" operator="in" result="effect1_backgroundBlur_1_158"/>
<feBlend mode="normal" in="SourceGraphic" in2="effect1_backgroundBlur_1_158" result="shape"/>
</filter>
<filter id="filter2_i_1_158" x="228" y="-5.71264" width="98" height="33.7126" filterUnits="userSpaceOnUse" color-interpolation-filters="sRGB">
<feFlood flood-opacity="0" result="BackgroundImageFix"/>
<feBlend mode="normal" in="SourceGraphic" in2="BackgroundImageFix" result="shape"/>
<feColorMatrix in="SourceAlpha" type="matrix" values="0 0 0 0 0 0 0 0 0 0 0 0 0 0 0 0 0 0 127 0" result="hardAlpha"/>
<feOffset dy="-5.71264"/>
<feGaussianBlur stdDeviation="22.0345"/>
<feComposite in2="hardAlpha" operator="arithmetic" k2="-1" k3="1"/>
<feColorMatrix type="matrix" values="0 0 0 0 0.756863 0 0 0 0 0.682353 0 0 0 0 0.960784 0 0 0 0.04 0"/>
<feBlend mode="normal" in2="shape" result="effect1_innerShadow_1_158"/>
</filter>
<filter id="filter3_i_1_158" x="231" y="91.2874" width="87" height="32.7126" filterUnits="userSpaceOnUse" color-interpolation-filters="sRGB">
<feFlood flood-opacity="0" result="BackgroundImageFix"/>
<feBlend mode="normal" in="SourceGraphic" in2="BackgroundImageFix" result="shape"/>
<feColorMatrix in="SourceAlpha" type="matrix" values="0 0 0 0 0 0 0 0 0 0 0 0 0 0 0 0 0 0 127 0" result="hardAlpha"/>
<feOffset dy="-5.71264"/>
<feGaussianBlur stdDeviation="22.0345"/>
<feComposite in2="hardAlpha" operator="arithmetic" k2="-1" k3="1"/>
<feColorMatrix type="matrix" values="0 0 0 0 0.756863 0 0 0 0 0.682353 0 0 0 0 0.960784 0 0 0 0.04 0"/>
<feBlend mode="normal" in2="shape" result="effect1_innerShadow_1_158"/>
</filter>
<clipPath id="clip0_1_158">
<rect width="98" height="36" fill="white" transform="translate(41 63)"/>
</clipPath>
<clipPath id="clip1_1_158">
<rect width="98" height="36" fill="white" transform="translate(41 63)"/>
</clipPath>
<clipPath id="clip2_1_158">
<rect width="77" height="35" fill="white" transform="translate(62 31)"/>
</clipPath>
<clipPath id="clip3_1_158">
<rect width="123" height="66" fill="white" transform="translate(178 15)"/>
</clipPath>
<clipPath id="clip4_1_158">
<rect width="120" height="52" fill="white" transform="translate(179 58)"/>
</clipPath>
<clipPath id="clip5_1_158">
<rect width="57" height="57" fill="white" transform="translate(124 37)"/>
</clipPath>
<clipPath id="clip6_1_158">
<rect width="57" height="57" fill="white" transform="translate(124 37)"/>
</clipPath>
</defs>
</svg>
