<svg width="310" height="211" viewBox="0 0 310 211" fill="none" xmlns="http://www.w3.org/2000/svg">
<path d="M1.72852 205.584V179.313C1.72852 168.137 10.831 159.035 22.0074 159.035C33.1838 159.035 42.2861 168.137 42.2861 179.313V205.584H1.72852Z" fill="#29EDEA"/>
<path d="M246.86 198.613H187.579L215.577 51.6491L218.631 51.4763L219.092 53.0318L246.86 198.613ZM191.727 195.214H242.712L217.248 61.3852L191.727 195.214Z" fill="#3A3A3A"/>
<path d="M217.248 198.613C216.326 198.613 215.519 197.864 215.519 196.884V68.9899C215.519 68.0681 216.268 67.2616 217.248 67.2616C218.227 67.2616 218.976 68.0105 218.976 68.9899V196.884C218.976 197.864 218.169 198.613 217.248 198.613Z" fill="#3A3A3A"/>
<path d="M229.922 120.551H210.047C209.125 120.551 208.318 119.802 208.318 118.823C208.318 117.843 209.067 117.094 210.047 117.094H229.922C230.844 117.094 231.65 117.843 231.65 118.823C231.65 119.802 230.844 120.551 229.922 120.551Z" fill="#3A3A3A"/>
<path d="M239.024 168.31H206.359C205.437 168.31 204.631 167.561 204.631 166.581C204.631 165.66 205.38 164.853 206.359 164.853H239.024C239.946 164.853 240.752 165.602 240.752 166.581C240.752 167.503 239.946 168.31 239.024 168.31Z" fill="#3A3A3A"/>
<path d="M217.248 70.718C206.993 70.718 198.64 62.3646 198.64 52.11C198.64 41.8554 206.993 33.5019 217.248 33.5019C227.502 33.5019 235.856 41.8554 235.856 52.11C235.856 62.3646 227.502 70.718 217.248 70.718ZM217.248 36.8433C208.837 36.8433 202.039 43.6989 202.039 52.0524C202.039 60.4634 208.894 67.2614 217.248 67.2614C225.659 67.2614 232.457 60.4058 232.457 52.0524C232.457 43.6989 225.659 36.8433 217.248 36.8433Z" fill="#3A3A3A"/>
<path d="M203.421 33.1562L213.445 45.6C214.021 46.349 213.906 47.4436 213.215 48.0197C212.581 48.5381 211.659 48.5381 211.083 48.0197L198.639 37.9955C197.142 36.7857 196.911 34.6541 198.121 33.1562C199.331 31.6584 201.462 31.4279 202.96 32.6377C203.133 32.8106 203.306 32.9834 203.421 33.1562Z" fill="#A16D0E"/>
<path d="M220.877 28.9507L219.149 44.8511C219.034 45.7729 218.227 46.4642 217.248 46.349C216.441 46.2338 215.807 45.6001 215.75 44.8511L214.021 28.9507C213.791 27.0496 215.174 25.3789 217.075 25.1485C218.976 24.918 220.647 26.3007 220.877 28.2018C220.877 28.4322 220.877 28.7203 220.877 28.9507Z" fill="#A16D0E"/>
<path d="M236.144 38.2836L223.7 48.3078C222.951 48.8839 221.857 48.7687 221.28 48.0773C220.762 47.4436 220.762 46.5219 221.28 45.9458L231.305 33.502C232.514 32.0041 234.646 31.7737 236.144 32.9835C237.642 34.1933 237.872 36.3249 236.662 37.8228C236.547 37.938 236.374 38.1108 236.144 38.2836Z" fill="#A16D0E"/>
<path d="M240.407 55.6818L224.507 53.9535C223.585 53.8383 222.894 53.0317 223.009 52.0524C223.124 51.2458 223.758 50.6121 224.507 50.5545L240.407 48.8262C242.309 48.5958 243.979 49.9784 244.21 51.8795C244.44 53.7807 243.057 55.4514 241.156 55.6818C240.868 55.7394 240.638 55.7394 240.407 55.6818Z" fill="#A16D0E"/>
<path d="M231.017 71.0062L220.993 58.5624C220.417 57.8135 220.532 56.7189 221.223 56.1428C221.857 55.6243 222.779 55.6243 223.355 56.1428L235.798 66.167C237.296 67.3768 237.527 69.5083 236.317 71.0062C235.107 72.5041 232.976 72.7345 231.478 71.5247C231.362 71.3519 231.19 71.179 231.017 71.0062Z" fill="#A16D0E"/>
<path d="M213.618 75.2117L215.347 59.3113C215.462 58.3896 216.268 57.6982 217.248 57.8135C218.054 57.9287 218.688 58.5624 218.746 59.3113L220.474 75.2117C220.705 77.1129 219.322 78.7836 217.421 79.014C215.52 79.2444 213.849 77.8618 213.618 75.9607C213.561 75.7302 213.618 75.4422 213.618 75.2117Z" fill="#A16D0E"/>
<path d="M198.294 65.8789L210.738 55.8548C211.487 55.2787 212.581 55.3939 213.157 56.0852C213.676 56.7189 213.676 57.6407 213.157 58.2168L203.133 70.6606C201.923 72.1584 199.792 72.3889 198.294 71.1791C196.796 69.9692 196.566 67.8377 197.775 66.3398C197.948 66.2246 198.121 66.0518 198.294 65.8789Z" fill="#A16D0E"/>
<path d="M194.088 48.4806L209.989 50.209C210.91 50.3242 211.602 51.1307 211.487 52.1101C211.371 52.9166 210.738 53.5503 209.989 53.6079L194.088 55.3362C192.187 55.5667 190.517 54.1841 190.286 52.2829C190.056 50.3818 191.438 48.7111 193.339 48.4806C193.628 48.423 193.858 48.423 194.088 48.4806Z" fill="#A16D0E"/>
<path d="M220.82 52.11C220.82 54.0688 219.207 55.6819 217.248 55.6819C215.289 55.6819 213.676 54.0688 213.676 52.11C213.676 50.1513 215.289 48.5382 217.248 48.5382C219.207 48.5382 220.82 50.0937 220.82 52.11Z" fill="#744E09"/>
<path d="M261.953 146.072H254.176V205.641H261.953V146.072Z" fill="#C2861D"/>
<path d="M230.671 166.754V130.921C230.671 115.712 243.115 103.21 258.381 103.21C273.59 103.21 286.092 115.654 286.092 130.921V166.754H230.671Z" fill="#00A79E"/>
<path d="M260.398 205.583V174.186C260.398 160.82 271.286 149.932 284.652 149.932C298.017 149.932 308.906 160.82 308.906 174.186V205.583H260.398Z" fill="#29EDEA"/>
<path d="M100.069 132.822H48.6228V205.584H100.069V132.822Z" fill="#FF6B19"/>
<path d="M174.616 76.7096L100.126 132.822V205.583H249.106V132.822L174.616 76.7096Z" fill="#FBBE00"/>
<path d="M196.565 151.084H152.609V205.584H196.565V151.084Z" fill="#744E09"/>
<path d="M182.105 98.3711H167.127V120.551H182.105V98.3711Z" fill="#744E09"/>
<path d="M81.8639 156.557H66.8853V178.737H81.8639V156.557Z" fill="#744E09"/>
<path d="M223.527 154.483V202.185H199.965V154.483H223.527ZM226.926 151.084H196.566V205.584H226.926V151.084Z" fill="#744E09"/>
<path d="M149.21 154.483V202.185H125.705V154.483H149.21ZM152.609 151.084H122.248V205.584H152.609V151.084Z" fill="#744E09"/>
<path d="M217.247 192.794C216.614 192.794 216.038 192.449 215.75 191.873L197.084 155.693C196.681 154.829 196.969 153.85 197.833 153.389C198.639 152.928 199.676 153.274 200.137 154.138L218.803 190.317C219.206 191.181 218.918 192.161 218.054 192.622C217.766 192.737 217.536 192.794 217.247 192.794Z" fill="#744E09"/>
<path d="M198.582 204.374C198.294 204.374 198.006 204.316 197.775 204.143C196.969 203.682 196.623 202.646 197.084 201.839L206.417 184.844C206.878 184.037 207.915 183.749 208.721 184.153C209.528 184.614 209.874 185.651 209.413 186.457L200.08 203.452C199.734 204.028 199.158 204.374 198.582 204.374Z" fill="#744E09"/>
<path d="M214.886 174.705C214.598 174.705 214.31 174.647 214.079 174.474C213.273 174.013 212.927 172.976 213.388 172.17L223.354 154.08C223.815 153.274 224.852 152.928 225.659 153.389C226.465 153.85 226.811 154.887 226.35 155.693L216.384 173.783C216.038 174.417 215.462 174.705 214.886 174.705Z" fill="#744E09"/>
<path d="M142.988 192.794C142.354 192.794 141.778 192.448 141.49 191.872L122.824 155.693C122.421 154.829 122.709 153.85 123.573 153.389C124.38 152.985 125.417 153.274 125.878 154.138L144.543 190.317C144.947 191.181 144.659 192.16 143.794 192.621C143.506 192.736 143.276 192.794 142.988 192.794Z" fill="#744E09"/>
<path d="M124.323 204.374C124.035 204.374 123.747 204.316 123.516 204.143C122.71 203.682 122.364 202.645 122.825 201.839L132.158 184.844C132.619 184.037 133.656 183.692 134.462 184.152C135.269 184.613 135.614 185.65 135.153 186.457L125.821 203.452C125.475 204.028 124.899 204.374 124.323 204.374Z" fill="#744E09"/>
<path d="M140.626 174.705C140.338 174.705 140.05 174.647 139.819 174.474C139.013 174.013 138.667 172.976 139.128 172.17L149.095 154.08C149.555 153.274 150.592 152.928 151.399 153.389C152.206 153.85 152.551 154.887 152.09 155.693L142.124 173.783C141.778 174.417 141.202 174.705 140.626 174.705Z" fill="#744E09"/>
<path d="M48.6228 132.822L85.8965 102.922L139.762 103.21L100.126 132.822H48.6228Z" fill="#734D08"/>
<path d="M85.8967 102.922L119.944 76.7096H174.616L139.762 103.21L85.8967 102.922Z" fill="#A16D0E"/>
<path d="M226.926 134.55H122.248C121.327 134.55 120.52 133.801 120.52 132.822C120.52 131.9 121.269 131.094 122.248 131.094H226.926C227.848 131.094 228.654 131.842 228.654 132.822C228.654 133.801 227.848 134.55 226.926 134.55Z" fill="#744E09"/>
<path d="M81.8642 187.379H66.8855C65.9638 187.379 65.1572 186.63 65.1572 185.65C65.1572 184.729 65.9062 183.922 66.8855 183.922H81.8642C82.7859 183.922 83.5925 184.671 83.5925 185.65C83.5925 186.63 82.7859 187.379 81.8642 187.379Z" fill="#744E09"/>
<path d="M59.7418 180.465H1.7283C0.806542 180.465 0 179.716 0 178.737C0 177.758 0.748932 177.009 1.7283 177.009H59.7418C60.6636 177.009 61.4701 177.758 61.4701 178.737C61.4701 179.716 60.6636 180.465 59.7418 180.465Z" fill="#744E09"/>
<path d="M12.5589 178.737H9.15991V205.584H12.5589V178.737Z" fill="#744E09"/>
<path d="M25.406 178.737H22.0071V205.584H25.406V178.737Z" fill="#744E09"/>
<path d="M38.3103 178.737H34.9114V205.584H38.3103V178.737Z" fill="#744E09"/>
<path d="M51.2152 178.737H47.8162V205.584H51.2152V178.737Z" fill="#744E09"/>
<path d="M300.552 179.486C299.63 179.486 298.881 178.737 298.823 177.815C298.708 171.478 296.865 166.754 293.351 163.701C287.878 158.977 280.1 159.956 279.985 159.956C278.948 160.129 278.199 159.438 278.084 158.516C277.969 157.594 278.602 156.73 279.524 156.615C279.927 156.557 288.914 155.405 295.54 161.166C299.803 164.853 302.05 170.441 302.165 177.815C302.28 178.68 301.531 179.428 300.552 179.486Z" fill="#64F6EC"/>
<path d="M277.566 136.682C276.644 136.682 275.895 135.933 275.837 135.011C275.722 127.81 273.59 122.452 269.615 118.996C263.393 113.638 254.464 114.732 254.349 114.732C253.427 114.848 252.563 114.214 252.448 113.292C252.332 112.37 252.966 111.506 253.888 111.391C254.291 111.333 264.373 110.066 271.805 116.461C276.586 120.551 279.063 126.831 279.236 135.011C279.294 135.933 278.545 136.682 277.566 136.682Z" fill="#2CD3B1"/>
</svg>
