<svg width="1432" height="246" viewBox="0 0 1432 246" fill="none" xmlns="http://www.w3.org/2000/svg">
<path d="M743 78L848 78" stroke="#0B92FF" stroke-width="6.03448"/>
<path opacity="0.65" d="M1288.36 230.536L1307.23 218.568L1326.04 230.536L1307.23 242.336L1288.36 230.536Z" fill="#17243A"/>
<path opacity="0.65" d="M1288.36 76.2182L1307.23 64.2503L1326.04 76.2182L1307.23 88.0175L1288.36 76.2182Z" fill="#17243A"/>
<path opacity="0.65" d="M1214.05 184.351L1233.47 172.046L1252.78 184.351L1233.47 196.487L1214.05 184.351Z" fill="#17243A"/>
<path opacity="0.65" d="M1214.05 122.109L1233.47 109.762L1252.78 122.109L1233.47 134.203L1214.05 122.109Z" fill="#17243A"/>
<path opacity="0.65" d="M1282.44 154.22L1307.27 138.459L1331.91 154.22L1307.27 169.685L1282.44 154.22Z" fill="#17243A"/>
<path opacity="0.65" d="M1361.96 184.351L1381.38 172.046L1400.69 184.351L1381.38 196.487L1361.96 184.351Z" fill="#17243A"/>
<path opacity="0.65" d="M1361.96 122.109L1381.38 109.762L1400.69 122.109L1381.38 134.203L1361.96 122.109Z" fill="#17243A"/>
<path d="M1218.14 83.2135V106.644L1237.02 118.696V95.0128L1218.14 83.2135Z" fill="#A0E6F9"/>
<path d="M1377.41 118.696V95.0128L1396.18 83.2135V106.939L1377.41 118.696Z" fill="#111723"/>
<path d="M1288.36 39.3874V62.7753L1307.23 74.8275V51.1446L1288.36 39.3874Z" fill="#A0E6F9"/>
<path d="M1288.36 39.3875L1307.23 27.3774L1326.04 39.3875L1307.23 51.1446L1288.36 39.3875Z" fill="#28B4E5"/>
<path d="M1307.23 74.8275V51.1446L1326.03 39.3874V63.1124L1307.23 74.8275Z" fill="#111723"/>
<path d="M1358.5 142.336V165.766L1377.38 177.776V154.136L1358.5 142.336Z" fill="#A0E6F9"/>
<path d="M1237.02 177.776V154.136L1255.78 142.336V166.061L1237.02 177.776Z" fill="#111723"/>
<path d="M1283.53 108.287V137.575L1307.16 152.619V122.994L1283.53 108.287Z" fill="#A0E6F9"/>
<path d="M1283.53 108.287L1307.16 93.2849L1330.67 108.287L1307.16 122.994L1283.53 108.287Z" fill="#28B4E5"/>
<path d="M1307.16 152.619V122.994L1330.67 108.287V137.954L1307.16 152.619Z" fill="#111723"/>
<path d="M1219.85 143.769L1188.75 124.385L1227.29 100.407L1227.87 101.502L1191.09 124.385L1220.44 142.674L1219.85 143.769Z" fill="#28B4E5"/>
<path d="M1246.68 159.133L1246.1 160.228L1288.6 186.808L1289.18 185.713L1246.68 159.133Z" fill="#28B4E5"/>
<path d="M1367.85 158.968L1325.18 185.733L1325.76 186.827L1368.44 160.062L1367.85 158.968Z" fill="#28B4E5"/>
<path d="M1394.62 143.601L1394.03 142.505L1422.99 124.343L1386.52 101.46L1387.11 100.365L1425.33 124.343L1394.62 143.601Z" fill="#28B4E5"/>
<path d="M1316.31 56.042L1315.72 57.1362L1360.93 85.4633L1361.52 84.3691L1316.31 56.042Z" fill="#28B4E5"/>
<path d="M1297.74 56.5598L1252.32 84.8352L1252.9 85.9312L1298.32 57.6558L1297.74 56.5598Z" fill="#28B4E5"/>
<path d="M1358.5 142.336L1377.38 130.369L1396.14 142.336L1377.38 154.136L1358.5 142.336Z" fill="#28B4E5"/>
<path d="M1377.38 177.776V154.136L1396.14 142.336V166.061L1377.38 177.776Z" fill="#111723"/>
<path d="M1288.36 186.12V209.55L1307.23 221.56V197.92L1288.36 186.12Z" fill="#A0E6F9"/>
<path d="M1288.36 186.12L1307.23 174.152L1326.04 186.12L1307.23 197.92L1288.36 186.12Z" fill="#28B4E5"/>
<path d="M1307.23 221.56V197.92L1326.03 186.12V209.845L1307.23 221.56Z" fill="#111723"/>
<path d="M1218.14 142.336V165.766L1237.02 177.776V154.136L1218.14 142.336Z" fill="#A0E6F9"/>
<path d="M1218.14 142.336L1237.02 130.369L1255.78 142.336L1237.02 154.136L1218.14 142.336Z" fill="#28B4E5"/>
<path d="M1218.06 83.2135L1236.94 71.2456L1255.74 83.2135L1236.94 95.0128L1218.06 83.2135Z" fill="#28B4E5"/>
<path d="M1236.94 118.696V95.0128L1255.74 83.2135V106.939L1236.94 118.696Z" fill="#111723"/>
<path d="M1358.54 83.2135V106.644L1377.41 118.696V95.0128L1358.54 83.2135Z" fill="#A0E6F9"/>
<path d="M1358.54 83.2135L1377.41 71.2456L1396.18 83.2135L1377.41 95.0128L1358.54 83.2135Z" fill="#28B4E5"/>
<path d="M1.72852 224.584V198.313C1.72852 187.137 10.831 178.035 22.0074 178.035C33.1838 178.035 42.2861 187.137 42.2861 198.313V224.584H1.72852Z" fill="#29EDEA"/>
<path d="M246.859 217.613H187.579L215.577 70.6491L218.63 70.4763L219.091 72.0318L246.859 217.613ZM191.727 214.214H242.711L217.248 80.3852L191.727 214.214Z" fill="#3A3A3A"/>
<path d="M217.247 217.613C216.326 217.613 215.519 216.864 215.519 215.884V87.9899C215.519 87.0681 216.268 86.2616 217.247 86.2616C218.227 86.2616 218.976 87.0105 218.976 87.9899V215.884C218.976 216.864 218.169 217.613 217.247 217.613Z" fill="#3A3A3A"/>
<path d="M229.922 139.551H210.046C209.124 139.551 208.318 138.802 208.318 137.823C208.318 136.843 209.067 136.094 210.046 136.094H229.922C230.843 136.094 231.65 136.843 231.65 137.823C231.65 138.802 230.843 139.551 229.922 139.551Z" fill="#3A3A3A"/>
<path d="M239.024 187.31H206.359C205.437 187.31 204.631 186.561 204.631 185.581C204.631 184.66 205.38 183.853 206.359 183.853H239.024C239.946 183.853 240.752 184.602 240.752 185.581C240.752 186.503 239.946 187.31 239.024 187.31Z" fill="#3A3A3A"/>
<path d="M217.248 89.718C206.993 89.718 198.64 81.3646 198.64 71.11C198.64 60.8554 206.993 52.5019 217.248 52.5019C227.502 52.5019 235.856 60.8554 235.856 71.11C235.856 81.3646 227.502 89.718 217.248 89.718ZM217.248 55.8433C208.837 55.8433 202.039 62.6989 202.039 71.0524C202.039 79.4634 208.894 86.2614 217.248 86.2614C225.659 86.2614 232.457 79.4058 232.457 71.0524C232.457 62.6989 225.659 55.8433 217.248 55.8433Z" fill="#3A3A3A"/>
<path d="M203.421 52.1562L213.445 64.6C214.021 65.349 213.906 66.4436 213.215 67.0197C212.581 67.5381 211.659 67.5381 211.083 67.0197L198.639 56.9955C197.141 55.7857 196.911 53.6541 198.121 52.1562C199.331 50.6584 201.462 50.4279 202.96 51.6377C203.133 51.8106 203.306 51.9834 203.421 52.1562Z" fill="#A16D0E"/>
<path d="M220.877 47.9507L219.149 63.8511C219.033 64.7729 218.227 65.4642 217.247 65.349C216.441 65.2338 215.807 64.6001 215.75 63.8511L214.021 47.9507C213.791 46.0496 215.173 44.3789 217.075 44.1485C218.976 43.918 220.646 45.3007 220.877 47.2018C220.877 47.4322 220.877 47.7203 220.877 47.9507Z" fill="#A16D0E"/>
<path d="M236.143 57.2836L223.7 67.3078C222.951 67.8839 221.856 67.7687 221.28 67.0773C220.761 66.4436 220.761 65.5219 221.28 64.9458L231.304 52.502C232.514 51.0041 234.646 50.7737 236.143 51.9835C237.641 53.1933 237.872 55.3249 236.662 56.8228C236.547 56.938 236.374 57.1108 236.143 57.2836Z" fill="#A16D0E"/>
<path d="M240.407 74.6818L224.507 72.9535C223.585 72.8383 222.893 72.0317 223.009 71.0524C223.124 70.2458 223.758 69.6121 224.507 69.5545L240.407 67.8262C242.308 67.5958 243.979 68.9784 244.209 70.8795C244.44 72.7807 243.057 74.4514 241.156 74.6818C240.868 74.7394 240.637 74.7394 240.407 74.6818Z" fill="#A16D0E"/>
<path d="M231.017 90.0062L220.992 77.5624C220.416 76.8135 220.531 75.7189 221.223 75.1428C221.857 74.6243 222.778 74.6243 223.354 75.1428L235.798 85.167C237.296 86.3768 237.527 88.5083 236.317 90.0062C235.107 91.5041 232.975 91.7345 231.477 90.5247C231.362 90.3519 231.189 90.179 231.017 90.0062Z" fill="#A16D0E"/>
<path d="M213.618 94.2117L215.346 78.3113C215.461 77.3896 216.268 76.6982 217.247 76.8135C218.054 76.9287 218.688 77.5624 218.745 78.3113L220.474 94.2117C220.704 96.1129 219.321 97.7836 217.42 98.014C215.519 98.2444 213.848 96.8618 213.618 94.9607C213.56 94.7302 213.618 94.4422 213.618 94.2117Z" fill="#A16D0E"/>
<path d="M198.294 84.8789L210.737 74.8548C211.486 74.2787 212.581 74.3939 213.157 75.0852C213.675 75.7189 213.675 76.6407 213.157 77.2168L203.133 89.6606C201.923 91.1584 199.791 91.3889 198.294 90.1791C196.796 88.9692 196.565 86.8377 197.775 85.3398C197.948 85.2246 198.121 85.0518 198.294 84.8789Z" fill="#A16D0E"/>
<path d="M194.088 67.4806L209.988 69.209C210.91 69.3242 211.602 70.1307 211.486 71.1101C211.371 71.9166 210.737 72.5503 209.988 72.6079L194.088 74.3362C192.187 74.5667 190.516 73.1841 190.286 71.2829C190.055 69.3818 191.438 67.7111 193.339 67.4806C193.627 67.423 193.858 67.423 194.088 67.4806Z" fill="#A16D0E"/>
<path d="M220.819 71.11C220.819 73.0688 219.206 74.6819 217.248 74.6819C215.289 74.6819 213.676 73.0688 213.676 71.11C213.676 69.1513 215.289 67.5382 217.248 67.5382C219.206 67.5382 220.819 69.0937 220.819 71.11Z" fill="#744E09"/>
<path d="M261.953 165.072H254.176V224.641H261.953V165.072Z" fill="#C2861D"/>
<path d="M230.671 185.754V149.921C230.671 134.712 243.115 122.21 258.381 122.21C273.59 122.21 286.092 134.654 286.092 149.921V185.754H230.671Z" fill="#00A79E"/>
<path d="M260.398 224.583V193.186C260.398 179.82 271.286 168.932 284.652 168.932C298.017 168.932 308.906 179.82 308.906 193.186V224.583H260.398Z" fill="#29EDEA"/>
<path d="M100.069 151.822H48.623V224.584H100.069V151.822Z" fill="#FF6B19"/>
<path d="M174.616 95.7096L100.126 151.822V224.583H249.106V151.822L174.616 95.7096Z" fill="#FBBE00"/>
<path d="M196.565 170.084H152.609V224.584H196.565V170.084Z" fill="#744E09"/>
<path d="M182.106 117.371H167.127V139.551H182.106V117.371Z" fill="#744E09"/>
<path d="M81.8639 175.557H66.8853V197.737H81.8639V175.557Z" fill="#744E09"/>
<path d="M223.527 173.483V221.185H199.965V173.483H223.527ZM226.926 170.084H196.566V224.584H226.926V170.084Z" fill="#744E09"/>
<path d="M149.21 173.483V221.185H125.705V173.483H149.21ZM152.609 170.084H122.249V224.584H152.609V170.084Z" fill="#744E09"/>
<path d="M217.247 211.794C216.614 211.794 216.037 211.449 215.749 210.873L197.084 174.693C196.68 173.829 196.968 172.85 197.833 172.389C198.639 171.928 199.676 172.274 200.137 173.138L218.803 209.317C219.206 210.181 218.918 211.161 218.054 211.622C217.766 211.737 217.535 211.794 217.247 211.794Z" fill="#744E09"/>
<path d="M198.582 223.374C198.294 223.374 198.006 223.316 197.776 223.143C196.969 222.682 196.623 221.646 197.084 220.839L206.417 203.844C206.878 203.037 207.915 202.749 208.722 203.153C209.528 203.614 209.874 204.651 209.413 205.457L200.08 222.452C199.734 223.028 199.158 223.374 198.582 223.374Z" fill="#744E09"/>
<path d="M214.886 193.705C214.598 193.705 214.31 193.647 214.079 193.474C213.273 193.013 212.927 191.976 213.388 191.17L223.355 173.08C223.816 172.274 224.853 171.928 225.659 172.389C226.466 172.85 226.811 173.887 226.35 174.693L216.384 192.783C216.038 193.417 215.462 193.705 214.886 193.705Z" fill="#744E09"/>
<path d="M142.988 211.794C142.354 211.794 141.778 211.448 141.49 210.872L122.824 174.693C122.421 173.829 122.709 172.85 123.573 172.389C124.38 171.985 125.417 172.274 125.878 173.138L144.543 209.317C144.947 210.181 144.659 211.16 143.794 211.621C143.506 211.736 143.276 211.794 142.988 211.794Z" fill="#744E09"/>
<path d="M124.322 223.374C124.034 223.374 123.746 223.316 123.516 223.143C122.709 222.682 122.364 221.645 122.825 220.839L132.157 203.844C132.618 203.037 133.655 202.692 134.462 203.152C135.268 203.613 135.614 204.65 135.153 205.457L125.82 222.452C125.475 223.028 124.898 223.374 124.322 223.374Z" fill="#744E09"/>
<path d="M140.626 193.705C140.338 193.705 140.05 193.647 139.819 193.474C139.013 193.013 138.667 191.976 139.128 191.17L149.094 173.08C149.555 172.274 150.592 171.928 151.399 172.389C152.205 172.85 152.551 173.887 152.09 174.693L142.124 192.783C141.778 193.417 141.202 193.705 140.626 193.705Z" fill="#744E09"/>
<path d="M48.623 151.822L85.8968 121.922L139.762 122.21L100.126 151.822H48.623Z" fill="#734D08"/>
<path d="M85.897 121.922L119.945 95.7096H174.617L139.762 122.21L85.897 121.922Z" fill="#A16D0E"/>
<path d="M226.926 153.55H122.248C121.327 153.55 120.52 152.801 120.52 151.822C120.52 150.9 121.269 150.094 122.248 150.094H226.926C227.848 150.094 228.654 150.842 228.654 151.822C228.654 152.801 227.848 153.55 226.926 153.55Z" fill="#744E09"/>
<path d="M81.8642 206.379H66.8855C65.9638 206.379 65.1572 205.63 65.1572 204.65C65.1572 203.729 65.9062 202.922 66.8855 202.922H81.8642C82.7859 202.922 83.5925 203.671 83.5925 204.65C83.5925 205.63 82.7859 206.379 81.8642 206.379Z" fill="#744E09"/>
<path d="M59.7418 199.465H1.7283C0.806542 199.465 0 198.716 0 197.737C0 196.758 0.748932 196.009 1.7283 196.009H59.7418C60.6636 196.009 61.4701 196.758 61.4701 197.737C61.4701 198.716 60.6636 199.465 59.7418 199.465Z" fill="#744E09"/>
<path d="M12.5586 197.737H9.15967V224.584H12.5586V197.737Z" fill="#744E09"/>
<path d="M25.4063 197.737H22.0073V224.584H25.4063V197.737Z" fill="#744E09"/>
<path d="M38.3106 197.737H34.9116V224.584H38.3106V197.737Z" fill="#744E09"/>
<path d="M51.2155 197.737H47.8164V224.584H51.2155V197.737Z" fill="#744E09"/>
<path d="M300.552 198.486C299.63 198.486 298.881 197.737 298.823 196.815C298.708 190.478 296.865 185.754 293.351 182.701C287.878 177.977 280.1 178.956 279.985 178.956C278.948 179.129 278.199 178.438 278.084 177.516C277.969 176.594 278.602 175.73 279.524 175.615C279.927 175.557 288.914 174.405 295.54 180.166C299.803 183.853 302.05 189.441 302.165 196.815C302.28 197.68 301.531 198.428 300.552 198.486Z" fill="#64F6EC"/>
<path d="M277.566 155.682C276.644 155.682 275.895 154.933 275.837 154.011C275.722 146.81 273.59 141.452 269.615 137.996C263.393 132.638 254.464 133.732 254.349 133.732C253.427 133.848 252.563 133.214 252.448 132.292C252.332 131.37 252.966 130.506 253.888 130.391C254.291 130.333 264.373 129.066 271.805 135.461C276.586 139.551 279.063 145.831 279.236 154.011C279.294 154.933 278.545 155.682 277.566 155.682Z" fill="#2CD3B1"/>
<g filter="url(#filter0_f_275_18361)">
<path d="M535.962 75.3775C430.167 75.3775 469.808 202.877 373.429 202.877" stroke="white" stroke-opacity="0.1" stroke-width="6.03448"/>
<path d="M471.533 75.3775C365.738 75.3775 405.38 202.877 309 202.877" stroke="url(#paint0_linear_275_18361)" stroke-width="6.03448"/>
</g>
<g filter="url(#filter1_f_275_18361)">
<path d="M1045.23 75.3775C1151.02 75.3775 1111.38 202.877 1207.76 202.877" stroke="white" stroke-opacity="0.1" stroke-width="6.03448"/>
<path d="M1045.23 75.3775C1151.02 75.3775 1111.38 202.877 1207.76 202.877" stroke="url(#paint1_linear_275_18361)" stroke-width="6.03448"/>
</g>
<g filter="url(#filter2_f_275_18361)">
<path d="M743 78L848 78" stroke="#0B92FF" stroke-width="6.03448"/>
</g>
<path d="M472.286 75.3775C366.28 75.3775 406 203.158 309.429 203.158" stroke="white" stroke-opacity="0.1" stroke-width="6.03448"/>
<path d="M1044.9 75.3775C1150.91 75.3775 1111.19 203.158 1207.76 203.158" stroke="white" stroke-opacity="0.1" stroke-width="6.03448"/>
<path d="M472.286 75.3775C366.28 75.3775 406 203.158 309.429 203.158" stroke="url(#paint2_linear_275_18361)" stroke-width="6.03448"/>
<path d="M1044.9 75.3775C1150.91 75.3775 1111.19 203.158 1207.76 203.158" stroke="url(#paint3_linear_275_18361)" stroke-width="6.03448"/>
<path d="M920.932 105.482L926.867 70.7886H1032.51L1038.45 105.482H920.932Z" fill="#28B4E5"/>
<path d="M1057.22 105.482H861.576V115.375H1057.22V105.482Z" fill="#123266"/>
<path d="M1071.21 149.792H847.588L861.576 115.375H1057.22L1071.21 149.792Z" fill="#ABC1C6"/>
<path d="M900.732 115.375H872.527V149.838H900.732V115.375Z" fill="#D2E7EA"/>
<path d="M948.954 115.375H920.748V149.838H948.954V115.375Z" fill="#D2E7EA"/>
<path d="M997.175 115.375H968.969V149.838H997.175V115.375Z" fill="#D2E7EA"/>
<path d="M1045.4 115.375H1017.19V149.838H1045.4V115.375Z" fill="#D2E7EA"/>
<path d="M1050.46 149.792H868.294V214.854H1050.46V149.792Z" fill="#8BADC1"/>
<path d="M886.791 164.746V215.912H924.475V164.746H886.791ZM920.932 211.817H890.38V168.887H920.932V211.817Z" fill="#50554F"/>
<path d="M920.932 168.887H890.379V215.958H920.932V168.887Z" fill="#8DC5C2"/>
<path d="M914.306 168.887C908.785 177.077 899.675 190.513 890.334 204.133V184.669L902.987 168.841H914.306V168.887Z" fill="#B5E8E4"/>
<path d="M920.932 180.62V204.501C918.355 208.274 915.733 212.093 913.156 215.912H892.634L920.932 180.62Z" fill="#B5E8E4"/>
<path d="M1050.5 154.577H944.03V214.853H1050.5V154.577Z" fill="#50554F"/>
<path d="M1050.46 157.43H946.837V214.853H1050.46V157.43Z" fill="#8DC5C2"/>
<path d="M986.086 157.43C975.917 175.789 964.368 196.494 954.061 214.853H946.837V183.703L964.23 157.43H986.086Z" fill="#B5E8E4"/>
<path d="M1019.03 157.43C1009.83 174.132 997.588 196.126 987.051 214.853H965.702L1003.75 157.43H1019.03Z" fill="#B5E8E4"/>
<path d="M1050.46 157.43V188.028C1045.44 197.001 1040.43 206.019 1035.5 214.853H997.727L1035.78 157.43H1050.46Z" fill="#B5E8E4"/>
<path d="M969.981 157.43H969.291V214.853H969.981V157.43Z" fill="#50554F"/>
<path d="M998.554 157.43H997.864V214.853H998.554V157.43Z" fill="#50554F"/>
<path d="M1027.17 157.43H1026.48V214.853H1027.17V157.43Z" fill="#50554F"/>
<path d="M1050.46 172.016H946.836V172.706H1050.46V172.016Z" fill="#50554F"/>
<path d="M1050.46 200.636H946.836V201.326H1050.46V200.636Z" fill="#50554F"/>
<path d="M905.978 167.645H905.288V215.958H905.978V167.645Z" fill="#50554F"/>
<path d="M902.159 192.4C902.159 193.55 901.239 194.47 900.089 194.47C898.938 194.47 898.018 193.55 898.018 192.4C898.018 191.249 898.938 190.329 900.089 190.329C901.239 190.329 902.159 191.295 902.159 192.4Z" fill="#50554F"/>
<path d="M912.834 192.4C912.834 193.55 911.914 194.47 910.763 194.47C909.613 194.47 908.693 193.55 908.693 192.4C908.693 191.249 909.613 190.329 910.763 190.329C911.914 190.375 912.834 191.295 912.834 192.4Z" fill="#50554F"/>
<path d="M892.911 154.577H876.99V160.651H892.911V154.577Z" fill="#648B9B"/>
<path d="M931.101 154.071H915.181V160.145H931.101V154.071Z" fill="#A3BFD6"/>
<path d="M944.03 167.645H930.963V173.718H944.03V167.645Z" fill="#648B9B"/>
<path d="M943.984 204.501H932.435V210.574H943.984V204.501Z" fill="#648B9B"/>
<path d="M878.785 169.715H868.294V175.789H878.785V169.715Z" fill="#A3BFD6"/>
<path d="M886.607 194.47H876.99V200.544H886.607V194.47Z" fill="#648B9B"/>
<path d="M934.138 188.764H924.521V194.838H934.138V188.764Z" fill="#A3BFD6"/>
<path d="M939.199 98.074C937.819 97.7519 936.668 97.2918 935.748 96.7396L937.681 92.3684C938.509 92.8746 939.475 93.2427 940.533 93.5648C941.592 93.8408 942.604 94.0249 943.57 94.0249C944.398 94.0249 944.997 93.9329 945.365 93.7948C945.733 93.6568 945.917 93.3807 945.917 93.0586C945.917 92.6905 945.687 92.4144 945.227 92.2304C944.766 92.0464 943.984 91.8623 942.926 91.6322C941.546 91.3562 940.395 91.0341 939.475 90.712C938.555 90.3899 937.773 89.8378 937.082 89.1016C936.392 88.3654 936.07 87.3071 936.07 86.0187C936.07 84.9144 936.392 83.9021 936.99 82.9819C937.635 82.0617 938.555 81.3255 939.797 80.8193C941.039 80.3132 942.558 80.0371 944.352 80.0371C945.549 80.0371 946.791 80.1751 947.941 80.4512C949.138 80.7273 950.15 81.0954 951.07 81.6015L949.276 85.9267C947.527 85.0525 945.871 84.5923 944.306 84.5923C942.788 84.5923 942.006 84.9604 942.006 85.6966C942.006 86.0647 942.236 86.3408 942.696 86.4788C943.156 86.6629 943.892 86.847 944.951 87.031C946.285 87.3071 947.435 87.5831 948.401 87.9052C949.322 88.2273 950.15 88.7795 950.84 89.5157C951.53 90.2519 951.852 91.2641 951.852 92.5525C951.852 93.6568 951.53 94.6691 950.932 95.5893C950.288 96.5095 949.368 97.1997 948.125 97.7519C946.883 98.304 945.365 98.5341 943.57 98.5341C942.006 98.5801 940.579 98.3961 939.199 98.074Z" fill="white"/>
<path d="M957.144 85.0523H951.945V80.405H968.371V85.0523H963.126V98.1658H957.144V85.0523Z" fill="white"/>
<path d="M973.801 97.3837C972.282 96.6015 971.086 95.4972 970.212 94.0708C969.337 92.6444 968.923 91.08 968.923 89.2855C968.923 87.491 969.337 85.9266 970.212 84.5002C971.086 83.0738 972.282 81.9695 973.801 81.1873C975.319 80.4051 977.022 79.991 978.954 79.991C980.887 79.991 982.589 80.4051 984.107 81.1873C985.626 81.9695 986.822 83.0738 987.696 84.5002C988.571 85.9266 988.985 87.491 988.985 89.2855C988.985 91.08 988.571 92.6444 987.696 94.0708C986.822 95.4972 985.626 96.6015 984.107 97.3837C982.589 98.1659 980.887 98.58 978.954 98.58C977.068 98.58 975.319 98.1659 973.801 97.3837ZM980.979 93.1965C981.577 92.8284 982.037 92.3223 982.405 91.6321C982.773 90.9419 982.957 90.1597 982.957 89.2855C982.957 88.3652 982.773 87.583 982.405 86.9388C982.037 86.2947 981.577 85.7425 980.979 85.3744C980.38 85.0063 979.69 84.8223 978.954 84.8223C978.218 84.8223 977.528 85.0063 976.93 85.3744C976.331 85.7425 975.871 86.2487 975.503 86.9388C975.135 87.629 974.951 88.4112 974.951 89.2855C974.951 90.2057 975.135 90.9879 975.503 91.6321C975.871 92.3223 976.331 92.8284 976.93 93.1965C977.528 93.5646 978.218 93.7487 978.954 93.7487C979.69 93.7027 980.38 93.5646 980.979 93.1965Z" fill="white"/>
<path d="M998.785 93.7026H997.174V98.1658H991.193V80.405H999.751C1001.41 80.405 1002.83 80.6811 1004.03 81.2333C1005.23 81.7854 1006.19 82.5676 1006.84 83.5799C1007.48 84.5922 1007.85 85.7885 1007.85 87.1228C1007.85 88.4112 1007.57 89.5155 1006.98 90.4357C1006.38 91.402 1005.55 92.1382 1004.49 92.6904L1008.22 98.1658H1001.82L998.785 93.7026ZM1001.18 85.5584C1000.76 85.1903 1000.17 85.0063 999.337 85.0063H997.174V89.1934H999.337C1000.17 89.1934 1000.76 89.0094 1001.18 88.6413C1001.59 88.2732 1001.78 87.767 1001.78 87.1228C1001.82 86.4327 1001.59 85.9265 1001.18 85.5584Z" fill="white"/>
<path d="M1024.87 93.6566V98.1658H1010.1V80.405H1024.55V84.9143H1015.99V86.9848H1023.49V91.31H1015.99V93.6566H1024.87Z" fill="white"/>
<path d="M1066.38 224.516H854.536C851.868 224.516 849.705 222.353 849.705 219.685C849.705 217.016 851.868 214.853 854.536 214.853H1066.38C1069.05 214.853 1071.21 217.016 1071.21 219.685C1071.21 222.353 1069.05 224.516 1066.38 224.516Z" fill="#365E99"/>
<g opacity="0.3">
<path d="M179.594 206.772C178.229 206.227 176.924 205.416 175.857 204.356C175.877 207.089 176.166 209.901 179.594 211.405C183.928 213.326 186.4 211.089 186.4 211.089L185.383 207.782C183.42 207.821 181.457 207.564 179.594 206.772Z" fill="black"/>
<path d="M178.199 184.377L177.342 181.595C177.342 181.595 172.759 185.437 172.52 190.011C173.924 187.644 175.848 185.536 178.199 184.377Z" fill="black"/>
<path d="M178.199 184.377C175.848 185.536 173.925 187.644 172.52 190.011C172.51 190.258 172.51 190.506 172.52 190.753C172.789 195.654 175.738 198.901 175.838 202.198C175.858 202.891 175.848 203.624 175.858 204.356C176.924 205.416 178.229 206.237 179.594 206.772C181.458 207.554 183.421 207.811 185.384 207.772L178.199 184.377Z" fill="black"/>
<path d="M186.24 178.348C186.24 178.348 177.243 177.813 175.31 185.377C173.376 192.931 178.418 196.337 179.385 202.515C180.351 208.693 178.847 211.881 184.636 211.772C190.425 211.663 195.238 191.654 193.096 183.882C193.096 183.892 191.332 178.516 186.24 178.348Z" fill="black"/>
<path d="M176.426 191.911C177.382 195.149 179.505 197.743 180.073 201.386C180.441 203.733 180.421 205.614 180.641 206.99C181.009 206.93 181.368 206.861 181.737 206.772C185.902 205.881 189.041 203.426 191.322 200.218C192.946 194.634 193.624 188.001 192.618 184.338C192.618 184.338 192.418 183.744 191.97 182.962C190.705 183.001 189.449 183.12 188.164 183.358C183.002 184.328 178.897 187.496 176.426 191.911Z" fill="black"/>
<path d="M186.34 179.279C186.34 179.279 178.11 178.794 176.336 185.704C175.708 188.159 175.888 190.139 176.416 191.912C178.887 187.496 182.992 184.318 188.164 183.348C189.439 183.12 190.704 183.001 191.97 182.952C191.123 181.496 189.379 179.368 186.34 179.279Z" fill="black"/>
<path d="M181.737 206.772C181.368 206.861 181.009 206.93 180.641 206.99C180.959 208.94 181.777 209.91 184.875 209.861C187.446 209.811 189.798 205.485 191.332 200.228C189.04 203.426 185.902 205.891 181.737 206.772Z" fill="black"/>
<path d="M186.181 189.902C186.181 189.902 188.911 189.1 189.559 186.447C189.559 186.447 189.937 189.318 186.181 189.902Z" fill="black"/>
<path d="M180.292 185.061C180.292 185.061 180.879 181.071 185.114 181.229C185.114 181.229 180.511 180.318 180.292 185.061Z" fill="black"/>
<path d="M178.688 195.703C178.688 195.703 187.257 194.585 191.87 190.595C191.86 190.595 187.894 195.812 178.688 195.703Z" fill="black"/>
<path d="M178.418 192.565C178.418 192.565 186.988 191.446 191.601 187.456C191.591 187.456 187.635 192.674 178.418 192.565Z" fill="black"/>
<path d="M179.594 198.574C179.594 198.574 188.163 197.456 192.777 193.466C192.777 193.466 188.811 198.683 179.594 198.574Z" fill="black"/>
<path d="M180.67 201.396C180.67 201.396 187.994 200.446 191.93 197.03C191.92 197.03 188.542 201.495 180.67 201.396Z" fill="black"/>
<path d="M181.418 204.277C181.418 204.277 187.576 203.475 190.894 200.604C190.894 200.604 188.044 204.346 181.418 204.277Z" fill="black"/>
<path d="M181.039 190.219C181.039 190.219 183.66 199.802 183.829 207.198C183.829 207.198 183.988 196.713 181.039 190.219Z" fill="black"/>
<path d="M183.082 184.417C183.082 184.417 185.703 194.001 185.872 201.396C185.862 201.396 186.021 190.912 183.082 184.417Z" fill="black"/>
<path d="M188.702 180.001C188.702 180.001 191.322 189.585 191.492 196.981C191.492 196.981 191.651 186.496 188.702 180.001Z" fill="black"/>
<path d="M178.558 195.961C178.558 195.961 187.127 194.842 191.741 190.852C191.731 190.842 187.765 196.06 178.558 195.961Z" fill="black"/>
<path d="M178.289 192.812C178.289 192.812 186.858 191.694 191.472 187.704C191.462 187.704 187.506 192.921 178.289 192.812Z" fill="black"/>
<path d="M179.465 198.832C179.465 198.832 188.034 197.713 192.648 193.723C192.648 193.723 188.682 198.941 179.465 198.832Z" fill="black"/>
<path d="M180.541 201.654C180.541 201.654 187.865 200.703 191.801 197.287C191.791 197.287 188.413 201.743 180.541 201.654Z" fill="black"/>
<path d="M181.288 204.525C181.288 204.525 187.446 203.723 190.764 200.852C190.764 200.852 187.914 204.604 181.288 204.525Z" fill="black"/>
<path d="M180.91 190.476C180.91 190.476 183.53 200.06 183.7 207.455C183.7 207.455 183.859 196.971 180.91 190.476Z" fill="black"/>
<path d="M182.952 184.674C182.952 184.674 185.573 194.258 185.742 201.654C185.732 201.654 185.892 191.169 182.952 184.674Z" fill="black"/>
<path d="M188.572 180.259C188.572 180.259 191.193 189.842 191.362 197.238C191.362 197.238 191.522 186.753 188.572 180.259Z" fill="black"/>
<path d="M184.955 188.734C186.7 188.734 188.114 187.302 188.114 185.536C188.114 183.77 186.7 182.338 184.955 182.338C183.211 182.338 181.796 183.77 181.796 185.536C181.796 187.302 183.211 188.734 184.955 188.734Z" fill="black"/>
<path d="M185.274 188.248C186.859 188.248 188.144 186.95 188.144 185.348C188.144 183.746 186.859 182.447 185.274 182.447C183.689 182.447 182.404 183.746 182.404 185.348C182.404 186.95 183.689 188.248 185.274 188.248Z" fill="black"/>
<path d="M185.404 187.496C186.559 187.496 187.496 186.552 187.496 185.387C187.496 184.223 186.559 183.278 185.404 183.278C184.248 183.278 183.311 184.223 183.311 185.387C183.311 186.552 184.248 187.496 185.404 187.496Z" fill="black"/>
<path d="M185.224 187.239C186.215 187.239 187.018 186.427 187.018 185.427C187.018 184.426 186.215 183.615 185.224 183.615C184.234 183.615 183.431 184.426 183.431 185.427C183.431 186.427 184.234 187.239 185.224 187.239Z" fill="black"/>
<path d="M166.033 193.901C166.033 193.901 171.065 187.169 171.713 179.892L174.463 180.595C174.463 180.595 171.872 190.585 167.687 194.971L166.033 193.901Z" fill="black"/>
<path d="M171.712 179.893C171.712 179.893 172.141 179.18 172.789 179.031C173.446 178.883 174.981 179.378 175.379 179.625C175.778 179.873 174.463 180.605 174.463 180.605L171.712 179.893Z" fill="black"/>
<path d="M175.459 179.754C175.459 179.754 173.925 189.268 169.341 194.357L168.255 193.981C168.255 193.981 172.45 188.922 174.383 180.615L175.459 179.754Z" fill="black"/>
<path d="M171.374 199.218C171.374 199.218 176.655 192.674 177.562 185.427L180.282 186.239C180.282 186.239 177.322 196.129 172.988 200.357L171.374 199.218Z" fill="black"/>
<path d="M177.572 185.427C177.572 185.427 178.02 184.734 178.678 184.605C179.335 184.476 180.86 185.031 181.249 185.288C181.637 185.555 180.292 186.229 180.292 186.229L177.572 185.427Z" fill="black"/>
<path d="M181.328 185.427C181.328 185.427 179.445 194.872 174.672 199.802L173.596 199.386C173.596 199.386 177.97 194.486 180.212 186.248L181.328 185.427Z" fill="black"/>
<path d="M178.15 204.643C178.15 204.643 183.381 198.06 184.248 190.813L186.978 191.605C186.978 191.605 184.088 201.515 179.784 205.772L178.15 204.643Z" fill="black"/>
<path d="M184.248 190.813C184.248 190.813 184.696 190.11 185.354 189.981C186.011 189.852 187.536 190.387 187.934 190.654C188.333 190.912 186.988 191.605 186.988 191.605L184.248 190.813Z" fill="black"/>
<path d="M188.004 190.783C188.004 190.783 186.191 200.248 181.448 205.198L180.372 204.792C180.372 204.792 184.716 199.861 186.898 191.614L188.004 190.783Z" fill="black"/>
<path d="M165.774 190.565C165.774 190.565 164.488 190.001 163.562 191.347C162.635 192.694 156.348 199.079 153.279 199.723C153.279 199.723 151.854 201.287 152.92 204.762C153.996 208.237 166.631 220.167 171.563 220.306C176.495 220.444 181.707 212.782 181.995 211.148C182.284 209.514 182.135 203.911 182.135 203.911C182.135 203.911 180.272 198.584 165.774 190.565Z" fill="black"/>
<path opacity="0.44" d="M161.778 213.752C161.031 212.9 160.274 211.94 159.417 211.089C156.946 209.089 154.973 206.93 152.691 204.921C152.741 205.079 152.771 205.168 152.771 205.168C158.56 214.534 170.557 220.92 171.772 220.355C172.311 220.108 172.46 218.999 172.45 217.841C168.644 218.613 164.618 216.494 161.778 213.752Z" fill="black"/>
<path d="M153.269 199.713C151.854 201.554 152.452 204.119 152.691 204.911C154.963 206.92 156.935 209.089 159.417 211.079C160.274 211.93 161.021 212.89 161.778 213.742C164.628 216.484 168.643 218.603 172.46 217.831C172.45 216.385 172.211 214.88 172.211 214.88C163.342 213.108 153.269 199.713 153.269 199.713Z" fill="black"/>
<path opacity="0.44" d="M175.17 216.732C174.243 217.326 173.287 217.682 172.32 217.87C172.161 219.316 171.782 220.355 171.782 220.355C175.07 220.92 181.358 214.603 181.996 211.841C182.265 210.693 182.334 209.138 182.324 207.713C180.929 211.356 178.548 214.544 175.17 216.732Z" fill="black"/>
<path d="M172.201 214.89C172.42 215.93 172.41 216.979 172.31 217.87C173.287 217.692 174.243 217.326 175.16 216.732C178.548 214.544 180.929 211.356 182.304 207.703C182.294 205.673 182.115 203.901 182.115 203.901C178.558 211.584 172.201 214.89 172.201 214.89Z" fill="black"/>
<path d="M156.527 202.04C156.527 202.04 164.189 198.792 166.92 192.832L169.65 194.911C169.65 194.911 160.921 199.594 158.988 203.96C158.988 203.96 158.021 204.703 156.527 202.04Z" fill="black"/>
<path d="M164.538 207.703C164.538 207.703 172.201 204.455 174.931 198.495L177.661 200.574C177.661 200.574 168.932 205.257 166.999 209.623C167.009 209.613 166.043 210.366 164.538 207.703Z" fill="black"/>
<path d="M152.771 203.535C152.771 203.535 158.4 214.177 171.573 218.652C171.573 218.643 159.367 216.732 152.771 203.535Z" fill="black"/>
<path d="M153.578 201.723C153.578 201.723 159.207 212.366 172.38 216.841C172.38 216.841 160.164 214.92 153.578 201.723Z" fill="black"/>
<path d="M172.858 216.682C172.858 216.682 178.648 213.277 181.587 207.257C181.597 207.257 179.664 213.643 172.858 216.682Z" fill="black"/>
<path d="M172.858 219.336C172.858 219.336 178.648 215.93 181.587 209.91C181.597 209.92 179.664 216.306 172.858 219.336Z" fill="black"/>
<path d="M157.055 198.99C157.055 198.99 164.16 207.574 174.801 211.762C174.811 211.762 161.948 208.92 157.055 198.99Z" fill="black"/>
<path d="M160.343 195.515C160.343 195.515 167.448 204.099 178.09 208.287C178.09 208.287 165.236 205.445 160.343 195.515Z" fill="black"/>
<path d="M163.492 193.03C163.492 193.03 170.597 201.614 181.239 205.802C181.239 205.802 168.385 202.96 163.492 193.03Z" fill="black"/>
<path d="M172.33 196.08C172.33 196.08 165.634 205.178 160.433 206.614C160.433 206.614 167.448 205.822 172.33 196.08Z" fill="black"/>
<path d="M170.447 193.476C170.447 193.476 163.751 202.574 158.55 204.01C158.56 204.01 165.575 203.208 170.447 193.476Z" fill="black"/>
<path d="M177.741 200.05C177.741 200.05 173.128 206.326 169.541 207.316C169.541 207.307 174.373 206.762 177.741 200.05Z" fill="black"/>
<path d="M180.093 201.426C180.093 201.426 175.479 207.703 171.892 208.693C171.902 208.693 176.735 208.148 180.093 201.426Z" fill="black"/>
<path d="M157.055 199.396C157.055 199.396 164.16 207.98 174.801 212.168C174.811 212.168 161.948 209.336 157.055 199.396Z" fill="black"/>
<path d="M160.343 195.921C160.343 195.921 167.448 204.505 178.09 208.693C178.09 208.693 165.236 205.851 160.343 195.921Z" fill="black"/>
<path d="M163.492 193.436C163.492 193.436 170.597 202.02 181.239 206.208C181.239 206.208 168.385 203.366 163.492 193.436Z" fill="black"/>
<path d="M172.33 196.485C172.33 196.485 165.634 205.584 160.433 207.019C160.433 207.029 167.448 206.227 172.33 196.485Z" fill="black"/>
<path d="M170.447 193.882C170.447 193.882 163.751 202.98 158.55 204.416C158.56 204.416 165.575 203.624 170.447 193.882Z" fill="black"/>
<path d="M177.741 200.456C177.741 200.456 173.128 206.732 169.541 207.722C169.541 207.722 174.373 207.168 177.741 200.456Z" fill="black"/>
<path d="M180.093 201.842C180.093 201.842 175.479 208.118 171.892 209.108C171.902 209.099 176.735 208.554 180.093 201.842Z" fill="black"/>
</g>
<path d="M665.472 178.224H505.854V205.445H665.472V178.224Z" fill="#3A556A"/>
<path d="M663.531 74H482V186.328H663.531V74Z" fill="#F7BE56"/>
<path d="M490.046 93.4789V85.4514H652.555L490.046 93.4789Z" fill="#1C232F"/>
<path d="M655.485 167.686V175.105H494.802L655.485 167.686Z" fill="#FBD361"/>
<path d="M758.492 212.94H665.472V190.646H762.334V209.098C762.334 211.228 760.603 212.94 758.492 212.94Z" fill="#64798A"/>
<path d="M758.492 190.646H665.472V102.324H705.59C710.745 102.324 715.691 104.55 719.02 108.488C723.909 114.271 730.167 125.132 734.428 145.144C747.668 152.715 754.801 158.441 758.53 162.036C760.945 164.376 762.334 167.61 762.334 170.977V186.803C762.334 188.934 760.603 190.646 758.492 190.646Z" fill="#E56353"/>
<path d="M694.652 193.138H669.619V196.543H694.652V193.138Z" fill="#F7BE56"/>
<path d="M694.652 197.589H669.619V200.994H694.652V197.589Z" fill="#F7BE56"/>
<path d="M694.652 202.04H669.619V205.445H694.652V202.04Z" fill="#F7BE56"/>
<path d="M694.652 206.472H669.619V209.877H694.652V206.472Z" fill="#F7BE56"/>
<path d="M685.122 149.614H726.229C726.229 149.614 726.267 134.453 716.09 124.295C705.019 113.262 693.796 113.243 685.122 113.243V149.614Z" fill="#27A2DB"/>
<path d="M762.334 209.002V194.926C764.788 194.926 766.785 196.923 766.785 199.377V204.551C766.766 207.024 764.788 209.002 762.334 209.002Z" fill="#F7BE56"/>
<path d="M750.997 201.793C750.997 214.804 740.439 225.362 727.428 225.362C714.416 225.362 703.859 214.804 703.859 201.793C703.859 188.782 714.416 178.224 727.428 178.224C740.439 178.224 750.997 188.763 750.997 201.793Z" fill="#2E4859"/>
<path d="M739.488 201.793C739.488 207.119 736.045 211.628 731.27 213.225C730.072 213.625 728.779 213.853 727.428 213.853C726.077 213.853 724.803 213.644 723.585 213.225C718.811 211.628 715.368 207.119 715.368 201.793C715.368 195.135 720.77 189.733 727.428 189.733C734.086 189.733 739.488 195.135 739.488 201.793Z" fill="#EBF0F3"/>
<path d="M731.271 213.225C730.072 213.625 728.779 213.853 727.428 213.853C726.077 213.853 724.803 213.644 723.585 213.225C724.099 211.057 725.621 209.478 727.428 209.478C729.235 209.459 730.757 211.038 731.271 213.225Z" fill="#657A8B"/>
<path d="M723.585 190.36C724.784 189.961 726.077 189.733 727.428 189.733C728.779 189.733 730.053 189.942 731.271 190.36C730.757 192.529 729.235 194.108 727.428 194.108C725.621 194.108 724.08 192.529 723.585 190.36Z" fill="#657A8B"/>
<path d="M719.553 210.943C718.583 210.106 717.746 209.116 717.061 207.975C716.376 206.815 715.901 205.597 715.634 204.361C717.765 203.676 719.914 204.19 720.827 205.749C721.76 207.271 721.17 209.383 719.553 210.943Z" fill="#657A8B"/>
<path d="M735.284 192.643C736.254 193.48 737.091 194.469 737.776 195.611C738.461 196.771 738.937 197.988 739.203 199.225C737.072 199.91 734.923 199.396 734.01 197.836C733.097 196.315 733.667 194.184 735.284 192.643Z" fill="#657A8B"/>
<path d="M715.558 199.643C715.786 198.388 716.204 197.151 716.851 195.991C717.498 194.812 718.316 193.784 719.248 192.928C720.903 194.431 721.55 196.524 720.694 198.102C719.838 199.681 717.707 200.252 715.558 199.643Z" fill="#657A8B"/>
<path d="M739.298 203.942C739.07 205.198 738.632 206.434 738.004 207.595C737.357 208.774 736.54 209.801 735.607 210.657C733.952 209.155 733.306 207.062 734.162 205.483C735.018 203.904 737.148 203.334 739.298 203.942Z" fill="#657A8B"/>
<path d="M558.87 201.793C558.87 214.804 548.312 225.362 535.301 225.362C522.289 225.362 511.732 214.804 511.732 201.793C511.732 188.782 522.289 178.224 535.301 178.224C548.312 178.224 558.87 188.763 558.87 201.793Z" fill="#2E4859"/>
<path d="M547.361 201.793C547.361 207.119 543.918 211.628 539.144 213.225C537.945 213.625 536.652 213.853 535.301 213.853C533.95 213.853 532.676 213.644 531.458 213.225C526.684 211.628 523.241 207.119 523.241 201.793C523.241 195.135 528.643 189.733 535.301 189.733C541.959 189.733 547.361 195.135 547.361 201.793Z" fill="#EBF0F3"/>
<path d="M539.144 213.225C537.945 213.625 536.652 213.853 535.301 213.853C533.95 213.853 532.676 213.644 531.458 213.225C531.972 211.057 533.494 209.478 535.301 209.478C537.108 209.459 538.63 211.038 539.144 213.225Z" fill="#657A8B"/>
<path d="M531.458 190.36C532.657 189.961 533.95 189.733 535.301 189.733C536.652 189.733 537.926 189.942 539.144 190.36C538.63 192.529 537.108 194.108 535.301 194.108C533.494 194.108 531.953 192.529 531.458 190.36Z" fill="#657A8B"/>
<path d="M527.426 210.943C526.456 210.106 525.619 209.116 524.934 207.975C524.249 206.815 523.774 205.597 523.507 204.361C525.638 203.676 527.787 204.19 528.7 205.749C529.633 207.271 529.043 209.383 527.426 210.943Z" fill="#657A8B"/>
<path d="M543.157 192.643C544.128 193.48 544.965 194.469 545.649 195.611C546.334 196.771 546.81 197.988 547.076 199.225C544.945 199.91 542.796 199.396 541.883 197.836C540.97 196.315 541.54 194.184 543.157 192.643Z" fill="#657A8B"/>
<path d="M523.431 199.643C523.659 198.388 524.078 197.151 524.725 195.991C525.371 194.812 526.189 193.784 527.122 192.928C528.776 194.431 529.423 196.524 528.567 198.102C527.711 199.681 525.581 200.252 523.431 199.643Z" fill="#657A8B"/>
<path d="M547.171 203.942C546.943 205.198 546.525 206.434 545.878 207.595C545.231 208.774 544.413 209.801 543.481 210.657C541.826 209.155 541.179 207.062 542.035 205.483C542.891 203.904 545.022 203.334 547.171 203.942Z" fill="#657A8B"/>
<path d="M632.582 216.231H587.898C582.306 216.231 577.759 211.685 577.759 206.092V201.527C577.759 195.934 582.306 191.388 587.898 191.388H632.582C638.175 191.388 642.721 195.934 642.721 201.527V206.092C642.721 211.685 638.175 216.231 632.582 216.231Z" fill="#64798A"/>
<path d="M626.818 191.369H593.376V216.231H626.818V191.369Z" fill="#D5D6DB"/>
<path d="M505.854 189.581H502.296V203.752H505.854V189.581Z" fill="#395469"/>
<path d="M502.297 203.733H499.539C498.112 203.733 496.952 202.573 496.952 201.146V192.168C496.952 190.741 498.112 189.581 499.539 189.581H502.278V203.733H502.297Z" fill="#E46253"/>
<path d="M695.489 156.101C695.489 156.101 694.424 157.319 691.97 157.319C689.516 157.319 688.451 156.101 688.451 156.101C688.451 156.101 687.176 156.424 687.176 158.612C687.176 160.8 691.97 160.59 691.97 160.59C691.97 160.59 696.764 160.8 696.764 158.612C696.764 156.424 695.489 156.101 695.489 156.101Z" fill="#2C4658"/>
<defs>
<filter id="filter0_f_275_18361" x="293.914" y="57.2741" width="257.134" height="163.706" filterUnits="userSpaceOnUse" color-interpolation-filters="sRGB">
<feFlood flood-opacity="0" result="BackgroundImageFix"/>
<feBlend mode="normal" in="SourceGraphic" in2="BackgroundImageFix" result="shape"/>
<feGaussianBlur stdDeviation="7.5431" result="effect1_foregroundBlur_275_18361"/>
</filter>
<filter id="filter1_f_275_18361" x="1030.14" y="57.2741" width="192.706" height="163.706" filterUnits="userSpaceOnUse" color-interpolation-filters="sRGB">
<feFlood flood-opacity="0" result="BackgroundImageFix"/>
<feBlend mode="normal" in="SourceGraphic" in2="BackgroundImageFix" result="shape"/>
<feGaussianBlur stdDeviation="7.5431" result="effect1_foregroundBlur_275_18361"/>
</filter>
<filter id="filter2_f_275_18361" x="727.914" y="59.8966" width="135.172" height="36.2068" filterUnits="userSpaceOnUse" color-interpolation-filters="sRGB">
<feFlood flood-opacity="0" result="BackgroundImageFix"/>
<feBlend mode="normal" in="SourceGraphic" in2="BackgroundImageFix" result="shape"/>
<feGaussianBlur stdDeviation="7.5431" result="effect1_foregroundBlur_275_18361"/>
</filter>
<linearGradient id="paint0_linear_275_18361" x1="448.455" y1="82.4608" x2="352.829" y2="135.954" gradientUnits="userSpaceOnUse">
<stop stop-color="#0B92FF"/>
<stop offset="1" stop-opacity="0"/>
</linearGradient>
<linearGradient id="paint1_linear_275_18361" x1="1068.3" y1="82.4608" x2="1163.93" y2="135.954" gradientUnits="userSpaceOnUse">
<stop stop-color="#0B92FF"/>
<stop offset="1" stop-opacity="0"/>
</linearGradient>
<linearGradient id="paint2_linear_275_18361" x1="449.161" y1="82.4764" x2="353.336" y2="136.071" gradientUnits="userSpaceOnUse">
<stop stop-color="#0B92FF"/>
<stop offset="1" stop-color="white" stop-opacity="0.51"/>
</linearGradient>
<linearGradient id="paint3_linear_275_18361" x1="1068.03" y1="82.4764" x2="1163.85" y2="136.071" gradientUnits="userSpaceOnUse">
<stop stop-color="#0B92FF"/>
<stop offset="1" stop-color="white" stop-opacity="0.51"/>
</linearGradient>
</defs>
</svg>
