<svg width="84" height="55" viewBox="0 0 84 55" fill="none" xmlns="http://www.w3.org/2000/svg">
<mask id="mask0_287_45" style="mask-type:alpha" maskUnits="userSpaceOnUse" x="0" y="0" width="84" height="55">
<path d="M1.40052 0H0V54.0912H1.40052V0Z" fill="#010101"/>
<path d="M3.19544 0H1.79492V54.0912H3.19544V0Z" fill="#010101"/>
<path d="M7.46974 0H5.36377V49.8274H7.46974V0Z" fill="#010101"/>
<path d="M9.25372 0H8.1748V49.8274H9.25372V0Z" fill="#010101"/>
<path d="M12.0859 0H9.60645V49.8274H12.0859V0Z" fill="#010101"/>
<path d="M15.6444 0H13.1753V49.8274H15.6444V0Z" fill="#010101"/>
<path d="M18.8606 0H16.7339V49.8274H18.8606V0Z" fill="#010101"/>
<path d="M21.7029 0H19.5762V49.8274H21.7029V0Z" fill="#010101"/>
<path d="M25.6346 0H22.0659V49.8274H25.6346V0Z" fill="#010101"/>
<path d="M27.7614 0H26.6929V49.8274H27.7614V0Z" fill="#010101"/>
<path d="M29.5353 0H28.4668V49.8274H29.5353V0Z" fill="#010101"/>
<path d="M33.8096 0H32.0356V49.8274H33.8096V0Z" fill="#010101"/>
<path d="M37.3677 0H34.8779V49.8274H37.3677V0Z" fill="#010101"/>
<path d="M39.8579 0H39.1421V49.8274H39.8579V0Z" fill="#010101"/>
<path d="M41.6317 0H40.9263V54.1119H41.6317V0Z" fill="#010101"/>
<path d="M43.416 0H42.7002V54.1119H43.416V0Z" fill="#010101"/>
<path d="M45.2004 0H44.1318V49.8274H45.2004V0Z" fill="#010101"/>
<path d="M46.985 0H45.9165V49.8274H46.985V0Z" fill="#010101"/>
<path d="M51.6014 0H50.1802V49.8274H51.6014V0Z" fill="#010101"/>
<path d="M55.1594 0H53.7485V49.8274H55.1594V0Z" fill="#010101"/>
<path d="M57.6389 0H56.228V49.8274H57.6389V0Z" fill="#010101"/>
<path d="M60.4919 0H59.0811V49.8274H60.4919V0Z" fill="#010101"/>
<path d="M65.8349 0H62.6396V49.8274H65.8349V0Z" fill="#010101"/>
<path d="M67.2663 0H66.1978V49.8274H67.2663V0Z" fill="#010101"/>
<path d="M71.8933 0H68.6772V49.8274H71.8933V0Z" fill="#010101"/>
<path d="M74.373 0H72.9414V49.8274H74.373V0Z" fill="#010101"/>
<path d="M77.9414 0H75.0781V49.8274H77.9414V0Z" fill="#010101"/>
<path d="M82.2155 0H81.147V54.0704H82.2155V0Z" fill="#010101"/>
<path d="M80.6389 0H79.5703V49.8274H80.6389V0Z" fill="#010101"/>
<path d="M84.0002 0H82.9316V54.0704H84.0002V0Z" fill="#010101"/>
</mask>
<g mask="url(#mask0_287_45)">
<path fill-rule="evenodd" clip-rule="evenodd" d="M5.75195 21.803H14.1999C17.2111 21.803 19.6521 24.2932 19.6521 27.3043V39.2381H15.4581V27.2259C15.4581 26.481 14.8542 25.8772 14.1093 25.8772H5.75195V21.803ZM19.5323 21.803H29.1186V25.8772H19.5323V21.803ZM70.16 21.803H61.7121V25.8772H70.0694C70.8143 25.8772 71.4182 26.481 71.4182 27.2259V39.2381H75.6122V27.3043C75.6122 24.2932 73.1712 21.803 70.16 21.803ZM75.4924 21.803H85.0788V25.8772H75.4924V21.803ZM31.5153 21.803H36.5457L46.2132 35.6463L54.7644 21.803H59.7949L48.9109 39.298H43.4225L31.5153 21.803Z" fill="#D9D9D9"/>
</g>
</svg>
