<svg width="25" height="24" viewBox="0 0 25 24" fill="none" xmlns="http://www.w3.org/2000/svg">
<g clip-path="url(#clip0_275_9484)">
<path d="M24.3301 12C24.3301 5.37258 18.9575 0 12.3301 0C5.70266 0 0.330078 5.37258 0.330078 12C0.330078 18.6274 5.70266 24 12.3301 24C18.9575 24 24.3301 18.6274 24.3301 12Z" fill="white"/>
<path d="M19.3728 16.5724C19.2907 16.5281 19.151 16.5214 19.0844 16.6235C19.0223 16.7166 19.0423 16.8631 19.2353 17.0561C19.7566 17.573 19.557 18.5026 18.8426 18.649C18.4188 18.7377 18.2547 18.8731 18.1992 19.3012C18.1482 19.6961 17.7511 19.9513 17.3429 19.9779C16.9635 20.0023 16.5797 19.7693 16.4155 19.4166C16.2469 19.0528 16.3179 18.6379 16.6019 18.3295C16.8992 18.0078 16.8992 18.0078 16.5863 17.6972C16.3356 17.4465 16.0827 17.1981 15.8653 16.9829C16.0916 16.7388 16.2913 16.5192 16.5198 16.2707C16.6618 16.426 16.7927 16.5769 16.9302 16.7211C17.0678 16.8653 17.2142 17.0028 17.354 17.1448C17.5048 17.2979 17.6401 17.3023 17.8021 17.1448C17.9308 17.0206 18.0661 16.8941 18.2236 16.8032C18.3567 16.7277 18.4455 16.6301 18.3856 16.477C18.3212 16.3106 18.1726 16.3062 18.0239 16.3794C17.8598 16.4593 17.7134 16.548 17.5181 16.6856C17.3584 16.5125 17.1765 16.3195 17.0012 16.1221C16.8969 16.0067 16.7549 15.8958 16.7106 15.7582C16.5974 15.4033 16.4887 15.0394 16.4554 14.6734C16.4044 14.0943 16.4066 13.5109 16.4089 12.9274C16.4111 11.9845 16.2425 11.0727 15.9274 10.1897C15.2042 8.15087 13.9463 6.47366 12.3977 4.99611C12.0139 4.63005 11.5236 4.47254 11.0045 4.47475C10.6251 4.47475 10.2369 4.50803 9.87083 4.60121C8.3356 4.98946 7.10875 5.88796 6.04829 7.02607C5.10319 8.03994 4.37108 9.18027 4.09376 10.5624C3.9185 11.4276 3.97618 12.2618 4.63287 12.9429C5.4626 13.8015 6.36332 14.5757 7.37497 15.2147C8.71941 16.0644 10.1526 16.6944 11.7566 16.8253C12.5508 16.8897 13.3517 16.8897 14.1504 16.8941C15.0533 16.8986 15.7078 17.3334 16.2181 18.0433C16.2048 18.0611 16.1848 18.0899 16.1648 18.1165C15.7899 18.6334 15.7433 19.248 16.0628 19.7538C16.3911 20.2729 16.877 20.5214 17.4826 20.4371C18.1216 20.3484 18.5209 19.9579 18.705 19.3389C18.7272 19.2613 18.8315 19.1792 18.9136 19.1548C19.4882 18.9729 19.8498 18.6002 19.974 18.0078C20.0872 17.4687 19.8232 16.8231 19.3728 16.5724ZM4.50419 11.1237C4.56631 10.5957 4.69277 10.0477 4.91462 9.56629C5.81313 7.60511 7.26627 6.17859 9.23854 5.30005C9.85086 5.02717 10.4987 4.87409 11.182 4.9584C11.9984 5.06045 12.5641 5.6173 12.6018 6.4426C12.6218 6.85081 12.6085 7.29229 12.4798 7.67388C11.5969 10.2762 9.83977 12.0289 7.24408 12.9296C6.94902 13.0316 6.62733 13.0472 6.31673 13.1049C5.10763 13.0893 4.36442 12.3173 4.50419 11.1237ZM15.8431 16.2818C15.6057 16.5347 15.3462 16.7011 14.8248 16.5281C14.3412 16.3705 13.7865 16.3705 13.2674 16.3972C10.6029 16.5347 8.36444 15.5297 6.35001 13.8924C6.2413 13.8037 6.13481 13.7105 6.02832 13.6173C6.01945 13.6085 6.01723 13.5885 6.0261 13.6151C6.53859 13.5197 7.07547 13.4842 7.56799 13.3178C9.57132 12.6478 11.0422 11.3034 12.1626 9.55076C12.6507 8.78537 12.9901 7.95786 13.081 7.04382C13.0988 6.85524 13.0988 6.66223 13.1099 6.45147C13.141 6.46922 13.172 6.47587 13.1875 6.49584C14.3989 7.92236 15.3684 9.48199 15.7544 11.3367C15.8897 11.9912 15.9008 12.6722 15.9474 13.3422C15.9918 13.9723 15.9496 14.609 16.0472 15.2347C16.1604 15.9601 16.0406 16.0688 15.8431 16.2818Z" fill="#393939"/>
<path d="M7.94318 12.2352C9.4052 11.5763 10.5211 10.5181 11.3775 9.17365C11.728 8.62123 11.9831 8.02888 12.0874 7.37663C12.2738 6.23409 11.6481 5.44873 10.5411 5.41101C10.2017 5.48644 9.85112 5.53081 9.52722 5.64618C8.14729 6.13203 7.09348 7.05495 6.19498 8.17974C6.17945 8.19971 6.15282 8.2219 6.15504 8.24186C6.16613 8.33948 6.15283 8.48812 6.20829 8.52362C6.28372 8.57021 6.41683 8.5458 6.51444 8.51474C6.57434 8.49478 6.61206 8.40603 6.66087 8.34835C7.41073 7.43653 8.2804 6.6667 9.38301 6.21634C9.77347 6.0566 10.2127 5.95899 10.6343 5.9368C11.2244 5.90353 11.5838 6.26515 11.6304 6.8575C11.6481 7.07713 11.6393 7.31673 11.5727 7.52306C10.8805 9.69722 9.41629 11.1481 7.3109 11.9601C7.02027 12.0733 6.67196 12.0955 6.35693 12.0733C5.80895 12.0378 5.50945 11.6917 5.47395 11.1393C5.46508 10.9995 5.4562 10.8486 5.49614 10.7177C5.63147 10.2829 5.78677 9.85474 5.94428 9.42878C5.99974 9.28014 6.02637 9.12928 5.85776 9.07381C5.77346 9.04719 5.59597 9.10709 5.55382 9.1803C5.20108 9.81259 4.9526 10.4781 5.01028 11.2236C5.06131 11.9091 5.47839 12.3905 6.14839 12.5281C6.78067 12.6523 7.37746 12.4904 7.94318 12.2352Z" fill="#393939"/>
<path d="M9.28472 9.03828C10.0279 8.97616 10.9065 8.03772 10.922 7.29008C10.9309 6.82196 10.6225 6.54908 10.1522 6.61564C9.4378 6.71547 8.60807 7.63617 8.58589 8.35497C8.57257 8.78537 8.86542 9.07378 9.28472 9.03828ZM9.06731 8.32169C9.1627 8.07987 9.25588 7.81143 9.42671 7.62729C9.62859 7.40988 9.90148 7.25236 10.1655 7.10372C10.3052 7.02607 10.4472 7.08153 10.4539 7.28342C10.4694 7.75375 9.70403 8.56573 9.24701 8.56573C9.06287 8.57461 9.0185 8.44593 9.06731 8.32169Z" fill="#393939"/>
</g>
<defs>
<clipPath id="clip0_275_9484">
<rect width="24" height="24" fill="white" transform="translate(0.330078)"/>
</clipPath>
</defs>
</svg>
