<svg width="25" height="24" viewBox="0 0 25 24" fill="none" xmlns="http://www.w3.org/2000/svg">
<g clip-path="url(#clip0_2_365)">
<path d="M24.3301 12C24.3301 5.37258 18.9575 0 12.3301 0C5.70266 0 0.330078 5.37258 0.330078 12C0.330078 18.6274 5.70266 24 12.3301 24C18.9575 24 24.3301 18.6274 24.3301 12Z" fill="black"/>
<path d="M19.3726 16.5724C19.2905 16.5281 19.1507 16.5214 19.0842 16.6235C19.022 16.7166 19.042 16.8631 19.235 17.0561C19.7564 17.573 19.5567 18.5026 18.8423 18.649C18.4186 18.7377 18.2544 18.8731 18.199 19.3012C18.1479 19.6961 17.7508 19.9513 17.3426 19.9779C16.9632 20.0023 16.5794 19.7693 16.4153 19.4166C16.2467 19.0528 16.3176 18.6379 16.6016 18.3295C16.8989 18.0078 16.8989 18.0078 16.5861 17.6972C16.3354 17.4465 16.0825 17.1981 15.8651 16.9829C16.0914 16.7388 16.291 16.5192 16.5195 16.2707C16.6615 16.426 16.7924 16.5769 16.93 16.7211C17.0675 16.8653 17.2139 17.0028 17.3537 17.1448C17.5046 17.2979 17.6399 17.3023 17.8019 17.1448C17.9305 17.0206 18.0659 16.8941 18.2234 16.8032C18.3565 16.7277 18.4452 16.6301 18.3853 16.477C18.321 16.3106 18.1723 16.3062 18.0237 16.3794C17.8595 16.4593 17.7131 16.548 17.5179 16.6856C17.3581 16.5125 17.1762 16.3195 17.001 16.1221C16.8967 16.0067 16.7547 15.8958 16.7103 15.7582C16.5972 15.4033 16.4885 15.0394 16.4552 14.6734C16.4042 14.0943 16.4064 13.5109 16.4086 12.9274C16.4108 11.9845 16.2422 11.0727 15.9272 10.1897C15.2039 8.15087 13.946 6.47366 12.3975 4.99611C12.0137 4.63005 11.5234 4.47254 11.0043 4.47475C10.6249 4.47475 10.2366 4.50803 9.87058 4.60121C8.33536 4.98946 7.10851 5.88796 6.04804 7.02607C5.10295 8.03994 4.37083 9.18027 4.09352 10.5624C3.91825 11.4276 3.97594 12.2618 4.63262 12.9429C5.46236 13.8015 6.36308 14.5757 7.37473 15.2147C8.71916 16.0644 10.1523 16.6944 11.7563 16.8253C12.5506 16.8897 13.3515 16.8897 14.1501 16.8941C15.0531 16.8986 15.7076 17.3334 16.2178 18.0433C16.2045 18.0611 16.1845 18.0899 16.1646 18.1165C15.7896 18.6334 15.7431 19.248 16.0625 19.7538C16.3909 20.2729 16.8767 20.5214 17.4824 20.4371C18.1213 20.3484 18.5207 19.9579 18.7048 19.3389C18.727 19.2613 18.8313 19.1792 18.9133 19.1548C19.4879 18.9729 19.8496 18.6002 19.9738 18.0078C20.0869 17.4687 19.8229 16.8231 19.3726 16.5724ZM4.50395 11.1237C4.56607 10.5957 4.69252 10.0477 4.91438 9.56629C5.81288 7.60511 7.26602 6.17859 9.2383 5.30005C9.85062 5.02717 10.4984 4.87409 11.1817 4.9584C11.9982 5.06045 12.5639 5.6173 12.6016 6.4426C12.6216 6.85081 12.6083 7.29229 12.4796 7.67388C11.5966 10.2762 9.83953 12.0289 7.24384 12.9296C6.94877 13.0316 6.62708 13.0472 6.31649 13.1049C5.10739 13.0893 4.36418 12.3173 4.50395 11.1237ZM15.8429 16.2818C15.6055 16.5347 15.3459 16.7011 14.8246 16.5281C14.3409 16.3705 13.7863 16.3705 13.2672 16.3972C10.6027 16.5347 8.3642 15.5297 6.34977 13.8924C6.24106 13.8037 6.13457 13.7105 6.02808 13.6173C6.01921 13.6085 6.01699 13.5885 6.02586 13.6151C6.53834 13.5197 7.07523 13.4842 7.56774 13.3178C9.57108 12.6478 11.042 11.3034 12.1623 9.55076C12.6504 8.78537 12.9898 7.95786 13.0808 7.04382C13.0986 6.85524 13.0986 6.66223 13.1096 6.45147C13.1407 6.46922 13.1718 6.47587 13.1873 6.49584C14.3986 7.92236 15.3681 9.48199 15.7541 11.3367C15.8895 11.9912 15.9006 12.6722 15.9472 13.3422C15.9915 13.9723 15.9494 14.609 16.047 15.2347C16.1601 15.9601 16.0403 16.0688 15.8429 16.2818Z" fill="white"/>
<path d="M7.94294 12.2352C9.40496 11.5763 10.5209 10.5181 11.3772 9.17365C11.7278 8.62123 11.9829 8.02888 12.0872 7.37663C12.2735 6.23409 11.6479 5.44873 10.5408 5.41101C10.2014 5.48644 9.85088 5.53081 9.52697 5.64618C8.14704 6.13203 7.09324 7.05495 6.19473 8.17974C6.1792 8.19971 6.15258 8.2219 6.1548 8.24186C6.16589 8.33948 6.15258 8.48812 6.20805 8.52362C6.28348 8.57021 6.41658 8.5458 6.5142 8.51474C6.5741 8.49478 6.61182 8.40603 6.66063 8.34835C7.41049 7.43653 8.28016 6.6667 9.38277 6.21634C9.77323 6.0566 10.2125 5.95899 10.634 5.9368C11.2242 5.90353 11.5836 6.26515 11.6301 6.8575C11.6479 7.07713 11.639 7.31673 11.5725 7.52306C10.8803 9.69722 9.41605 11.1481 7.31066 11.9601C7.02003 12.0733 6.67172 12.0955 6.35669 12.0733C5.80871 12.0378 5.50921 11.6917 5.47371 11.1393C5.46483 10.9995 5.45596 10.8486 5.49589 10.7177C5.63122 10.2829 5.78652 9.85474 5.94404 9.42878C5.9995 9.28014 6.02613 9.12928 5.85752 9.07381C5.77321 9.04719 5.59573 9.10709 5.55358 9.1803C5.20083 9.81259 4.95235 10.4781 5.01004 11.2236C5.06106 11.9091 5.47814 12.3905 6.14814 12.5281C6.78042 12.6523 7.37721 12.4904 7.94294 12.2352Z" fill="white"/>
<path d="M9.28448 9.03828C10.0277 8.97616 10.9062 8.03772 10.9218 7.29008C10.9306 6.82196 10.6223 6.54908 10.1519 6.61564C9.43756 6.71547 8.60783 7.63617 8.58564 8.35497C8.57233 8.78537 8.86518 9.07378 9.28448 9.03828ZM9.06706 8.32169C9.16246 8.07987 9.25564 7.81143 9.42646 7.62729C9.62835 7.40988 9.90123 7.25236 10.1652 7.10372C10.305 7.02607 10.447 7.08153 10.4536 7.28342C10.4692 7.75375 9.70378 8.56573 9.24677 8.56573C9.06263 8.57461 9.01825 8.44593 9.06706 8.32169Z" fill="white"/>
</g>
<defs>
<clipPath id="clip0_2_365">
<rect width="24" height="24" fill="white" transform="translate(0.330078)"/>
</clipPath>
</defs>
</svg>
