<svg width="9" height="14" viewBox="0 0 9 14" fill="none" xmlns="http://www.w3.org/2000/svg">
<g clip-path="url(#clip0_2_23)">
<g clip-path="url(#clip1_2_23)">
<path fill-rule="evenodd" clip-rule="evenodd" d="M7.54633 5.93771C7.7338 6.12524 7.83911 6.37955 7.83911 6.64471C7.83911 6.90988 7.7338 7.16418 7.54633 7.35171L1.88933 13.0087C1.79708 13.1042 1.68674 13.1804 1.56473 13.2328C1.44273 13.2852 1.31151 13.3128 1.17873 13.314C1.04595 13.3151 0.914275 13.2898 0.791379 13.2395C0.668482 13.1893 0.55683 13.115 0.462937 13.0211C0.369044 12.9272 0.294791 12.8156 0.24451 12.6927C0.194229 12.5698 0.168928 12.4381 0.170082 12.3053C0.171236 12.1725 0.198822 12.0413 0.251231 11.9193C0.30364 11.7973 0.379822 11.687 0.475332 11.5947L5.42533 6.64471L0.475332 1.69471C0.293174 1.50611 0.192379 1.25351 0.194658 0.99131C0.196936 0.729113 0.302105 0.478301 0.487513 0.292893C0.672921 0.107485 0.923734 0.00231622 1.18593 3.78028e-05C1.44812 -0.00224062 1.70073 0.0985537 1.88933 0.280712L7.54633 5.93771Z" fill="white"/>
</g>
</g>
<defs>
<clipPath id="clip0_2_23">
<rect width="8" height="14" fill="white" transform="translate(0.170044)"/>
</clipPath>
<clipPath id="clip1_2_23">
<rect width="8" height="14" fill="white" transform="translate(0.170044)"/>
</clipPath>
</defs>
</svg>
