<svg width="208" height="136" viewBox="0 0 208 136" fill="none" xmlns="http://www.w3.org/2000/svg">
<g clip-path="url(#clip0_2_938)">
<path d="M1.73709 120.192C-0.607271 107.74 -0.581787 94.9393 1.83238 82.4643C4.24655 69.9892 8.99853 58.103 15.8187 47.4255C17.6373 44.5785 21.4803 43.9854 24.2116 45.9735C26.9429 47.9617 27.5255 51.7773 25.731 54.6395C19.953 63.8555 15.9167 74.0749 13.8434 84.7886C11.77 95.5024 11.7024 106.49 13.6251 117.196C14.2222 120.521 12.2582 123.844 8.98236 124.67C5.70655 125.495 2.36219 123.511 1.73709 120.192Z" fill="#B3D6FF"/>
<path d="M33.9183 26.2531C48.5736 13.2796 66.7346 4.83189 86.1932 2.01669C105.652 -0.79852 125.462 2.15553 143.194 10.4435C146.254 11.874 147.345 15.6065 145.731 18.5744C144.117 21.5423 140.41 22.6189 137.338 21.2142C121.936 14.1726 104.79 11.6873 87.9449 14.1245C71.0994 16.5616 55.361 23.8045 42.5866 34.9225C40.0383 37.1404 36.1783 37.1585 33.7895 34.7697C31.4007 32.3809 31.3888 28.4924 33.9183 26.2531Z" fill="#79B7FF"/>
<path d="M162.112 21.9799C174.368 31.4515 184.273 43.6275 191.051 57.5551C192.53 60.5927 191.029 64.1801 187.907 65.4711C184.785 66.7621 181.227 65.2663 179.723 62.2413C173.89 50.5077 165.518 40.2168 155.218 32.1172C152.562 30.029 151.822 26.2407 153.722 23.4471C155.621 20.6534 159.439 19.9141 162.112 21.9799Z" fill="#297FFF"/>
<path d="M199.17 81.494C202.262 96.6716 201.808 112.361 197.842 127.334C196.977 130.6 193.497 132.335 190.29 131.274C187.083 130.212 185.366 126.755 186.203 123.482C189.452 110.788 189.836 97.5272 187.328 84.666C186.681 81.3501 188.596 77.9984 191.859 77.124C195.122 76.2497 198.495 78.1837 199.17 81.494Z" fill="#0D70E4"/>
<path d="M191.974 130.919C198.456 130.919 203.71 125.664 203.71 119.182C203.71 112.7 198.456 107.446 191.974 107.446C185.492 107.446 180.238 112.7 180.238 119.182C180.238 125.664 185.492 130.919 191.974 130.919Z" fill="#0D70E4" stroke="white" stroke-width="8.38313"/>
</g>
<defs>
<clipPath id="clip0_2_938">
<rect width="208" height="135" fill="white" transform="translate(0 0.97998)"/>
</clipPath>
</defs>
</svg>
