<svg width="201" height="30" viewBox="0 0 201 30" fill="none" xmlns="http://www.w3.org/2000/svg">
<path d="M53.1113 17.4892H61.7105C62.9196 17.4892 63.8994 18.4239 63.8994 19.5653C63.8994 20.7165 62.9196 21.6415 61.7105 21.6415H51.3393C51.1725 21.6415 51.0162 21.7005 50.9015 21.7989L47.7745 24.3473C47.295 24.7409 47.5869 25.4789 48.2123 25.4789H61.1894C61.1894 25.4789 61.1998 25.4789 61.1998 25.469C61.1998 25.4592 61.2102 25.4592 61.2102 25.4592C61.377 25.469 61.5333 25.4789 61.7105 25.4789C65.1502 25.4789 67.9437 22.832 67.9437 19.5653C67.9437 16.4658 65.4317 13.9174 62.2213 13.6714C62.2213 13.6714 62.2108 13.6714 62.2108 13.6616C62.2108 13.6517 62.2109 13.6517 62.2004 13.6517H52.9445C51.7354 13.6517 50.7556 12.717 50.7556 11.5756C50.7556 10.4243 51.7354 9.49942 52.9445 9.49942H63.2949C63.4617 9.49942 63.6284 9.44038 63.7535 9.33215L66.6616 6.7837C67.1203 6.39012 66.818 5.66199 66.203 5.66199H53.1113C53.0591 5.66199 52.9966 5.66199 52.9445 5.66199C49.5048 5.66199 46.7113 8.30883 46.7113 11.5756C46.7113 14.8423 49.5048 17.4892 52.9445 17.4892C52.9966 17.4892 53.0591 17.4892 53.1113 17.4892Z" fill="#124968"/>
<path d="M101.154 5.66199C100.792 5.66199 100.5 5.94705 100.5 6.31076V24.8301C100.5 25.184 100.792 25.4789 101.154 25.4789H116.339C116.52 25.4789 116.691 25.4003 116.821 25.2725L118.722 23.277C119.114 22.8642 118.823 22.1957 118.239 22.1957H104.985C104.623 22.1957 104.331 21.9107 104.331 21.547V6.31076C104.331 5.95688 104.04 5.66199 103.678 5.66199H101.154Z" fill="url(#paint0_linear_98_181)"/>
<path fill-rule="evenodd" clip-rule="evenodd" d="M77.2428 5.66199C75.2765 5.75059 73.6973 7.27648 73.6056 9.17646V21.6494C73.6056 21.6986 73.6056 21.7577 73.6056 21.8069C73.6056 23.7856 75.2153 25.4001 77.2428 25.4789H91.2008C93.2181 25.3903 94.838 23.7758 94.838 21.8069C94.838 21.7577 94.838 21.6986 94.838 21.6494V9.18631C94.7565 7.28632 93.1773 5.75059 91.211 5.67183H77.2428V5.66199ZM79.851 9.18631C78.6182 9.23553 77.63 10.2003 77.579 11.4013V19.2473C77.579 19.2769 77.579 19.3163 77.579 19.3458C77.579 20.5862 78.5877 21.61 79.851 21.6592H88.6028C89.8661 21.61 90.8747 20.5862 90.8747 19.3458C90.8747 19.3163 90.8747 19.2769 90.8747 19.2473V11.4013C90.8238 10.2003 89.8355 9.24537 88.6028 9.18631H79.851Z" fill="#124968"/>
<path fill-rule="evenodd" clip-rule="evenodd" d="M143.219 24.8298C143.219 25.1839 143.519 25.4789 143.891 25.4789H146.539C146.911 25.4789 147.211 25.1937 147.211 24.8298V9.48768C147.211 9.43851 147.211 9.3795 147.211 9.33033C147.211 7.35355 145.588 5.74066 143.561 5.66199H129.961C129.909 5.66199 129.847 5.66199 129.795 5.66199C127.685 5.66199 125.979 7.30438 125.979 9.34016C125.979 9.38933 125.979 9.44834 125.979 9.49752V24.8298C125.979 25.1839 126.279 25.4789 126.651 25.4789H129.299C129.671 25.4789 129.971 25.1937 129.971 24.8298V18.4471C129.971 18.093 130.271 17.798 130.643 17.798H142.578C142.95 17.798 143.25 18.0832 143.25 18.4471V24.8298H143.219ZM129.94 14.2772V11.0907C129.94 9.85157 130.984 8.84843 132.267 8.84843H140.892C142.175 8.84843 143.219 9.85157 143.219 11.0907V14.2772C143.219 14.6312 142.919 14.9263 142.547 14.9263H130.612C130.24 14.9263 129.94 14.6312 129.94 14.2772Z" fill="#2B506B"/>
<path fill-rule="evenodd" clip-rule="evenodd" d="M197.666 25.4789C197.298 25.4789 197.001 25.1937 197.001 24.8298V18.4471C197.001 18.093 196.704 17.798 196.336 17.798H184.401C184.032 17.798 183.736 18.0832 183.736 18.4471V24.8298C183.736 25.1838 183.439 25.4789 183.071 25.4789H180.432C180.064 25.4789 179.768 25.1937 179.768 24.8298V9.49752C179.768 9.44834 179.768 9.38934 179.768 9.34016C179.768 7.31422 181.476 5.66199 183.582 5.66199C183.634 5.66199 183.695 5.66199 183.746 5.66199H197.349C199.374 5.7505 201 7.36339 201 9.33033C201 9.3795 201 9.43851 201 9.48768V24.82C201 25.174 200.703 25.4691 200.335 25.4691H197.666V25.4789ZM183.726 11.1006V14.287C183.726 14.6411 184.022 14.9361 184.39 14.9361H196.326C196.694 14.9361 196.991 14.6509 196.991 14.287V11.1006C196.991 9.8614 195.948 8.85826 194.669 8.85826H186.047C184.759 8.85826 183.726 9.8614 183.726 11.1006Z" fill="#2B506B"/>
<path d="M156.581 5.66199C156.777 5.66199 156.963 5.74059 157.087 5.88796L168.942 19.3383C169.345 19.7902 170.119 19.5152 170.119 18.9158V6.31043C170.119 5.95674 170.419 5.66199 170.791 5.66199H173.434C173.806 5.66199 174.106 5.94691 174.106 6.31043V24.8206C174.106 25.1743 173.806 25.4691 173.434 25.4691H170.15C170.14 25.4691 170.13 25.4592 170.13 25.4494C170.13 25.4396 170.13 25.4396 170.119 25.4298L158.057 12.0777C157.655 11.6257 156.88 11.9106 156.88 12.5001V24.8304C156.88 25.1841 156.581 25.4789 156.209 25.4789H153.545C153.173 25.4789 152.873 25.194 152.873 24.8304V6.31043C152.873 5.95674 153.173 5.66199 153.545 5.66199H156.581Z" fill="#2B506B"/>
<path d="M6.21276 22.9955C6.44711 22.773 6.76201 22.6479 7.09156 22.6479H37.5933C38.1498 22.6479 38.4281 23.2875 38.0327 23.656L32.0055 29.3777C31.7712 29.6002 31.4563 29.7254 31.1267 29.7254H0.625056C0.0684828 29.7254 -0.209804 29.0857 0.185656 28.7173L6.21276 22.9955Z" fill="#124968"/>
<path d="M6.21276 0.347616C6.44711 0.125142 6.76201 0 7.09156 0H37.5933C38.1498 0 38.4281 0.639614 38.0327 1.00809L32.0056 6.72985C31.7712 6.95232 31.4563 7.07746 31.1267 7.07746H0.625056C0.0684828 7.07746 -0.209804 6.43785 0.185656 6.06938L6.21276 0.347616Z" fill="#124968"/>
<path d="M32.0055 10.326C31.7712 10.0588 31.4563 9.90845 31.1267 9.90845H0.625056C0.0684828 9.90845 -0.209804 10.6767 0.185656 11.1193L6.21276 17.9839C6.44711 18.2511 6.76201 18.4014 7.09156 18.4014H37.5933C38.1498 18.4014 38.4281 17.6331 38.0327 17.1905L32.0055 10.326Z" fill="#124968"/>
<defs>
<linearGradient id="paint0_linear_98_181" x1="100.5" y1="17.6937" x2="118.901" y2="17.6937" gradientUnits="userSpaceOnUse">
<stop stop-color="#124968"/>
<stop offset="1" stop-color="#2B506B"/>
</linearGradient>
</defs>
</svg>
