<svg width="11" height="10" viewBox="0 0 11 10" fill="none" xmlns="http://www.w3.org/2000/svg">
<path d="M10.3323 6.94006C10.3452 6.97765 10.3452 7.01848 10.3323 7.05606C10.3252 7.09358 10.3075 7.12828 10.2813 7.15606L8.57628 8.94906C8.53892 8.9878 8.49399 9.01844 8.44428 9.03906C8.39493 9.06123 8.34138 9.07248 8.28728 9.07206H0.202271C0.164804 9.07234 0.12803 9.06194 0.0962686 9.04206C0.0638412 9.0204 0.0379189 8.99033 0.0212716 8.95506C0.0102434 8.91923 0.0102434 8.8809 0.0212716 8.84506C0.0283082 8.80793 0.045248 8.77338 0.0702829 8.74506L1.77727 6.95307C1.81497 6.91428 1.86007 6.88341 1.90987 6.86229C1.95967 6.84117 2.01318 6.83021 2.06728 6.83006H10.1393C10.1783 6.83006 10.2163 6.84006 10.2483 6.86306C10.2846 6.87779 10.3145 6.90513 10.3323 6.94006ZM8.58028 3.53607C8.54145 3.49864 8.49646 3.46819 8.44728 3.44606C8.39736 3.42583 8.34412 3.41499 8.29027 3.41406H0.202271C0.164241 3.4144 0.127083 3.42546 0.0950631 3.44599C0.063043 3.46651 0.0374619 3.49565 0.0212716 3.53006C0.0102434 3.5659 0.0102434 3.60422 0.0212716 3.64006C0.0267555 3.6777 0.0439025 3.71267 0.0702829 3.74006L1.77727 5.53507C1.81591 5.57271 1.86096 5.60319 1.91028 5.62506C1.96028 5.64606 2.01328 5.65706 2.06728 5.65806H10.1393C10.178 5.65876 10.2161 5.64759 10.2483 5.62606C10.2811 5.60733 10.3063 5.57757 10.3193 5.54206C10.3364 5.50809 10.342 5.46949 10.3353 5.43206C10.3294 5.39414 10.3115 5.35911 10.2843 5.33206L8.58028 3.53607ZM0.0962686 2.21206C0.127269 2.23206 0.164271 2.24206 0.202271 2.24206H8.29027C8.34435 2.24185 8.39787 2.23088 8.44766 2.20976C8.49746 2.18864 8.54254 2.15781 8.58028 2.11907L10.2843 0.326059C10.3107 0.298334 10.3288 0.263652 10.3363 0.22606C10.3473 0.190223 10.3473 0.151897 10.3363 0.11606C10.3226 0.0809657 10.2976 0.051419 10.2653 0.0320599C10.2327 0.010448 10.1943 -0.000713377 10.1553 6.22502e-05H2.05428C2.00023 -0.00093186 1.94663 0.00999143 1.89728 0.0320599C1.84758 0.0527057 1.80265 0.0833426 1.76527 0.122064L0.0602731 1.92206C0.0333258 1.94944 0.0152098 1.98428 0.00827115 2.02207C-0.00275705 2.0579 -0.00275705 2.09623 0.00827115 2.13207C0.0294138 2.16655 0.0599346 2.19429 0.0962686 2.21206Z" fill="url(#paint0_linear_519_10236)"/>
<defs>
<linearGradient id="paint0_linear_519_10236" x1="0.873271" y1="9.28806" x2="9.17627" y2="-0.256941" gradientUnits="userSpaceOnUse">
<stop offset="0.08" stop-color="#9945FF"/>
<stop offset="0.3" stop-color="#8752F3"/>
<stop offset="0.5" stop-color="#5497D5"/>
<stop offset="0.6" stop-color="#43B4CA"/>
<stop offset="0.72" stop-color="#28E0B9"/>
<stop offset="0.97" stop-color="#19FB9B"/>
</linearGradient>
</defs>
</svg>
