<svg width="70" height="11" viewBox="0 0 70 11" fill="none" xmlns="http://www.w3.org/2000/svg">
<g clip-path="url(#clip0_2_9121)">
<mask id="mask0_2_9121" style="mask-type:luminance" maskUnits="userSpaceOnUse" x="0" y="0" width="70" height="11">
<path d="M69.5 0H0.5V11H69.5V0Z" fill="white"/>
</mask>
<g mask="url(#mask0_2_9121)">
<path d="M15.5274 3.32724C16.7549 3.33824 17.7237 4.31677 17.7063 5.52717C17.6889 6.73801 16.6884 7.69319 15.4658 7.66638C14.257 7.63998 13.3091 6.68257 13.3123 5.49153C13.3154 4.28157 14.3029 3.31624 15.5274 3.32724Z" fill="#C74AE3"/>
<path d="M18.3824 10.1282C16.4649 11.6514 13.0383 11.1063 11.2635 9.05637C9.31116 6.80144 9.53914 3.41839 11.7783 1.41514C13.9902 -0.563479 17.4122 -0.454363 19.4984 1.66153C21.5235 3.71538 21.6132 7.12305 19.7179 9.04626C19.2754 8.58908 18.8325 8.13106 18.3681 7.65146C19.0867 6.66065 19.3093 5.52681 18.8798 4.30937C18.2384 2.49178 16.2066 1.53262 14.3537 2.15212C12.5227 2.76414 11.5205 4.70843 12.0923 6.53877C12.6703 8.38936 14.6312 9.44047 16.5131 8.87026C16.8877 8.75676 17.0956 8.82317 17.3378 9.09817C17.6581 9.46247 18.0287 9.78368 18.3824 10.1282ZM0.5 3.33523C0.5 2.89613 0.585195 2.48342 0.755138 2.09844C0.925082 1.71345 1.15658 1.37642 1.44964 1.08779C1.74268 0.799156 2.08391 0.570804 2.4742 0.403169C2.86449 0.235535 3.28244 0.151497 3.72804 0.151497H8.66758V2.27663H3.72804C3.57772 2.27663 3.43766 2.30391 3.30741 2.35803C3.17717 2.41259 3.06343 2.48782 2.96574 2.58374C2.86806 2.6801 2.79178 2.7923 2.73692 2.92077C2.68161 3.04925 2.6544 3.1874 2.6544 3.33567C2.6544 3.48395 2.68161 3.62343 2.73692 3.7541C2.79178 3.88478 2.86851 3.99829 2.96574 4.09465C3.06343 4.19101 3.17717 4.26625 3.30741 4.32037C3.43766 4.37492 3.57772 4.40176 3.72804 4.40176H5.88244C6.32804 4.40176 6.74688 4.48448 7.13984 4.64991C7.53284 4.81535 7.8754 5.04238 8.16841 5.33101C8.46148 5.61964 8.69121 5.95799 8.8589 6.34562C9.02659 6.73324 9.1105 7.14684 9.1105 7.58594C9.1105 8.02546 9.02659 8.43776 8.8589 8.82276C8.69121 9.20776 8.461 9.54477 8.16841 9.83338C7.87582 10.122 7.53284 10.3504 7.13984 10.5185C6.74688 10.6865 6.32759 10.7701 5.88244 10.7701H1.10038V8.64497H5.88244C6.03275 8.64497 6.17237 8.61768 6.30306 8.56357C6.4333 8.50946 6.54705 8.43377 6.64473 8.33786C6.74242 8.24196 6.81869 8.12934 6.87355 8.00085C6.92842 7.87236 6.95607 7.73424 6.95607 7.58594C6.95607 7.43765 6.92842 7.29953 6.87355 7.17104C6.81824 7.04254 6.74197 6.93034 6.64473 6.834C6.54705 6.73764 6.4333 6.66241 6.30306 6.60829C6.17282 6.55417 6.03275 6.52689 5.88244 6.52689H3.72804C3.28244 6.52689 2.86449 6.44286 2.4742 6.27522C2.08391 6.10758 1.74224 5.87923 1.44964 5.59017C1.15703 5.30153 0.925082 4.96319 0.755138 4.57599C0.585195 4.18837 0.5 3.77478 0.5 3.33523ZM30.0184 10.7701H22.4812V0.151057H24.6356V8.64497H30.018L30.0184 10.7701ZM30.2888 3.33523C30.2888 2.89613 30.3739 2.48342 30.5439 2.09844C30.7138 1.71345 30.9453 1.37642 31.2384 1.08779C31.5314 0.799156 31.8726 0.570804 32.2629 0.402729C32.6532 0.235095 33.0712 0.151057 33.5168 0.151057H38.4563V2.27619H33.5168C33.3664 2.27619 33.2264 2.30347 33.0962 2.35759C32.9659 2.41215 32.8521 2.48738 32.7545 2.5833C32.6568 2.67966 32.5805 2.79186 32.5257 2.92033C32.4703 3.04881 32.4432 3.18696 32.4432 3.33523C32.4432 3.48351 32.4703 3.62299 32.5257 3.75366C32.5805 3.88434 32.6573 3.99785 32.7545 4.09421C32.8521 4.19057 32.9659 4.26581 33.0962 4.31993C33.2264 4.37448 33.3664 4.40132 33.5168 4.40132H35.6712C36.1168 4.40132 36.5356 4.48404 36.9286 4.64947C37.3215 4.81491 37.6641 5.04194 37.9572 5.33057C38.2502 5.6192 38.4799 5.95755 38.6477 6.34518C38.8153 6.7328 38.8992 7.14642 38.8992 7.58553C38.8992 8.02505 38.8153 8.43734 38.6477 8.82228C38.4799 9.20728 38.2498 9.54429 37.9572 9.83297C37.6646 10.1216 37.3215 10.3499 36.9286 10.518C36.5356 10.6861 36.1163 10.7697 35.6712 10.7697H30.8891V8.64456H35.6712C35.8215 8.64456 35.9615 8.61726 36.0918 8.56316C36.2221 8.50905 36.3358 8.43336 36.4335 8.33745C36.5312 8.24106 36.6074 8.12886 36.6623 8.00044C36.7171 7.87194 36.7448 7.73376 36.7448 7.58553C36.7448 7.43724 36.7171 7.29905 36.6623 7.17063C36.607 7.04213 36.5307 6.92993 36.4335 6.83356C36.3358 6.7372 36.2221 6.66197 36.0918 6.60785C35.9615 6.55373 35.8215 6.52645 35.6712 6.52645H33.5168C33.0712 6.52645 32.6532 6.44242 32.2629 6.27478C31.8726 6.10715 31.531 5.87879 31.2384 5.58973C30.9458 5.30109 30.7138 4.96275 30.5439 4.57511C30.3735 4.18837 30.2888 3.77478 30.2888 3.33523ZM48.9063 9.68158C48.4058 10.1062 47.8452 10.4322 47.2246 10.6592C46.6042 10.8863 45.961 10.9998 45.2955 10.9998C44.7852 10.9998 44.2933 10.9342 43.8204 10.8036C43.3476 10.6729 42.9047 10.4877 42.4917 10.2483C42.0786 10.009 41.7022 9.72118 41.3619 9.38548C41.0215 9.04977 40.7298 8.67845 40.4872 8.27097C40.2445 7.86356 40.0567 7.42665 39.9242 6.96025C39.7917 6.49389 39.7253 6.00859 39.7253 5.50525C39.7253 5.0019 39.7917 4.51528 39.9242 4.04625C40.0567 3.57723 40.2445 3.139 40.4872 2.73202C40.7298 2.32459 41.021 1.95324 41.3619 1.61753C41.7022 1.28182 42.0786 0.994509 42.4917 0.754716C42.9047 0.515366 43.3476 0.330132 43.8204 0.199456C44.2933 0.0687804 44.7852 0.0032224 45.2955 0.0032224C45.961 0.0032224 46.6042 0.115419 47.2246 0.340251C47.8452 0.565084 48.4058 0.891996 48.9063 1.32142L47.7653 3.17288C47.4499 2.83718 47.077 2.57934 46.6466 2.39895C46.2161 2.21899 45.7657 2.1288 45.2955 2.1288C44.82 2.1288 44.3745 2.21767 43.9592 2.39543C43.5435 2.57318 43.1808 2.81386 42.8708 3.11744C42.5604 3.42103 42.3155 3.77918 42.1353 4.19101C41.9551 4.60327 41.8649 5.0415 41.8649 5.50525C41.8649 5.96943 41.9551 6.40502 42.1353 6.81244C42.3155 7.21985 42.5604 7.57625 42.8708 7.88246C43.1812 8.18874 43.5439 8.43026 43.9592 8.60805C44.3745 8.78577 44.82 8.87466 45.2955 8.87466C45.7657 8.87466 46.2161 8.78446 46.6466 8.60448C47.077 8.42456 47.4499 8.16626 47.7653 7.83056L48.9063 9.68158ZM58.643 10.7701H56.4886V8.64497H52.1793V10.7701H50.0321V4.40176C50.0321 3.81438 50.1445 3.26264 50.3697 2.74654C50.595 2.23087 50.9014 1.78033 51.2895 1.3949C51.6771 1.00991 52.133 0.706323 52.6557 0.484127C53.1785 0.261934 53.7378 0.151057 54.3337 0.151057C54.9292 0.151057 55.4885 0.261934 56.0118 0.484127C56.5345 0.706323 56.9913 1.00991 57.382 1.3949C57.7723 1.77988 58.0801 2.23043 58.3053 2.74654C58.5306 3.26264 58.643 3.81438 58.643 4.40176V10.7701ZM56.4886 6.52689V4.40176C56.4886 4.11049 56.4324 3.83506 56.3195 3.57591C56.2071 3.31675 56.0532 3.09104 55.8579 2.89833C55.6625 2.70562 55.4337 2.55382 55.171 2.44294C54.9082 2.33207 54.629 2.27619 54.3337 2.27619C54.0385 2.27619 53.7592 2.33163 53.4965 2.44294C53.2338 2.55382 53.005 2.70562 52.8096 2.89833C52.6142 3.09104 52.4603 3.31675 52.3479 3.57591C52.2356 3.83506 52.1789 4.11049 52.1789 4.40176V6.52689H56.4886ZM69.1233 10.7701H66.8186L62.6673 3.77962V10.7701H60.5129V0.151057H62.8175L66.9689 7.14904V0.151057H69.1233V10.7701Z" fill="#F2FEFB"/>
</g>
</g>
<defs>
<clipPath id="clip0_2_9121">
<rect width="69" height="11" fill="white" transform="translate(0.5)"/>
</clipPath>
</defs>
</svg>
