<svg width="234" height="204" viewBox="0 0 234 204" fill="none" xmlns="http://www.w3.org/2000/svg">
<path d="M82.932 84.4819L88.8676 49.7886H194.512L200.448 84.4819H82.932Z" fill="#28B4E5"/>
<path d="M219.221 84.4819H23.5759V94.3746H219.221V84.4819Z" fill="#123266"/>
<path d="M233.209 128.792H9.58838L23.5761 94.3746H219.221L233.209 128.792Z" fill="#ABC1C6"/>
<path d="M62.7325 94.3746H34.5269V128.838H62.7325V94.3746Z" fill="#D2E7EA"/>
<path d="M110.954 94.3746H82.748V128.838H110.954V94.3746Z" fill="#D2E7EA"/>
<path d="M159.175 94.3746H130.969V128.838H159.175V94.3746Z" fill="#D2E7EA"/>
<path d="M207.396 94.3746H179.19V128.838H207.396V94.3746Z" fill="#D2E7EA"/>
<path d="M212.457 128.792H30.2941V193.854H212.457V128.792Z" fill="#8BADC1"/>
<path d="M48.7909 143.746V194.912H86.4751V143.746H48.7909ZM82.9321 190.817H52.3799V147.887H82.9321V190.817Z" fill="#50554F"/>
<path d="M82.9319 147.887H52.3796V194.958H82.9319V147.887Z" fill="#8DC5C2"/>
<path d="M76.3064 147.887C70.785 156.077 61.6745 169.513 52.334 183.133V163.669L64.9874 147.841H76.3064V147.887Z" fill="#B5E8E4"/>
<path d="M82.932 159.62V183.501C80.3553 187.274 77.7326 191.093 75.1559 194.912H54.6344L82.932 159.62Z" fill="#B5E8E4"/>
<path d="M212.503 133.577H106.031V193.853H212.503V133.577Z" fill="#50554F"/>
<path d="M212.457 136.43H108.837V193.853H212.457V136.43Z" fill="#8DC5C2"/>
<path d="M148.086 136.43C137.917 154.789 126.368 175.494 116.061 193.853H108.837V162.703L126.23 136.43H148.086Z" fill="#B5E8E4"/>
<path d="M181.03 136.43C171.828 153.132 159.589 175.126 149.052 193.853H127.702L165.754 136.43H181.03Z" fill="#B5E8E4"/>
<path d="M212.457 136.43V167.028C207.442 176.001 202.426 185.019 197.503 193.853H159.727L197.779 136.43H212.457Z" fill="#B5E8E4"/>
<path d="M131.981 136.43H131.291V193.853H131.981V136.43Z" fill="#50554F"/>
<path d="M160.555 136.43H159.865V193.853H160.555V136.43Z" fill="#50554F"/>
<path d="M189.175 136.43H188.484V193.853H189.175V136.43Z" fill="#50554F"/>
<path d="M212.457 151.016H108.837V151.706H212.457V151.016Z" fill="#50554F"/>
<path d="M212.457 179.636H108.837V180.326H212.457V179.636Z" fill="#50554F"/>
<path d="M67.978 146.645H67.2878V194.958H67.978V146.645Z" fill="#50554F"/>
<path d="M64.1592 171.4C64.1592 172.55 63.2389 173.47 62.0886 173.47C60.9383 173.47 60.0181 172.55 60.0181 171.4C60.0181 170.249 60.9383 169.329 62.0886 169.329C63.2389 169.329 64.1592 170.295 64.1592 171.4Z" fill="#50554F"/>
<path d="M74.834 171.4C74.834 172.55 73.9137 173.47 72.7634 173.47C71.6131 173.47 70.6929 172.55 70.6929 171.4C70.6929 170.249 71.6131 169.329 72.7634 169.329C73.9137 169.375 74.834 170.295 74.834 171.4Z" fill="#50554F"/>
<path d="M54.9106 133.577H38.9904V139.651H54.9106V133.577Z" fill="#648B9B"/>
<path d="M93.1008 133.071H77.1805V139.145H93.1008V133.071Z" fill="#A3BFD6"/>
<path d="M106.03 146.645H92.9629V152.718H106.03V146.645Z" fill="#648B9B"/>
<path d="M105.984 183.501H94.4353V189.574H105.984V183.501Z" fill="#648B9B"/>
<path d="M40.7849 148.715H30.2941V154.789H40.7849V148.715Z" fill="#A3BFD6"/>
<path d="M48.6069 173.47H38.9904V179.544H48.6069V173.47Z" fill="#648B9B"/>
<path d="M96.1376 167.764H86.521V173.838H96.1376V167.764Z" fill="#A3BFD6"/>
<path d="M101.199 77.074C99.8191 76.7519 98.6688 76.2918 97.7485 75.7396L99.681 71.3684C100.509 71.8746 101.476 72.2427 102.534 72.5648C103.592 72.8408 104.604 73.0249 105.571 73.0249C106.399 73.0249 106.997 72.9329 107.365 72.7948C107.733 72.6568 107.917 72.3807 107.917 72.0586C107.917 71.6905 107.687 71.4144 107.227 71.2304C106.767 71.0464 105.985 70.8623 104.926 70.6322C103.546 70.3562 102.396 70.0341 101.476 69.712C100.555 69.3899 99.7731 68.8378 99.0829 68.1016C98.3927 67.3654 98.0706 66.3071 98.0706 65.0187C98.0706 63.9144 98.3927 62.9021 98.9908 61.9819C99.635 61.0617 100.555 60.3255 101.798 59.8193C103.04 59.3132 104.558 59.0371 106.353 59.0371C107.549 59.0371 108.792 59.1751 109.942 59.4512C111.138 59.7273 112.15 60.0954 113.071 60.6015L111.276 64.9267C109.528 64.0525 107.871 63.5923 106.307 63.5923C104.788 63.5923 104.006 63.9604 104.006 64.6966C104.006 65.0647 104.236 65.3408 104.696 65.4788C105.157 65.6629 105.893 65.847 106.951 66.031C108.285 66.3071 109.436 66.5831 110.402 66.9052C111.322 67.2273 112.15 67.7795 112.841 68.5157C113.531 69.2519 113.853 70.2641 113.853 71.5525C113.853 72.6568 113.531 73.6691 112.933 74.5893C112.288 75.5095 111.368 76.1997 110.126 76.7519C108.884 77.304 107.365 77.5341 105.571 77.5341C104.006 77.5801 102.58 77.3961 101.199 77.074Z" fill="white"/>
<path d="M119.144 64.0523H113.945V59.405H130.371V64.0523H125.126V77.1658H119.144V64.0523Z" fill="white"/>
<path d="M135.801 76.3837C134.282 75.6015 133.086 74.4972 132.212 73.0708C131.337 71.6444 130.923 70.08 130.923 68.2855C130.923 66.491 131.337 64.9266 132.212 63.5002C133.086 62.0738 134.282 60.9695 135.801 60.1873C137.319 59.4051 139.022 58.991 140.954 58.991C142.887 58.991 144.589 59.4051 146.107 60.1873C147.626 60.9695 148.822 62.0738 149.696 63.5002C150.571 64.9266 150.985 66.491 150.985 68.2855C150.985 70.08 150.571 71.6444 149.696 73.0708C148.822 74.4972 147.626 75.6015 146.107 76.3837C144.589 77.1659 142.887 77.58 140.954 77.58C139.068 77.58 137.319 77.1659 135.801 76.3837ZM142.979 72.1965C143.577 71.8284 144.037 71.3223 144.405 70.6321C144.773 69.9419 144.957 69.1597 144.957 68.2855C144.957 67.3652 144.773 66.583 144.405 65.9388C144.037 65.2947 143.577 64.7425 142.979 64.3744C142.38 64.0063 141.69 63.8223 140.954 63.8223C140.218 63.8223 139.528 64.0063 138.93 64.3744C138.331 64.7425 137.871 65.2487 137.503 65.9388C137.135 66.629 136.951 67.4112 136.951 68.2855C136.951 69.2057 137.135 69.9879 137.503 70.6321C137.871 71.3223 138.331 71.8284 138.93 72.1965C139.528 72.5646 140.218 72.7487 140.954 72.7487C141.69 72.7027 142.38 72.5646 142.979 72.1965Z" fill="white"/>
<path d="M160.785 72.7026H159.175V77.1658H153.193V59.405H161.752C163.408 59.405 164.834 59.6811 166.031 60.2333C167.227 60.7854 168.193 61.5676 168.837 62.5799C169.482 63.5922 169.85 64.7885 169.85 66.1228C169.85 67.4112 169.574 68.5155 168.976 69.4357C168.377 70.402 167.549 71.1382 166.491 71.6904L170.218 77.1658H163.822L160.785 72.7026ZM163.178 64.5584C162.764 64.1903 162.166 64.0063 161.337 64.0063H159.175V68.1934H161.337C162.166 68.1934 162.764 68.0094 163.178 67.6413C163.592 67.2732 163.776 66.767 163.776 66.1228C163.822 65.4327 163.592 64.9265 163.178 64.5584Z" fill="white"/>
<path d="M186.874 72.6566V77.1658H172.104V59.405H186.552V63.9143H177.994V65.9848H185.494V70.31H177.994V72.6566H186.874Z" fill="white"/>
<path d="M228.377 203.516H16.5363C13.8675 203.516 11.705 201.353 11.705 198.685C11.705 196.016 13.8675 193.853 16.5363 193.853H228.377C231.046 193.853 233.209 196.016 233.209 198.685C233.209 201.353 231.046 203.516 228.377 203.516Z" fill="#365E99"/>
</svg>
