<svg width="87" height="42" viewBox="0 0 87 42" fill="none" xmlns="http://www.w3.org/2000/svg">
<rect width="87" height="42" rx="21" fill="#00C7F3"/>
<g filter="url(#filter0_i_225_254)">
<ellipse cx="65.8598" cy="21" rx="15.4486" ry="15.3462" fill="white"/>
</g>
<path d="M25.8317 20.5962C25.8317 22.491 24.2836 24.0385 22.3598 24.0385C20.436 24.0385 18.8878 22.491 18.8878 20.5962C18.8878 18.7013 20.436 17.1538 22.3598 17.1538C24.2836 17.1538 25.8317 18.7013 25.8317 20.5962Z" stroke="white" stroke-width="2"/>
<path d="M15.8551 14.1346L18.1606 16.4248" stroke="white" stroke-linecap="round"/>
<path d="M26.8318 25.0385L29.271 27.4615" stroke="white" stroke-linecap="round"/>
<path d="M29.271 14.1346L26.8318 16.4248" stroke="white" stroke-linecap="round"/>
<path d="M18.1606 25.0385L15.8552 27.4615" stroke="white" stroke-linecap="round"/>
<path d="M22.7664 26.6538L22.7664 30.6923" stroke="white" stroke-linecap="round"/>
<path d="M22.7664 10.5L22.7664 14.5385" stroke="white" stroke-linecap="round"/>
<path d="M32.5233 21L28.4579 21" stroke="white" stroke-linecap="round"/>
<path d="M16.2617 21L12.1963 21" stroke="white" stroke-linecap="round"/>
<path d="M21.9532 26.6538L21.9532 30.6923" stroke="white" stroke-linecap="round"/>
<path d="M21.9532 10.5L21.9532 14.5385" stroke="white" stroke-linecap="round"/>
<path d="M32.5233 20.1923L28.4579 20.1923" stroke="white" stroke-linecap="round"/>
<path d="M16.2617 20.1923L12.1963 20.1923" stroke="white" stroke-linecap="round"/>
<defs>
<filter id="filter0_i_225_254" x="50.4113" y="5.65385" width="30.8972" height="34.6923" filterUnits="userSpaceOnUse" color-interpolation-filters="sRGB">
<feFlood flood-opacity="0" result="BackgroundImageFix"/>
<feBlend mode="normal" in="SourceGraphic" in2="BackgroundImageFix" result="shape"/>
<feColorMatrix in="SourceAlpha" type="matrix" values="0 0 0 0 0 0 0 0 0 0 0 0 0 0 0 0 0 0 127 0" result="hardAlpha"/>
<feOffset dy="4"/>
<feGaussianBlur stdDeviation="2"/>
<feComposite in2="hardAlpha" operator="arithmetic" k2="-1" k3="1"/>
<feColorMatrix type="matrix" values="0 0 0 0 0 0 0 0 0 0 0 0 0 0 0 0 0 0 0.25 0"/>
<feBlend mode="normal" in2="shape" result="effect1_innerShadow_225_254"/>
</filter>
</defs>
</svg>
