<svg width="285" height="152" viewBox="0 0 285 152" fill="none" xmlns="http://www.w3.org/2000/svg">
<path d="M183.472 104.224H23.8542V131.445H183.472V104.224Z" fill="#3A556A"/>
<path d="M181.531 0H0V112.328H181.531V0Z" fill="#F7BE56"/>
<path d="M8.04663 19.4789V11.4514H170.556L8.04663 19.4789Z" fill="#1C232F"/>
<path d="M173.485 93.6858V101.105H12.802L173.485 93.6858Z" fill="#FBD361"/>
<path d="M276.492 138.94H183.472V116.646H280.334V135.098C280.334 137.228 278.603 138.94 276.492 138.94Z" fill="#64798A"/>
<path d="M276.492 116.646H183.472V28.3245H223.59C228.745 28.3245 233.691 30.5501 237.02 34.4877C241.909 40.2706 248.167 51.1324 252.428 71.144C265.668 78.715 272.801 84.4407 276.53 88.036C278.946 90.3758 280.334 93.6096 280.334 96.9765V112.803C280.334 114.934 278.603 116.646 276.492 116.646Z" fill="#E56353"/>
<path d="M212.652 119.138H187.618V122.543H212.652V119.138Z" fill="#F7BE56"/>
<path d="M212.652 123.589H187.618V126.994H212.652V123.589Z" fill="#F7BE56"/>
<path d="M212.652 128.04H187.618V131.445H212.652V128.04Z" fill="#F7BE56"/>
<path d="M212.652 132.472H187.618V135.877H212.652V132.472Z" fill="#F7BE56"/>
<path d="M203.122 75.6141H244.229C244.229 75.6141 244.267 60.4532 234.09 50.2952C223.019 39.2622 211.796 39.2432 203.122 39.2432V75.6141Z" fill="#27A2DB"/>
<path d="M280.334 135.002V120.926C282.788 120.926 284.785 122.923 284.785 125.377V130.551C284.766 133.024 282.788 135.002 280.334 135.002Z" fill="#F7BE56"/>
<path d="M268.997 127.793C268.997 140.804 258.439 151.362 245.428 151.362C232.417 151.362 221.859 140.804 221.859 127.793C221.859 114.782 232.417 104.224 245.428 104.224C258.439 104.224 268.997 114.763 268.997 127.793Z" fill="#2E4859"/>
<path d="M257.488 127.793C257.488 133.119 254.045 137.628 249.27 139.225C248.072 139.625 246.779 139.853 245.428 139.853C244.077 139.853 242.803 139.644 241.585 139.225C236.811 137.628 233.368 133.119 233.368 127.793C233.368 121.135 238.77 115.733 245.428 115.733C252.086 115.733 257.488 121.135 257.488 127.793Z" fill="#EBF0F3"/>
<path d="M249.27 139.225C248.072 139.625 246.778 139.853 245.428 139.853C244.077 139.853 242.803 139.644 241.585 139.225C242.099 137.057 243.621 135.478 245.428 135.478C247.235 135.459 248.757 137.038 249.27 139.225Z" fill="#657A8B"/>
<path d="M241.585 116.36C242.784 115.961 244.077 115.733 245.428 115.733C246.778 115.733 248.053 115.942 249.27 116.36C248.757 118.529 247.235 120.108 245.428 120.108C243.621 120.108 242.08 118.529 241.585 116.36Z" fill="#657A8B"/>
<path d="M237.553 136.943C236.583 136.106 235.746 135.116 235.061 133.975C234.376 132.815 233.9 131.597 233.634 130.361C235.765 129.676 237.914 130.19 238.827 131.749C239.759 133.271 239.17 135.383 237.553 136.943Z" fill="#657A8B"/>
<path d="M253.284 118.643C254.254 119.48 255.091 120.469 255.776 121.611C256.461 122.771 256.937 123.988 257.203 125.225C255.072 125.91 252.923 125.396 252.01 123.836C251.097 122.315 251.667 120.184 253.284 118.643Z" fill="#657A8B"/>
<path d="M233.558 125.643C233.786 124.388 234.204 123.151 234.851 121.991C235.498 120.812 236.316 119.784 237.248 118.928C238.903 120.431 239.55 122.524 238.694 124.102C237.838 125.681 235.707 126.252 233.558 125.643Z" fill="#657A8B"/>
<path d="M257.298 129.942C257.07 131.198 256.632 132.434 256.004 133.595C255.358 134.774 254.54 135.801 253.608 136.657C251.953 135.155 251.306 133.062 252.162 131.483C253.018 129.904 255.148 129.334 257.298 129.942Z" fill="#657A8B"/>
<path d="M76.8696 127.793C76.8696 140.804 66.3121 151.362 53.3008 151.362C40.2894 151.362 29.7319 140.804 29.7319 127.793C29.7319 114.782 40.2894 104.224 53.3008 104.224C66.3121 104.224 76.8696 114.763 76.8696 127.793Z" fill="#2E4859"/>
<path d="M65.361 127.793C65.361 133.119 61.9179 137.628 57.1433 139.225C55.9448 139.625 54.6513 139.853 53.3007 139.853C51.9501 139.853 50.6756 139.644 49.4582 139.225C44.6835 137.628 41.2405 133.119 41.2405 127.793C41.2405 121.135 46.6429 115.733 53.3007 115.733C59.9586 115.733 65.361 121.135 65.361 127.793Z" fill="#EBF0F3"/>
<path d="M57.1438 139.225C55.9454 139.625 54.6519 139.853 53.3013 139.853C51.9507 139.853 50.6762 139.644 49.4587 139.225C49.9723 137.057 51.4941 135.478 53.3013 135.478C55.1084 135.459 56.6302 137.038 57.1438 139.225Z" fill="#657A8B"/>
<path d="M49.4587 116.36C50.6572 115.961 51.9507 115.733 53.3013 115.733C54.6519 115.733 55.9264 115.942 57.1438 116.36C56.6302 118.529 55.1084 120.108 53.3013 120.108C51.4941 120.108 49.9533 118.529 49.4587 116.36Z" fill="#657A8B"/>
<path d="M45.426 136.943C44.4558 136.106 43.6188 135.116 42.934 133.975C42.2492 132.815 41.7736 131.597 41.5073 130.361C43.6378 129.676 45.7874 130.19 46.7005 131.749C47.6326 133.271 47.0429 135.383 45.426 136.943Z" fill="#657A8B"/>
<path d="M61.1571 118.643C62.1273 119.48 62.9643 120.469 63.6491 121.611C64.3339 122.771 64.8095 123.988 65.0758 125.225C62.9453 125.91 60.7957 125.396 59.8826 123.836C58.9696 122.315 59.5402 120.184 61.1571 118.643Z" fill="#657A8B"/>
<path d="M41.4309 125.643C41.6592 124.388 42.0777 123.151 42.7244 121.991C43.3712 120.812 44.1892 119.784 45.1213 118.928C46.7762 120.431 47.423 122.524 46.567 124.102C45.711 125.681 43.5804 126.252 41.4309 125.643Z" fill="#657A8B"/>
<path d="M65.1713 129.942C64.943 131.198 64.5245 132.434 63.8778 133.595C63.231 134.774 62.4131 135.801 61.481 136.657C59.826 135.155 59.1792 133.062 60.0352 131.483C60.8913 129.904 63.0218 129.334 65.1713 129.942Z" fill="#657A8B"/>
<path d="M150.582 142.231H105.898C100.306 142.231 95.7593 137.685 95.7593 132.092V127.527C95.7593 121.934 100.306 117.388 105.898 117.388H150.582C156.175 117.388 160.721 121.934 160.721 127.527V132.092C160.721 137.685 156.175 142.231 150.582 142.231Z" fill="#64798A"/>
<path d="M144.818 117.369H111.376V142.231H144.818V117.369Z" fill="#D5D6DB"/>
<path d="M23.8538 115.581H20.2966V129.752H23.8538V115.581Z" fill="#395469"/>
<path d="M20.297 129.733H17.5387C16.112 129.733 14.9517 128.573 14.9517 127.146V118.168C14.9517 116.741 16.112 115.581 17.5387 115.581H20.278V129.733H20.297Z" fill="#E46253"/>
<path d="M213.489 82.1011C213.489 82.1011 212.424 83.3185 209.97 83.3185C207.516 83.3185 206.451 82.1011 206.451 82.1011C206.451 82.1011 205.176 82.4245 205.176 84.612C205.176 86.7996 209.97 86.5904 209.97 86.5904C209.97 86.5904 214.764 86.7996 214.764 84.612C214.764 82.4245 213.489 82.1011 213.489 82.1011Z" fill="#2C4658"/>
</svg>
