<svg width="685" height="157" viewBox="0 0 685 157" fill="none" xmlns="http://www.w3.org/2000/svg">
<mask id="mask0_7_10" style="mask-type:alpha" maskUnits="userSpaceOnUse" x="0" y="0" width="685" height="157">
<path d="M11.4209 0H0V156.94H11.4209V0Z" fill="#010101"/>
<path d="M26.0567 0H14.6358V156.94H26.0567V0Z" fill="#010101"/>
<path d="M60.9116 0H43.738V144.569H60.9116V0Z" fill="#010101"/>
<path d="M75.4629 0H66.6646V144.569H75.4629V0Z" fill="#010101"/>
<path d="M98.5581 0H78.3389V144.569H98.5581V0Z" fill="#010101"/>
<path d="M127.576 0H107.441V144.569H127.576V0Z" fill="#010101"/>
<path d="M153.802 0H136.459V144.569H153.802V0Z" fill="#010101"/>
<path d="M176.982 0H159.639V144.569H176.982V0Z" fill="#010101"/>
<path d="M209.044 0H179.942V144.569H209.044V0Z" fill="#010101"/>
<path d="M226.388 0H217.674V144.569H226.388V0Z" fill="#010101"/>
<path d="M240.855 0H232.141V144.569H240.855V0Z" fill="#010101"/>
<path d="M275.709 0H261.242V144.569H275.709V0Z" fill="#010101"/>
<path d="M304.727 0H284.423V144.569H304.727V0Z" fill="#010101"/>
<path d="M325.03 0H319.193V144.569H325.03V0Z" fill="#010101"/>
<path d="M339.497 0H333.744V157H339.497V0Z" fill="#010101"/>
<path d="M354.048 0H348.211V157H354.048V0Z" fill="#010101"/>
<path d="M368.599 0H359.885V144.569H368.599V0Z" fill="#010101"/>
<path d="M383.15 0H374.437V144.569H383.15V0Z" fill="#010101"/>
<path d="M420.797 0H409.207V144.569H420.797V0Z" fill="#010101"/>
<path d="M449.814 0H438.308V144.569H449.814V0Z" fill="#010101"/>
<path d="M470.033 0H458.528V144.569H470.033V0Z" fill="#010101"/>
<path d="M493.299 0H481.793V144.569H493.299V0Z" fill="#010101"/>
<path d="M536.867 0H510.811V144.569H536.867V0Z" fill="#010101"/>
<path d="M548.542 0H539.828V144.569H548.542V0Z" fill="#010101"/>
<path d="M586.273 0H560.047V144.569H586.273V0Z" fill="#010101"/>
<path d="M606.492 0H594.818V144.569H606.492V0Z" fill="#010101"/>
<path d="M635.594 0H612.245V144.569H635.594V0Z" fill="#010101"/>
<path d="M670.449 0H661.735V156.88H670.449V0Z" fill="#010101"/>
<path d="M657.59 0H648.876V144.569H657.59V0Z" fill="#010101"/>
<path d="M685 0H676.286V156.88H685V0Z" fill="#010101"/>
</mask>
<g mask="url(#mask0_7_10)">
<path fill-rule="evenodd" clip-rule="evenodd" d="M32 -2.04883H102.5C127.629 -2.04883 148 18.7321 148 43.8611V143.451H113V43.207C113 36.9906 107.961 31.9512 101.744 31.9512H32V-2.04883ZM147 -2.04883H227V31.9512H147V-2.04883ZM569.5 -2.04883H499V31.9512H568.744C574.961 31.9512 580 36.9906 580 43.207V143.451H615V43.8611C615 18.7321 594.629 -2.04883 569.5 -2.04883ZM614 -2.04883H694V31.9512H614V-2.04883ZM247 -2.04883H288.98L369.658 113.477L441.02 -2.04883H483L392.171 143.951H346.368L247 -2.04883Z" fill="#124968"/>
</g>
</svg>
