<svg width="70" height="70" viewBox="0 0 70 70" fill="none" xmlns="http://www.w3.org/2000/svg">
<g clip-path="url(#clip0_2_629)">
<path d="M70 35C70 15.67 54.33 0 35 0C15.67 0 0 15.67 0 35C0 54.33 15.67 70 35 70C54.33 70 70 54.33 70 35Z" fill="#0B0B0B"/>
<path d="M69.5 35C69.5 15.9462 54.0538 0.5 35 0.5C15.9462 0.5 0.5 15.9462 0.5 35C0.5 54.0538 15.9462 69.5 35 69.5C54.0538 69.5 69.5 54.0538 69.5 35Z" stroke="#DFE1E7" stroke-opacity="0.1"/>
<mask id="mask0_2_629" style="mask-type:alpha" maskUnits="userSpaceOnUse" x="4" y="16" width="58" height="38">
<path d="M4.96703 16H4V53.3487H4.96703V16Z" fill="#010101"/>
<path d="M6.20628 16H5.23926V53.3487H6.20628V16Z" fill="#010101"/>
<path d="M9.15749 16H7.70337V50.4046H9.15749V16Z" fill="#010101"/>
<path d="M10.3895 16H9.64453V50.4046H10.3895V16Z" fill="#010101"/>
<path d="M12.345 16H10.6331V50.4046H12.345V16Z" fill="#010101"/>
<path d="M14.802 16H13.0972V50.4046H14.802V16Z" fill="#010101"/>
<path d="M17.0226 16H15.5542V50.4046H17.0226V16Z" fill="#010101"/>
<path d="M18.9853 16H17.5168V50.4046H18.9853V16Z" fill="#010101"/>
<path d="M21.7002 16H19.2361V50.4046H21.7002V16Z" fill="#010101"/>
<path d="M23.1687 16H22.4309V50.4046H23.1687V16Z" fill="#010101"/>
<path d="M24.3936 16H23.6558V50.4046H24.3936V16Z" fill="#010101"/>
<path d="M27.3448 16H26.1199V50.4046H27.3448V16Z" fill="#010101"/>
<path d="M29.8017 16H28.0825V50.4046H29.8017V16Z" fill="#010101"/>
<path d="M31.5209 16H31.0266V50.4046H31.5209V16Z" fill="#010101"/>
<path d="M32.7459 16H32.2588V53.363H32.7459V16Z" fill="#010101"/>
<path d="M33.9779 16H33.4836V53.363H33.9779V16Z" fill="#010101"/>
<path d="M35.2097 16H34.4719V50.4046H35.2097V16Z" fill="#010101"/>
<path d="M36.4419 16H35.7041V50.4046H36.4419V16Z" fill="#010101"/>
<path d="M39.6295 16H38.6482V50.4046H39.6295V16Z" fill="#010101"/>
<path d="M42.0865 16H41.1123V50.4046H42.0865V16Z" fill="#010101"/>
<path d="M43.7984 16H42.8242V50.4046H43.7984V16Z" fill="#010101"/>
<path d="M45.7684 16H44.7942V50.4046H45.7684V16Z" fill="#010101"/>
<path d="M49.4575 16H47.2512V50.4046H49.4575V16Z" fill="#010101"/>
<path d="M50.4458 16H49.708V50.4046H50.4458V16Z" fill="#010101"/>
<path d="M53.6407 16H51.4202V50.4046H53.6407V16Z" fill="#010101"/>
<path d="M55.3528 16H54.3643V50.4046H55.3528V16Z" fill="#010101"/>
<path d="M57.8169 16H55.8398V50.4046H57.8169V16Z" fill="#010101"/>
<path d="M60.7681 16H60.0303V53.3343H60.7681V16Z" fill="#010101"/>
<path d="M59.6792 16H58.9414V50.4046H59.6792V16Z" fill="#010101"/>
<path d="M62 16H61.2622V53.3343H62V16Z" fill="#010101"/>
</mask>
<g mask="url(#mask0_2_629)">
<path fill-rule="evenodd" clip-rule="evenodd" d="M17.4864 31.0544H24.1055V33.8676H17.4864V31.0544ZM7.97144 31.0545H13.8045C15.8837 31.0545 17.5692 32.7739 17.5692 34.853V43.093H14.6733V34.7989C14.6733 34.2846 14.2563 33.8676 13.742 33.8676H7.97144V31.0545ZM52.4436 31.0544H46.6105V33.8676H52.381C52.8954 33.8676 53.3123 34.2845 53.3123 34.7989V43.093H56.2082V34.853C56.2082 32.7738 54.5227 31.0544 52.4436 31.0544ZM56.1255 31.0544H62.7446V33.8676H56.1255V31.0544ZM25.7603 31.0544H29.2337L35.9089 40.6129L41.8133 31.0544H45.2867L37.7716 43.1343H33.982L25.7603 31.0544Z" fill="#00AAD0"/>
</g>
</g>
<defs>
<clipPath id="clip0_2_629">
<rect width="70" height="70" fill="white"/>
</clipPath>
</defs>
</svg>
